<svg version="1.1" xmlns="http://www.w3.org/2000/svg" viewBox="0 0 634.5 354.75" width="1269" height="709.5">
  <!-- svg-source:excalidraw -->
  
  <defs>
    <style class="style-fonts">
      @font-face {
        font-family: "Virgil";
        src: url("https://excalidraw.com/Virgil.woff2");
      }
      @font-face {
        font-family: "Cascadia";
        src: url("https://excalidraw.com/Cascadia.woff2");
      }
      @font-face {
        font-family: "Assistant";
        src: url("https://excalidraw.com/Assistant-Regular.woff2");
      }
    </style>
    
  </defs>
  <rect x="0" y="0" width="634.5" height="354.75" fill="#ffffff"></rect><g stroke-linecap="round" transform="translate(10 15.5) rotate(0 61 25.5)"><path d="M12.75 0 C34.37 1.09, 55.09 -0.09, 109.25 0 M12.75 0 C42.52 0.37, 74.01 -0.06, 109.25 0 M109.25 0 C119.59 -0.38, 121.63 5.69, 122 12.75 M109.25 0 C116.33 -1.48, 120.38 4.18, 122 12.75 M122 12.75 C120.94 22.21, 122.55 31.83, 122 38.25 M122 12.75 C121.47 21.46, 121.65 29.24, 122 38.25 M122 38.25 C123.54 48.45, 117.63 51.33, 109.25 51 M122 38.25 C123.24 46.75, 119.23 51.16, 109.25 51 M109.25 51 C74.2 51.74, 43.09 50.48, 12.75 51 M109.25 51 C88.25 51.45, 67.75 50.09, 12.75 51 M12.75 51 C2.66 51.48, -1.06 45.79, 0 38.25 M12.75 51 C2.73 50.93, -1.21 44.72, 0 38.25 M0 38.25 C0.45 28.92, 0.05 22.14, 0 12.75 M0 38.25 C-0.54 31.65, 0.15 25.76, 0 12.75 M0 12.75 C-0.5 4.89, 2.79 -0.93, 12.75 0 M0 12.75 C1.67 2.43, 5.43 0.09, 12.75 0" stroke="#1e1e1e" stroke-width="2" fill="none"></path></g><g stroke-linecap="round" transform="translate(165 15) rotate(0 61 25.5)"><path d="M12.75 0 C40.39 2.25, 65.01 2.54, 109.25 0 M12.75 0 C34.16 -0.65, 57.81 -0.88, 109.25 0 M109.25 0 C117.83 -0.76, 122.86 5.45, 122 12.75 M109.25 0 C115.72 1.43, 119.76 5.4, 122 12.75 M122 12.75 C122.37 18.06, 121.84 24.8, 122 38.25 M122 12.75 C122.34 17.47, 121.05 23.76, 122 38.25 M122 38.25 C122.33 46.73, 116.53 50.12, 109.25 51 M122 38.25 C123.07 46.68, 116.04 53.18, 109.25 51 M109.25 51 C79.44 49.99, 50.07 49.97, 12.75 51 M109.25 51 C89.95 51.38, 69.73 51.36, 12.75 51 M12.75 51 C3.87 51.9, -0.73 47.63, 0 38.25 M12.75 51 C3.98 50.98, 1.62 46.57, 0 38.25 M0 38.25 C1.85 31.34, -0.67 24.11, 0 12.75 M0 38.25 C-0.07 30.85, 0.3 22.64, 0 12.75 M0 12.75 C0.5 4.62, 5.4 0.55, 12.75 0 M0 12.75 C1.62 4.95, 2.87 -1.57, 12.75 0" stroke="#1e1e1e" stroke-width="2" fill="none"></path></g><g stroke-linecap="round" transform="translate(497 10) rotate(0 61 25.5)"><path d="M12.75 0 C50.3 -0.96, 85.21 0.8, 109.25 0 M12.75 0 C47.06 -0.02, 79.83 0.54, 109.25 0 M109.25 0 C117.02 0.88, 121.77 4.24, 122 12.75 M109.25 0 C119.37 -0.18, 121.39 4.5, 122 12.75 M122 12.75 C121.59 20.74, 122.03 29.89, 122 38.25 M122 12.75 C122.41 19.2, 122.26 27.55, 122 38.25 M122 38.25 C123.15 47.3, 119.16 51.61, 109.25 51 M122 38.25 C120.62 45.18, 119.97 50.81, 109.25 51 M109.25 51 C76.1 51.5, 45.11 51.15, 12.75 51 M109.25 51 C70.35 49.59, 32.16 49.35, 12.75 51 M12.75 51 C5.54 50.83, 1.71 47.21, 0 38.25 M12.75 51 C5.55 50.25, -2.15 48.35, 0 38.25 M0 38.25 C-0.41 29.08, -0.89 20.81, 0 12.75 M0 38.25 C-0.61 30.59, 0.36 22.48, 0 12.75 M0 12.75 C-0.38 4.26, 5.08 -0.39, 12.75 0 M0 12.75 C-1.95 4.5, 3.47 -1.39, 12.75 0" stroke="#1e1e1e" stroke-width="2" fill="none"></path></g><g transform="translate(343 37.5) rotate(0 0.00004999999998744897 0.00005000000000165983)" stroke="none"><path fill="#1e1e1e" d="M 3.14,-3.14 Q 3.14,-3.14 3.55,-2.55 3.97,-1.97 4.18,-1.28 4.40,-0.59 4.38,0.11 4.36,0.83 4.11,1.51 3.86,2.18 3.41,2.74 2.96,3.30 2.36,3.69 1.75,4.08 1.05,4.25 0.36,4.42 -0.35,4.36 -1.07,4.31 -1.73,4.02 -2.39,3.74 -2.92,3.26 -3.46,2.78 -3.81,2.15 -4.16,1.53 -4.30,0.82 -4.43,0.11 -4.34,-0.59 -4.24,-1.30 -3.92,-1.94 -3.60,-2.59 -3.09,-3.09 -2.59,-3.60 -1.94,-3.92 -1.30,-4.24 -0.59,-4.34 0.12,-4.43 0.82,-4.30 1.53,-4.16 2.15,-3.81 2.78,-3.46 3.26,-2.92 3.74,-2.39 4.02,-1.73 4.31,-1.07 4.36,-0.35 4.42,0.36 4.25,1.05 4.07,1.75 3.69,2.36 3.30,2.96 2.74,3.41 2.18,3.86 1.51,4.11 0.83,4.36 0.11,4.38 -0.60,4.40 -1.28,4.18 -1.97,3.97 -2.55,3.55 -3.14,3.13 -3.14,3.14 -3.14,3.14 -3.47,2.71 -3.80,2.29 -4.02,1.80 -4.24,1.32 -4.33,0.79 -4.43,0.26 -4.40,-0.26 -4.36,-0.80 -4.20,-1.31 -4.04,-1.82 -3.77,-2.28 -3.49,-2.73 -3.11,-3.11 -2.73,-3.49 -2.28,-3.77 -1.82,-4.05 -1.31,-4.20 -0.80,-4.36 -0.26,-4.40 0.26,-4.43 0.79,-4.33 1.32,-4.24 1.80,-4.02 2.29,-3.80 2.71,-3.47 3.14,-3.14 3.14,-3.14 L 3.14,-3.14 Z"></path></g><g transform="translate(388 38.5) rotate(0 0.00004999999998744897 0.00005000000000165983)" stroke="none"><path fill="#1e1e1e" d="M 3.14,-3.14 Q 3.14,-3.14 3.55,-2.55 3.97,-1.97 4.18,-1.28 4.40,-0.59 4.38,0.11 4.36,0.83 4.11,1.51 3.86,2.18 3.41,2.74 2.96,3.30 2.36,3.69 1.75,4.08 1.05,4.25 0.36,4.42 -0.35,4.36 -1.07,4.31 -1.73,4.02 -2.39,3.74 -2.92,3.26 -3.46,2.78 -3.81,2.15 -4.16,1.53 -4.30,0.82 -4.43,0.11 -4.34,-0.59 -4.24,-1.30 -3.92,-1.94 -3.60,-2.59 -3.09,-3.09 -2.59,-3.60 -1.94,-3.92 -1.30,-4.24 -0.59,-4.34 0.12,-4.43 0.82,-4.30 1.53,-4.16 2.15,-3.81 2.78,-3.46 3.26,-2.92 3.74,-2.39 4.02,-1.73 4.31,-1.07 4.36,-0.35 4.42,0.36 4.25,1.05 4.07,1.75 3.69,2.36 3.30,2.96 2.74,3.41 2.18,3.86 1.51,4.11 0.83,4.36 0.11,4.38 -0.60,4.40 -1.28,4.18 -1.97,3.97 -2.55,3.55 -3.14,3.13 -3.14,3.14 -3.14,3.14 -3.47,2.71 -3.80,2.29 -4.02,1.80 -4.24,1.32 -4.33,0.79 -4.43,0.26 -4.40,-0.26 -4.36,-0.80 -4.20,-1.31 -4.04,-1.82 -3.77,-2.28 -3.49,-2.73 -3.11,-3.11 -2.73,-3.49 -2.28,-3.77 -1.82,-4.05 -1.31,-4.20 -0.80,-4.36 -0.26,-4.40 0.26,-4.43 0.79,-4.33 1.32,-4.24 1.80,-4.02 2.29,-3.80 2.71,-3.47 3.14,-3.14 3.14,-3.14 L 3.14,-3.14 Z"></path></g><g transform="translate(429 39.5) rotate(0 0.00004999999998744897 0.00005000000000165983)" stroke="none"><path fill="#1e1e1e" d="M 3.14,-3.14 Q 3.14,-3.14 3.55,-2.55 3.97,-1.97 4.18,-1.28 4.40,-0.59 4.38,0.11 4.36,0.83 4.11,1.51 3.86,2.18 3.41,2.74 2.96,3.30 2.36,3.69 1.75,4.08 1.05,4.25 0.36,4.42 -0.35,4.36 -1.07,4.31 -1.73,4.02 -2.39,3.74 -2.92,3.26 -3.46,2.78 -3.81,2.15 -4.16,1.53 -4.30,0.82 -4.43,0.11 -4.34,-0.59 -4.24,-1.30 -3.92,-1.94 -3.60,-2.59 -3.09,-3.09 -2.59,-3.60 -1.94,-3.92 -1.30,-4.24 -0.59,-4.34 0.12,-4.43 0.82,-4.30 1.53,-4.16 2.15,-3.81 2.78,-3.46 3.26,-2.92 3.74,-2.39 4.02,-1.73 4.31,-1.07 4.36,-0.35 4.42,0.36 4.25,1.05 4.07,1.75 3.69,2.36 3.30,2.96 2.74,3.41 2.18,3.86 1.51,4.11 0.83,4.36 0.11,4.38 -0.60,4.40 -1.28,4.18 -1.97,3.97 -2.55,3.55 -3.14,3.13 -3.14,3.14 -3.14,3.14 -3.47,2.71 -3.80,2.29 -4.02,1.80 -4.24,1.32 -4.33,0.79 -4.43,0.26 -4.40,-0.26 -4.36,-0.80 -4.20,-1.31 -4.04,-1.82 -3.77,-2.28 -3.49,-2.73 -3.11,-3.11 -2.73,-3.49 -2.28,-3.77 -1.82,-4.05 -1.31,-4.20 -0.80,-4.36 -0.26,-4.40 0.26,-4.43 0.79,-4.33 1.32,-4.24 1.80,-4.02 2.29,-3.80 2.71,-3.47 3.14,-3.14 3.14,-3.14 L 3.14,-3.14 Z"></path></g><g stroke-linecap="round" transform="translate(12.5 95.75) rotate(0 61 25.5)"><path d="M12.75 0 C44.31 -0.02, 80.06 -0.2, 109.25 0 M12.75 0 C48.94 1.22, 83.76 1.56, 109.25 0 M109.25 0 C117.54 0.62, 121.01 4.81, 122 12.75 M109.25 0 C119.18 2.06, 123.97 5.6, 122 12.75 M122 12.75 C120.8 19.79, 122.29 24.97, 122 38.25 M122 12.75 C122.53 21.68, 121.93 30.81, 122 38.25 M122 38.25 C121.51 45.93, 118.79 49.37, 109.25 51 M122 38.25 C120.11 46.6, 115.51 52.13, 109.25 51 M109.25 51 C88.54 49.9, 68.16 51.42, 12.75 51 M109.25 51 C75.6 51.89, 40.97 51.06, 12.75 51 M12.75 51 C5.64 49.53, 0.6 47.3, 0 38.25 M12.75 51 C2.84 48.87, -2.16 48.74, 0 38.25 M0 38.25 C0.11 31.51, -0.05 22.2, 0 12.75 M0 38.25 C0.94 31.95, 0.9 27.68, 0 12.75 M0 12.75 C0.37 4.41, 6.12 -1.06, 12.75 0 M0 12.75 C1.47 4.63, 2.87 -1.63, 12.75 0" stroke="#1e1e1e" stroke-width="2" fill="none"></path></g><g stroke-linecap="round" transform="translate(167.5 95.25) rotate(0 61 25.5)"><path d="M12.75 0 C51.23 0.23, 88.43 -1.68, 109.25 0 M12.75 0 C32.63 0.35, 54.07 -0.08, 109.25 0 M109.25 0 C116.76 0.56, 123.25 6.04, 122 12.75 M109.25 0 C119.72 1.35, 120.18 4.38, 122 12.75 M122 12.75 C122.12 20.04, 122.64 24.33, 122 38.25 M122 12.75 C122.24 23.52, 121.93 32.43, 122 38.25 M122 38.25 C123.04 45.12, 116.11 50.87, 109.25 51 M122 38.25 C119.76 47.88, 115.91 52.87, 109.25 51 M109.25 51 C90.17 52.14, 69.43 50.98, 12.75 51 M109.25 51 C80.78 51.94, 52.26 51.13, 12.75 51 M12.75 51 C4.85 51.55, -1.23 44.89, 0 38.25 M12.75 51 C2.09 52.99, -0.53 47.23, 0 38.25 M0 38.25 C-0.01 26.91, -1.81 17.73, 0 12.75 M0 38.25 C0.5 30.15, 0 21.79, 0 12.75 M0 12.75 C1.87 3.19, 5.53 0.33, 12.75 0 M0 12.75 C-1.38 2.62, 2.22 0.75, 12.75 0" stroke="#1e1e1e" stroke-width="2" fill="none"></path></g><g stroke-linecap="round" transform="translate(499.5 90.25) rotate(0 61 25.5)"><path d="M12.75 0 C47 -1.59, 76.66 0.25, 109.25 0 M12.75 0 C45.44 -0.4, 77.84 -0.43, 109.25 0 M109.25 0 C119 1.79, 123.71 5.42, 122 12.75 M109.25 0 C115.93 0.13, 120.83 2.85, 122 12.75 M122 12.75 C122.83 21.07, 123.91 32.98, 122 38.25 M122 12.75 C121.77 20.66, 122.53 28.58, 122 38.25 M122 38.25 C120.36 46.62, 115.8 51.99, 109.25 51 M122 38.25 C120.16 48.62, 115.73 51.6, 109.25 51 M109.25 51 C82.63 51.71, 53.75 52.98, 12.75 51 M109.25 51 C72.31 50.33, 34.28 51.35, 12.75 51 M12.75 51 C3.02 49.14, -1.88 48.48, 0 38.25 M12.75 51 C3.72 51.48, 1.6 46.94, 0 38.25 M0 38.25 C-1.79 28.52, 0.49 23.59, 0 12.75 M0 38.25 C0.01 33.04, 0.76 27.13, 0 12.75 M0 12.75 C1.28 4.58, 3.05 -1.42, 12.75 0 M0 12.75 C-2.03 5, 3.99 -1.77, 12.75 0" stroke="#1e1e1e" stroke-width="2" fill="none"></path></g><g transform="translate(345.5 117.75) rotate(0 0.00004999999998744897 0.00004999999998744897)" stroke="none"><path fill="#1e1e1e" d="M 3.14,-3.14 Q 3.14,-3.14 3.55,-2.55 3.97,-1.97 4.18,-1.28 4.40,-0.59 4.38,0.11 4.36,0.83 4.11,1.51 3.86,2.18 3.41,2.74 2.96,3.30 2.36,3.69 1.75,4.07 1.05,4.25 0.36,4.42 -0.35,4.36 -1.07,4.30 -1.73,4.02 -2.39,3.74 -2.92,3.26 -3.46,2.78 -3.81,2.15 -4.16,1.53 -4.30,0.82 -4.43,0.11 -4.34,-0.59 -4.24,-1.30 -3.92,-1.94 -3.60,-2.59 -3.09,-3.09 -2.59,-3.60 -1.94,-3.92 -1.30,-4.24 -0.59,-4.34 0.12,-4.43 0.82,-4.30 1.53,-4.16 2.15,-3.81 2.78,-3.46 3.26,-2.92 3.74,-2.39 4.02,-1.73 4.31,-1.07 4.36,-0.35 4.42,0.36 4.25,1.05 4.07,1.75 3.69,2.36 3.30,2.96 2.74,3.41 2.18,3.86 1.51,4.11 0.83,4.36 0.11,4.38 -0.60,4.40 -1.28,4.18 -1.97,3.97 -2.55,3.55 -3.14,3.13 -3.14,3.14 -3.14,3.14 -3.47,2.71 -3.80,2.29 -4.02,1.80 -4.24,1.32 -4.33,0.79 -4.43,0.26 -4.40,-0.26 -4.36,-0.80 -4.20,-1.31 -4.04,-1.82 -3.77,-2.28 -3.49,-2.73 -3.11,-3.11 -2.73,-3.49 -2.28,-3.77 -1.82,-4.05 -1.31,-4.20 -0.80,-4.36 -0.26,-4.40 0.26,-4.43 0.79,-4.33 1.32,-4.24 1.80,-4.02 2.29,-3.80 2.71,-3.47 3.14,-3.14 3.14,-3.14 L 3.14,-3.14 Z"></path></g><g transform="translate(390.5 118.75) rotate(0 0.00004999999998744897 0.00004999999998744897)" stroke="none"><path fill="#1e1e1e" d="M 3.14,-3.14 Q 3.14,-3.14 3.55,-2.55 3.97,-1.97 4.18,-1.28 4.40,-0.59 4.38,0.11 4.36,0.83 4.11,1.51 3.86,2.18 3.41,2.74 2.96,3.30 2.36,3.69 1.75,4.07 1.05,4.25 0.36,4.42 -0.35,4.36 -1.07,4.30 -1.73,4.02 -2.39,3.74 -2.92,3.26 -3.46,2.78 -3.81,2.15 -4.16,1.53 -4.30,0.82 -4.43,0.11 -4.34,-0.59 -4.24,-1.30 -3.92,-1.94 -3.60,-2.59 -3.09,-3.09 -2.59,-3.60 -1.94,-3.92 -1.30,-4.24 -0.59,-4.34 0.12,-4.43 0.82,-4.30 1.53,-4.16 2.15,-3.81 2.78,-3.46 3.26,-2.92 3.74,-2.39 4.02,-1.73 4.31,-1.07 4.36,-0.35 4.42,0.36 4.25,1.05 4.07,1.75 3.69,2.36 3.30,2.96 2.74,3.41 2.18,3.86 1.51,4.11 0.83,4.36 0.11,4.38 -0.60,4.40 -1.28,4.18 -1.97,3.97 -2.55,3.55 -3.14,3.13 -3.14,3.14 -3.14,3.14 -3.47,2.71 -3.80,2.29 -4.02,1.80 -4.24,1.32 -4.33,0.79 -4.43,0.26 -4.40,-0.26 -4.36,-0.80 -4.20,-1.31 -4.04,-1.82 -3.77,-2.28 -3.49,-2.73 -3.11,-3.11 -2.73,-3.49 -2.28,-3.77 -1.82,-4.05 -1.31,-4.20 -0.80,-4.36 -0.26,-4.40 0.26,-4.43 0.79,-4.33 1.32,-4.24 1.80,-4.02 2.29,-3.80 2.71,-3.47 3.14,-3.14 3.14,-3.14 L 3.14,-3.14 Z"></path></g><g transform="translate(431.5 119.75) rotate(0 0.00004999999998744897 0.00004999999998744897)" stroke="none"><path fill="#1e1e1e" d="M 3.14,-3.14 Q 3.14,-3.14 3.55,-2.55 3.97,-1.97 4.18,-1.28 4.40,-0.59 4.38,0.11 4.36,0.83 4.11,1.51 3.86,2.18 3.41,2.74 2.96,3.30 2.36,3.69 1.75,4.07 1.05,4.25 0.36,4.42 -0.35,4.36 -1.07,4.30 -1.73,4.02 -2.39,3.74 -2.92,3.26 -3.46,2.78 -3.81,2.15 -4.16,1.53 -4.30,0.82 -4.43,0.11 -4.34,-0.59 -4.24,-1.30 -3.92,-1.94 -3.60,-2.59 -3.09,-3.09 -2.59,-3.60 -1.94,-3.92 -1.30,-4.24 -0.59,-4.34 0.12,-4.43 0.82,-4.30 1.53,-4.16 2.15,-3.81 2.78,-3.46 3.26,-2.92 3.74,-2.39 4.02,-1.73 4.31,-1.07 4.36,-0.35 4.42,0.36 4.25,1.05 4.07,1.75 3.69,2.36 3.30,2.96 2.74,3.41 2.18,3.86 1.51,4.11 0.83,4.36 0.11,4.38 -0.60,4.40 -1.28,4.18 -1.97,3.97 -2.55,3.55 -3.14,3.13 -3.14,3.14 -3.14,3.14 -3.47,2.71 -3.80,2.29 -4.02,1.80 -4.24,1.32 -4.33,0.79 -4.43,0.26 -4.40,-0.26 -4.36,-0.80 -4.20,-1.31 -4.04,-1.82 -3.77,-2.28 -3.49,-2.73 -3.11,-3.11 -2.73,-3.49 -2.28,-3.77 -1.82,-4.05 -1.31,-4.20 -0.80,-4.36 -0.26,-4.40 0.26,-4.43 0.79,-4.33 1.32,-4.24 1.80,-4.02 2.29,-3.80 2.71,-3.47 3.14,-3.14 3.14,-3.14 L 3.14,-3.14 Z"></path></g><g transform="translate(296 184.5) rotate(0 0.00004999999998744897 0.00004999999998744897)" stroke="none"><path fill="#1e1e1e" d="M 3.14,-3.14 Q 3.14,-3.14 3.55,-2.55 3.97,-1.97 4.18,-1.28 4.40,-0.59 4.38,0.11 4.36,0.83 4.11,1.51 3.86,2.18 3.41,2.74 2.96,3.30 2.36,3.69 1.75,4.08 1.05,4.25 0.36,4.42 -0.35,4.36 -1.07,4.31 -1.73,4.02 -2.39,3.74 -2.92,3.26 -3.46,2.78 -3.81,2.15 -4.16,1.53 -4.30,0.82 -4.43,0.11 -4.34,-0.59 -4.24,-1.30 -3.92,-1.94 -3.60,-2.59 -3.09,-3.09 -2.59,-3.60 -1.94,-3.92 -1.30,-4.24 -0.59,-4.34 0.12,-4.43 0.82,-4.30 1.53,-4.16 2.15,-3.81 2.78,-3.46 3.26,-2.92 3.74,-2.39 4.02,-1.73 4.31,-1.07 4.36,-0.35 4.42,0.36 4.25,1.05 4.07,1.75 3.69,2.36 3.30,2.96 2.74,3.41 2.18,3.86 1.51,4.11 0.83,4.36 0.11,4.38 -0.60,4.40 -1.28,4.18 -1.97,3.97 -2.55,3.55 -3.14,3.13 -3.14,3.14 -3.14,3.14 -3.47,2.71 -3.80,2.29 -4.02,1.80 -4.24,1.32 -4.33,0.79 -4.43,0.26 -4.40,-0.26 -4.36,-0.80 -4.20,-1.31 -4.04,-1.82 -3.77,-2.28 -3.49,-2.73 -3.11,-3.11 -2.73,-3.49 -2.28,-3.77 -1.82,-4.05 -1.31,-4.20 -0.80,-4.36 -0.26,-4.40 0.26,-4.43 0.79,-4.33 1.32,-4.24 1.80,-4.02 2.29,-3.80 2.71,-3.47 3.14,-3.14 3.14,-3.14 L 3.14,-3.14 Z"></path></g><g transform="translate(296 220.5) rotate(0 0.00004999999998744897 0.00004999999998744897)" stroke="none"><path fill="#1e1e1e" d="M 3.14,-3.14 Q 3.14,-3.14 3.55,-2.55 3.97,-1.97 4.18,-1.28 4.40,-0.59 4.38,0.11 4.36,0.83 4.11,1.51 3.86,2.18 3.41,2.74 2.96,3.30 2.36,3.69 1.75,4.08 1.05,4.25 0.36,4.42 -0.35,4.36 -1.07,4.31 -1.73,4.02 -2.39,3.74 -2.92,3.26 -3.46,2.78 -3.81,2.15 -4.16,1.53 -4.30,0.82 -4.43,0.11 -4.34,-0.59 -4.24,-1.30 -3.92,-1.94 -3.60,-2.59 -3.09,-3.09 -2.59,-3.60 -1.94,-3.92 -1.30,-4.24 -0.59,-4.34 0.12,-4.43 0.82,-4.30 1.53,-4.16 2.15,-3.81 2.78,-3.46 3.26,-2.92 3.74,-2.39 4.02,-1.73 4.31,-1.07 4.36,-0.35 4.42,0.36 4.25,1.05 4.07,1.75 3.69,2.36 3.30,2.96 2.74,3.41 2.18,3.86 1.51,4.11 0.83,4.36 0.11,4.38 -0.60,4.40 -1.28,4.18 -1.97,3.97 -2.55,3.55 -3.14,3.13 -3.14,3.14 -3.14,3.14 -3.47,2.71 -3.80,2.29 -4.02,1.80 -4.24,1.32 -4.33,0.79 -4.43,0.26 -4.40,-0.26 -4.36,-0.80 -4.20,-1.31 -4.04,-1.82 -3.77,-2.28 -3.49,-2.73 -3.11,-3.11 -2.73,-3.49 -2.28,-3.77 -1.82,-4.05 -1.31,-4.20 -0.80,-4.36 -0.26,-4.40 0.26,-4.43 0.79,-4.33 1.32,-4.24 1.80,-4.02 2.29,-3.80 2.71,-3.47 3.14,-3.14 3.14,-3.14 L 3.14,-3.14 Z"></path></g><g transform="translate(297 256.5) rotate(0 0.00004999999998744897 0.00004999999998744897)" stroke="none"><path fill="#1e1e1e" d="M 3.14,-3.14 Q 3.14,-3.14 3.55,-2.55 3.97,-1.97 4.18,-1.28 4.40,-0.59 4.38,0.11 4.36,0.83 4.11,1.51 3.86,2.18 3.41,2.74 2.96,3.30 2.36,3.69 1.75,4.08 1.05,4.25 0.36,4.42 -0.35,4.36 -1.07,4.31 -1.73,4.02 -2.39,3.74 -2.92,3.26 -3.46,2.78 -3.81,2.15 -4.16,1.53 -4.30,0.82 -4.43,0.11 -4.34,-0.59 -4.24,-1.30 -3.92,-1.94 -3.60,-2.59 -3.09,-3.09 -2.59,-3.60 -1.94,-3.92 -1.30,-4.24 -0.59,-4.34 0.12,-4.43 0.82,-4.30 1.53,-4.16 2.15,-3.81 2.78,-3.46 3.26,-2.92 3.74,-2.39 4.02,-1.73 4.31,-1.07 4.36,-0.35 4.42,0.36 4.25,1.05 4.07,1.75 3.69,2.36 3.30,2.96 2.74,3.41 2.18,3.86 1.51,4.11 0.83,4.36 0.11,4.38 -0.60,4.40 -1.28,4.18 -1.97,3.97 -2.55,3.55 -3.14,3.13 -3.14,3.14 -3.14,3.14 -3.47,2.71 -3.80,2.29 -4.02,1.80 -4.24,1.32 -4.33,0.79 -4.43,0.26 -4.40,-0.26 -4.36,-0.80 -4.20,-1.31 -4.04,-1.82 -3.77,-2.28 -3.49,-2.73 -3.11,-3.11 -2.73,-3.49 -2.28,-3.77 -1.82,-4.05 -1.31,-4.20 -0.80,-4.36 -0.26,-4.40 0.26,-4.43 0.79,-4.33 1.32,-4.24 1.80,-4.02 2.29,-3.80 2.71,-3.47 3.14,-3.14 3.14,-3.14 L 3.14,-3.14 Z"></path></g><g stroke-linecap="round" transform="translate(15.5 293.75) rotate(0 61 25.5)"><path d="M12.75 0 C35.01 2.45, 53.62 1.16, 109.25 0 M12.75 0 C49.68 -0.02, 85.56 0.4, 109.25 0 M109.25 0 C116.09 -0.24, 122.78 4.9, 122 12.75 M109.25 0 C118.8 1.01, 123.97 4.36, 122 12.75 M122 12.75 C122.27 20.09, 121.4 25.79, 122 38.25 M122 12.75 C121.72 21.81, 122.21 31.7, 122 38.25 M122 38.25 C121.6 48.23, 117.99 52.34, 109.25 51 M122 38.25 C120.04 45.87, 116.23 52.81, 109.25 51 M109.25 51 C73.82 52.65, 36.77 52.61, 12.75 51 M109.25 51 C88.31 51.82, 66.59 51.37, 12.75 51 M12.75 51 C2.49 51.09, 0.89 44.96, 0 38.25 M12.75 51 C5.89 50.09, -0.73 45.16, 0 38.25 M0 38.25 C0.34 28.58, -0.06 18.43, 0 12.75 M0 38.25 C-0.46 30.71, 0.31 22.62, 0 12.75 M0 12.75 C1.83 5.19, 2.4 1.73, 12.75 0 M0 12.75 C-1.04 4.09, 6 0.34, 12.75 0" stroke="#1e1e1e" stroke-width="2" fill="none"></path></g><g stroke-linecap="round" transform="translate(170.5 293.25) rotate(0 61 25.5)"><path d="M12.75 0 C35.37 -0.36, 59.09 0.47, 109.25 0 M12.75 0 C41.69 0.41, 70.32 -0.13, 109.25 0 M109.25 0 C118.53 0.65, 122.92 5.13, 122 12.75 M109.25 0 C119.72 0.11, 121.07 3.15, 122 12.75 M122 12.75 C121.57 21.01, 123.4 29.65, 122 38.25 M122 12.75 C122.13 19.54, 121.73 26.64, 122 38.25 M122 38.25 C122.24 48.09, 116.04 50.23, 109.25 51 M122 38.25 C120.48 48.56, 119.38 49.66, 109.25 51 M109.25 51 C70.51 52.09, 32.11 51.44, 12.75 51 M109.25 51 C74.52 50.93, 37.98 51.23, 12.75 51 M12.75 51 C5.14 49.21, 1.42 45.96, 0 38.25 M12.75 51 C3.52 49.41, 1.65 47.83, 0 38.25 M0 38.25 C0.01 30.12, 0.01 22.71, 0 12.75 M0 38.25 C0.33 29.19, 1.06 20.91, 0 12.75 M0 12.75 C-1.85 5.98, 3.35 -0.14, 12.75 0 M0 12.75 C1.75 4.59, 3.68 -0.16, 12.75 0" stroke="#1e1e1e" stroke-width="2" fill="none"></path></g><g stroke-linecap="round" transform="translate(502.5 288.25) rotate(0 61 25.5)"><path d="M12.75 0 C51.94 1.09, 88.03 0.54, 109.25 0 M12.75 0 C40.95 -0.53, 71.21 -0.08, 109.25 0 M109.25 0 C118.67 0.88, 123.71 4.34, 122 12.75 M109.25 0 C116.82 -1.1, 122.72 4.7, 122 12.75 M122 12.75 C123.29 21.33, 121.1 29.34, 122 38.25 M122 12.75 C121.85 20.35, 122.17 27.14, 122 38.25 M122 38.25 C120.29 45.98, 116.43 52.57, 109.25 51 M122 38.25 C123.63 45.41, 119.86 51.39, 109.25 51 M109.25 51 C75.06 51.42, 45.23 52.6, 12.75 51 M109.25 51 C77.57 50.8, 48.1 49.86, 12.75 51 M12.75 51 C5.67 50.21, -0.63 45.37, 0 38.25 M12.75 51 C5.9 52.08, -0.34 47.27, 0 38.25 M0 38.25 C0.06 29.84, 0.98 22.26, 0 12.75 M0 38.25 C0.87 30.58, -0.97 22.83, 0 12.75 M0 12.75 C-0.9 4.11, 5.77 0.29, 12.75 0 M0 12.75 C-0.57 4.09, 4.9 -2.13, 12.75 0" stroke="#1e1e1e" stroke-width="2" fill="none"></path></g><g transform="translate(348.5 315.75) rotate(0 0.00004999999998744897 0.00004999999998744897)" stroke="none"><path fill="#1e1e1e" d="M 3.14,-3.14 Q 3.14,-3.14 3.55,-2.55 3.97,-1.97 4.18,-1.28 4.40,-0.59 4.38,0.11 4.36,0.83 4.11,1.51 3.86,2.18 3.41,2.74 2.96,3.30 2.36,3.69 1.75,4.07 1.05,4.25 0.36,4.42 -0.35,4.36 -1.07,4.30 -1.73,4.02 -2.39,3.74 -2.92,3.26 -3.46,2.78 -3.81,2.15 -4.16,1.53 -4.30,0.82 -4.43,0.11 -4.34,-0.59 -4.24,-1.30 -3.92,-1.94 -3.60,-2.59 -3.09,-3.09 -2.59,-3.60 -1.94,-3.92 -1.30,-4.24 -0.59,-4.34 0.12,-4.43 0.82,-4.30 1.53,-4.16 2.15,-3.81 2.78,-3.46 3.26,-2.92 3.74,-2.39 4.02,-1.73 4.31,-1.07 4.36,-0.35 4.42,0.36 4.25,1.05 4.07,1.75 3.69,2.36 3.30,2.96 2.74,3.41 2.18,3.86 1.51,4.11 0.83,4.36 0.11,4.38 -0.60,4.40 -1.28,4.18 -1.97,3.97 -2.55,3.55 -3.14,3.13 -3.14,3.14 -3.14,3.14 -3.47,2.71 -3.80,2.29 -4.02,1.80 -4.24,1.32 -4.33,0.79 -4.43,0.26 -4.40,-0.26 -4.36,-0.80 -4.20,-1.31 -4.04,-1.82 -3.77,-2.28 -3.49,-2.73 -3.11,-3.11 -2.73,-3.49 -2.28,-3.77 -1.82,-4.05 -1.31,-4.20 -0.80,-4.36 -0.26,-4.40 0.26,-4.43 0.79,-4.33 1.32,-4.24 1.80,-4.02 2.29,-3.80 2.71,-3.47 3.14,-3.14 3.14,-3.14 L 3.14,-3.14 Z"></path></g><g transform="translate(393.5 316.75) rotate(0 0.00004999999998744897 0.00004999999998744897)" stroke="none"><path fill="#1e1e1e" d="M 3.14,-3.14 Q 3.14,-3.14 3.55,-2.55 3.97,-1.97 4.18,-1.28 4.40,-0.59 4.38,0.11 4.36,0.83 4.11,1.51 3.86,2.18 3.41,2.74 2.96,3.30 2.36,3.69 1.75,4.07 1.05,4.25 0.36,4.42 -0.35,4.36 -1.07,4.30 -1.73,4.02 -2.39,3.74 -2.92,3.26 -3.46,2.78 -3.81,2.15 -4.16,1.53 -4.30,0.82 -4.43,0.11 -4.34,-0.59 -4.24,-1.30 -3.92,-1.94 -3.60,-2.59 -3.09,-3.09 -2.59,-3.60 -1.94,-3.92 -1.30,-4.24 -0.59,-4.34 0.12,-4.43 0.82,-4.30 1.53,-4.16 2.15,-3.81 2.78,-3.46 3.26,-2.92 3.74,-2.39 4.02,-1.73 4.31,-1.07 4.36,-0.35 4.42,0.36 4.25,1.05 4.07,1.75 3.69,2.36 3.30,2.96 2.74,3.41 2.18,3.86 1.51,4.11 0.83,4.36 0.11,4.38 -0.60,4.40 -1.28,4.18 -1.97,3.97 -2.55,3.55 -3.14,3.13 -3.14,3.14 -3.14,3.14 -3.47,2.71 -3.80,2.29 -4.02,1.80 -4.24,1.32 -4.33,0.79 -4.43,0.26 -4.40,-0.26 -4.36,-0.80 -4.20,-1.31 -4.04,-1.82 -3.77,-2.28 -3.49,-2.73 -3.11,-3.11 -2.73,-3.49 -2.28,-3.77 -1.82,-4.05 -1.31,-4.20 -0.80,-4.36 -0.26,-4.40 0.26,-4.43 0.79,-4.33 1.32,-4.24 1.80,-4.02 2.29,-3.80 2.71,-3.47 3.14,-3.14 3.14,-3.14 L 3.14,-3.14 Z"></path></g><g transform="translate(434.5 317.75) rotate(0 0.00004999999998744897 0.00004999999998744897)" stroke="none"><path fill="#1e1e1e" d="M 3.14,-3.14 Q 3.14,-3.14 3.55,-2.55 3.97,-1.97 4.18,-1.28 4.40,-0.59 4.38,0.11 4.36,0.83 4.11,1.51 3.86,2.18 3.41,2.74 2.96,3.30 2.36,3.69 1.75,4.07 1.05,4.25 0.36,4.42 -0.35,4.36 -1.07,4.30 -1.73,4.02 -2.39,3.74 -2.92,3.26 -3.46,2.78 -3.81,2.15 -4.16,1.53 -4.30,0.82 -4.43,0.11 -4.34,-0.59 -4.24,-1.30 -3.92,-1.94 -3.60,-2.59 -3.09,-3.09 -2.59,-3.60 -1.94,-3.92 -1.30,-4.24 -0.59,-4.34 0.12,-4.43 0.82,-4.30 1.53,-4.16 2.15,-3.81 2.78,-3.46 3.26,-2.92 3.74,-2.39 4.02,-1.73 4.31,-1.07 4.36,-0.35 4.42,0.36 4.25,1.05 4.07,1.75 3.69,2.36 3.30,2.96 2.74,3.41 2.18,3.86 1.51,4.11 0.83,4.36 0.11,4.38 -0.60,4.40 -1.28,4.18 -1.97,3.97 -2.55,3.55 -3.14,3.13 -3.14,3.14 -3.14,3.14 -3.47,2.71 -3.80,2.29 -4.02,1.80 -4.24,1.32 -4.33,0.79 -4.43,0.26 -4.40,-0.26 -4.36,-0.80 -4.20,-1.31 -4.04,-1.82 -3.77,-2.28 -3.49,-2.73 -3.11,-3.11 -2.73,-3.49 -2.28,-3.77 -1.82,-4.05 -1.31,-4.20 -0.80,-4.36 -0.26,-4.40 0.26,-4.43 0.79,-4.33 1.32,-4.24 1.80,-4.02 2.29,-3.80 2.71,-3.47 3.14,-3.14 3.14,-3.14 L 3.14,-3.14 Z"></path></g></svg>