<svg version="1.1" xmlns="http://www.w3.org/2000/svg" viewBox="0 0 495.5 340.25" width="991" height="680.5">
  <!-- svg-source:excalidraw -->
  
  <defs>
    <style class="style-fonts">
      @font-face {
        font-family: "Virgil";
        src: url("https://excalidraw.com/Virgil.woff2");
      }
      @font-face {
        font-family: "Cascadia";
        src: url("https://excalidraw.com/Cascadia.woff2");
      }
      @font-face {
        font-family: "Assistant";
        src: url("https://excalidraw.com/Assistant-Regular.woff2");
      }
    </style>
    
  </defs>
  <rect x="0" y="0" width="495.5" height="340.25" fill="#ffffff"></rect><g stroke-linecap="round" transform="translate(10 47.5) rotate(0 25 24.5)"><path d="M12.25 0 C17.99 1.37, 27.17 1.24, 37.75 0 M12.25 0 C16.6 1.01, 21.94 1, 37.75 0 M37.75 0 C47.17 -0.58, 50.69 4.4, 50 12.25 M37.75 0 C45.27 -0.43, 47.99 3.27, 50 12.25 M50 12.25 C49.85 19.03, 50.42 27.22, 50 36.75 M50 12.25 C50.04 19.33, 49.24 23.81, 50 36.75 M50 36.75 C48.43 44.75, 46.22 48.78, 37.75 49 M50 36.75 C50.54 43.32, 44.68 47.82, 37.75 49 M37.75 49 C32.94 50.49, 24.84 48.68, 12.25 49 M37.75 49 C31.25 48.2, 24.16 49.13, 12.25 49 M12.25 49 C4.13 47.21, 0.37 43.23, 0 36.75 M12.25 49 C3.84 47.37, -1.42 45.12, 0 36.75 M0 36.75 C1.26 25.37, -1.23 17.17, 0 12.25 M0 36.75 C0.36 29.39, -0.86 19.87, 0 12.25 M0 12.25 C-0.78 2.77, 5.62 -1.28, 12.25 0 M0 12.25 C0.75 2.9, 4.86 -1.25, 12.25 0" stroke="#1e1e1e" stroke-width="2" fill="none"></path></g><g transform="translate(17.933332443237305 54.5) rotate(0 17.066667556762695 17.5)"><text x="17.066667556762695" y="0" font-family="Virgil, Segoe UI Emoji" font-size="28px" fill="#1e1e1e" text-anchor="middle" style="white-space: pre;" direction="ltr" dominant-baseline="text-before-edge">99</text></g><g stroke-linecap="round" transform="translate(86 51) rotate(0 25 22.5)"><path d="M11.25 0 C20.78 -1.5, 32.02 1.91, 38.75 0 M11.25 0 C21.58 -0.46, 31.9 0.86, 38.75 0 M38.75 0 C46.58 1.17, 51.69 4.11, 50 11.25 M38.75 0 C45.94 2.29, 51.59 2.1, 50 11.25 M50 11.25 C48.78 15.52, 51.38 23.31, 50 33.75 M50 11.25 C50.07 18.06, 49.3 26.33, 50 33.75 M50 33.75 C49.58 41.68, 44.33 46.45, 38.75 45 M50 33.75 C47.86 41.98, 44.05 46.87, 38.75 45 M38.75 45 C29.14 47.07, 20.11 45.86, 11.25 45 M38.75 45 C31.18 45.85, 25.19 44.75, 11.25 45 M11.25 45 C1.79 43.27, 1.17 39.79, 0 33.75 M11.25 45 C2.74 46.35, 1.64 39.1, 0 33.75 M0 33.75 C0.46 28.39, 1.62 20.1, 0 11.25 M0 33.75 C-0.37 27, 0.9 21.18, 0 11.25 M0 11.25 C0.07 3.52, 2.93 1.14, 11.25 0 M0 11.25 C-1.5 4.41, 5.1 1.79, 11.25 0" stroke="#1e1e1e" stroke-width="2" fill="none"></path></g><g transform="translate(92.39999961853027 56) rotate(0 18.600000381469727 17.5)"><text x="18.600000381469727" y="0" font-family="Virgil, Segoe UI Emoji" font-size="28px" fill="#1e1e1e" text-anchor="middle" style="white-space: pre;" direction="ltr" dominant-baseline="text-before-edge">40</text></g><g transform="translate(320 143.5) rotate(0 6.516666889190674 17.5)"><text x="0" y="0" font-family="Virgil, Segoe UI Emoji" font-size="28px" fill="#1e1e1e" text-anchor="start" style="white-space: pre;" direction="ltr" dominant-baseline="text-before-edge">?</text></g><g transform="translate(288 183.5) rotate(0 45.83333206176758 17.5)"><text x="0" y="0" font-family="Virgil, Segoe UI Emoji" font-size="28px" fill="#1e1e1e" text-anchor="start" style="white-space: pre;" direction="ltr" dominant-baseline="text-before-edge">subset</text></g><g stroke-linecap="round" transform="translate(435.5 41.75) rotate(0 25 24.5)"><path d="M12.25 0 C20.99 -0.04, 30.44 -1.72, 37.75 0 M12.25 0 C21.41 -0.25, 31.2 -0.66, 37.75 0 M37.75 0 C45.72 1.33, 51.87 3.04, 50 12.25 M37.75 0 C47.89 -1.73, 51.87 3.09, 50 12.25 M50 12.25 C49.57 22.3, 51.49 32.86, 50 36.75 M50 12.25 C49.11 19.51, 49.71 25.75, 50 36.75 M50 36.75 C50.15 45.9, 46.77 48.16, 37.75 49 M50 36.75 C48.55 43.64, 47.83 47.56, 37.75 49 M37.75 49 C28.08 47.38, 18.04 48.23, 12.25 49 M37.75 49 C28.68 48.39, 21.72 49.91, 12.25 49 M12.25 49 C4.32 49.67, 1.49 46.05, 0 36.75 M12.25 49 C4.76 48.03, -2.1 45.53, 0 36.75 M0 36.75 C-0.3 27.74, 1.42 16.13, 0 12.25 M0 36.75 C0.14 29.1, 0.04 19.46, 0 12.25 M0 12.25 C1.08 5.55, 4.2 1.83, 12.25 0 M0 12.25 C0.02 4.18, 3.35 -1.1, 12.25 0" stroke="#1e1e1e" stroke-width="2" fill="none"></path></g><g transform="translate(441.8999996185303 48.75) rotate(0 18.600000381469727 17.5)"><text x="18.600000381469727" y="0" font-family="Virgil, Segoe UI Emoji" font-size="28px" fill="#1e1e1e" text-anchor="middle" style="white-space: pre;" direction="ltr" dominant-baseline="text-before-edge">40</text></g><g stroke-linecap="round" transform="translate(434.5 89.25) rotate(0 25 24.5)"><path d="M12.25 0 C21.12 -1.61, 31.08 0.68, 37.75 0 M12.25 0 C22.08 -0.45, 31.28 0.68, 37.75 0 M37.75 0 C47.79 -1.05, 51.71 2.58, 50 12.25 M37.75 0 C47.78 -0.99, 52.14 5.24, 50 12.25 M50 12.25 C51.3 22.61, 49.48 29.48, 50 36.75 M50 12.25 C49.61 20.65, 49.88 29.7, 50 36.75 M50 36.75 C50.85 44.08, 44.66 47.89, 37.75 49 M50 36.75 C51.92 43.47, 47.11 50.93, 37.75 49 M37.75 49 C30.27 48.24, 26.7 50.31, 12.25 49 M37.75 49 C28.73 49.54, 19.19 49.14, 12.25 49 M12.25 49 C5.57 50.13, 0.59 44.08, 0 36.75 M12.25 49 C1.99 49.62, 2.27 45.9, 0 36.75 M0 36.75 C1.55 28.92, 0.9 24.25, 0 12.25 M0 36.75 C0.09 29.22, 0.48 23.29, 0 12.25 M0 12.25 C0.11 5.91, 4.1 0.09, 12.25 0 M0 12.25 C-0.73 2.98, 5.7 -1.44, 12.25 0" stroke="#1e1e1e" stroke-width="2" fill="none"></path></g><g transform="translate(450.8500003814697 96.25) rotate(0 8.649999618530273 17.5)"><text x="8.649999618530273" y="0" font-family="Virgil, Segoe UI Emoji" font-size="28px" fill="#1e1e1e" text-anchor="middle" style="white-space: pre;" direction="ltr" dominant-baseline="text-before-edge">5</text></g><g stroke-linecap="round" transform="translate(434.5 136.25) rotate(0 25 24.5)"><path d="M12.25 0 C21.32 0.89, 29.24 -0.15, 37.75 0 M12.25 0 C19.65 0.79, 28.18 -0.4, 37.75 0 M37.75 0 C47.63 -1.51, 51.62 3.22, 50 12.25 M37.75 0 C48.06 1.16, 51.57 3.45, 50 12.25 M50 12.25 C49.71 19.29, 51.09 26.39, 50 36.75 M50 12.25 C50.03 21.24, 50.38 28.83, 50 36.75 M50 36.75 C48.74 43.8, 47.58 47.75, 37.75 49 M50 36.75 C51.2 46.85, 44.18 48.21, 37.75 49 M37.75 49 C32.33 50.42, 27.42 47.13, 12.25 49 M37.75 49 C32.2 49.52, 27.15 49.75, 12.25 49 M12.25 49 C4.67 48.16, -1.82 45.45, 0 36.75 M12.25 49 C6.35 49.98, -0.57 44.69, 0 36.75 M0 36.75 C0.69 29.45, -0.39 20.71, 0 12.25 M0 36.75 C0.5 28.23, 0.02 19.16, 0 12.25 M0 12.25 C0.02 4.17, 3.45 -0.96, 12.25 0 M0 12.25 C1.61 2.64, 4.92 0.9, 12.25 0" stroke="#1e1e1e" stroke-width="2" fill="none"></path></g><g transform="translate(442.4333324432373 143.25) rotate(0 17.066667556762695 17.5)"><text x="17.066667556762695" y="0" font-family="Virgil, Segoe UI Emoji" font-size="28px" fill="#1e1e1e" text-anchor="middle" style="white-space: pre;" direction="ltr" dominant-baseline="text-before-edge">99</text></g><g stroke-linecap="round" transform="translate(434.5 186.75) rotate(0 25 24.5)"><path d="M12.25 0 C18.47 -0.26, 23.7 0.84, 37.75 0 M12.25 0 C18.48 1, 22.64 0.07, 37.75 0 M37.75 0 C44.18 1.27, 51.89 3.41, 50 12.25 M37.75 0 C47.71 -2.28, 52.22 4.96, 50 12.25 M50 12.25 C50.52 20.22, 49.62 29.76, 50 36.75 M50 12.25 C49.27 21.81, 50.55 30.04, 50 36.75 M50 36.75 C51.82 44.6, 44.58 47.18, 37.75 49 M50 36.75 C50.18 44.06, 48.18 48.2, 37.75 49 M37.75 49 C27.4 48.77, 16.94 47.88, 12.25 49 M37.75 49 C28.06 48.3, 18.41 49.77, 12.25 49 M12.25 49 C5 47.53, -0.81 45.62, 0 36.75 M12.25 49 C6.18 47.86, 0.75 45.57, 0 36.75 M0 36.75 C-1.1 29.1, 1.52 25.96, 0 12.25 M0 36.75 C-0.05 26.71, 1.01 17.46, 0 12.25 M0 12.25 C-0.25 5.05, 5.05 -0.96, 12.25 0 M0 12.25 C0.42 4.39, 5.48 -1.89, 12.25 0" stroke="#1e1e1e" stroke-width="2" fill="none"></path></g><g transform="translate(446.7333335876465 193.75) rotate(0 12.766666412353516 17.5)"><text x="12.766666412353516" y="0" font-family="Virgil, Segoe UI Emoji" font-size="28px" fill="#1e1e1e" text-anchor="middle" style="white-space: pre;" direction="ltr" dominant-baseline="text-before-edge">16</text></g><g stroke-linecap="round" transform="translate(433.5 234.25) rotate(0 25 24.5)"><path d="M12.25 0 C19.19 0.92, 26.85 -0.89, 37.75 0 M12.25 0 C17.72 -0.34, 22.69 0.43, 37.75 0 M37.75 0 C47.81 -0.68, 51.56 2.1, 50 12.25 M37.75 0 C48.14 0.88, 52.24 4.76, 50 12.25 M50 12.25 C49.61 19.5, 51.69 30.58, 50 36.75 M50 12.25 C50.39 20.3, 50.73 30.03, 50 36.75 M50 36.75 C48.66 43.09, 46.07 48.26, 37.75 49 M50 36.75 C52.26 44.12, 47.77 51, 37.75 49 M37.75 49 C29.78 47.97, 26.55 49.27, 12.25 49 M37.75 49 C30.84 49.57, 22.55 48.08, 12.25 49 M12.25 49 C3.28 49.71, 1.82 43.93, 0 36.75 M12.25 49 C4.84 49.66, -1.17 43.79, 0 36.75 M0 36.75 C1.55 33.04, 2.01 25.41, 0 12.25 M0 36.75 C0.92 30.76, -0.08 25.31, 0 12.25 M0 12.25 C0.96 3.12, 4.45 0.26, 12.25 0 M0 12.25 C1.4 2.2, 6.08 -1.18, 12.25 0" stroke="#1e1e1e" stroke-width="2" fill="none"></path></g><g transform="translate(438.8999996185303 241.25) rotate(0 19.600000381469727 17.5)"><text x="19.600000381469727" y="0" font-family="Virgil, Segoe UI Emoji" font-size="28px" fill="#1e1e1e" text-anchor="middle" style="white-space: pre;" direction="ltr" dominant-baseline="text-before-edge">20</text></g><g stroke-linecap="round" transform="translate(433.5 281.25) rotate(0 25 24.5)"><path d="M12.25 0 C17.79 -1.03, 25.46 1.76, 37.75 0 M12.25 0 C21.08 0.67, 32.59 -0.3, 37.75 0 M37.75 0 C47.48 -1.98, 51.93 4.85, 50 12.25 M37.75 0 C48.15 0.68, 51.74 4.6, 50 12.25 M50 12.25 C51.58 17.35, 51.27 21.2, 50 36.75 M50 12.25 C51.05 19.94, 49.47 27.03, 50 36.75 M50 36.75 C50.15 44.18, 47.88 48.31, 37.75 49 M50 36.75 C51.85 46.92, 44.94 48.26, 37.75 49 M37.75 49 C32.2 49.16, 22.9 49.75, 12.25 49 M37.75 49 C32.39 48.46, 25.72 49.55, 12.25 49 M12.25 49 C5.9 48.01, 0.65 45.49, 0 36.75 M12.25 49 C2.91 47.87, -2.08 43.51, 0 36.75 M0 36.75 C1.69 30.22, -1.3 25.47, 0 12.25 M0 36.75 C-0.34 30.88, 0.27 23.56, 0 12.25 M0 12.25 C0.37 4.35, 5.3 -1.64, 12.25 0 M0 12.25 C2 2.9, 3.9 2.28, 12.25 0" stroke="#1e1e1e" stroke-width="2" fill="none"></path></g><g transform="translate(440.5666675567627 288.25) rotate(0 17.933332443237305 17.5)"><text x="17.933332443237305" y="0" font-family="Virgil, Segoe UI Emoji" font-size="28px" fill="#1e1e1e" text-anchor="middle" style="white-space: pre;" direction="ltr" dominant-baseline="text-before-edge">46</text></g><g transform="translate(22.25 13.5) rotate(0 12.316666603088379 17.5)"><text x="0" y="0" font-family="Virgil, Segoe UI Emoji" font-size="28px" fill="#1e1e1e" text-anchor="start" style="white-space: pre;" direction="ltr" dominant-baseline="text-before-edge">S1</text></g><g transform="translate(450.25 11.5) rotate(0 11.25 17.5)"><text x="0" y="0" font-family="Virgil, Segoe UI Emoji" font-size="28px" fill="#1e1e1e" text-anchor="start" style="white-space: pre;" direction="ltr" dominant-baseline="text-before-edge">T</text></g><g stroke-linecap="round" transform="translate(10.25 97) rotate(0 25 24.5)"><path d="M12.25 0 C16.46 1.66, 24.76 -1.97, 37.75 0 M12.25 0 C18.37 -0.2, 22.97 -0.81, 37.75 0 M37.75 0 C43.94 0.74, 51.21 3.57, 50 12.25 M37.75 0 C47.44 0.3, 50.61 3.23, 50 12.25 M50 12.25 C48.49 16.33, 50.54 24.17, 50 36.75 M50 12.25 C50.53 20, 50.77 27.8, 50 36.75 M50 36.75 C48.54 43.9, 46.51 47.99, 37.75 49 M50 36.75 C49.74 43.08, 45.01 48.98, 37.75 49 M37.75 49 C28.85 49.02, 21.38 48.41, 12.25 49 M37.75 49 C31.62 49.66, 25.74 48.84, 12.25 49 M12.25 49 C6.04 48.14, -1.13 43.89, 0 36.75 M12.25 49 C4.9 48.83, 1.54 42.97, 0 36.75 M0 36.75 C1.17 28.11, -1.97 20.55, 0 12.25 M0 36.75 C-0.69 28.46, 0.11 20.2, 0 12.25 M0 12.25 C-0.31 2.51, 4.52 0.98, 12.25 0 M0 12.25 C-0.73 3.59, 5.19 1.92, 12.25 0" stroke="#1e1e1e" stroke-width="2" fill="none"></path></g><g transform="translate(18.183332443237305 104) rotate(0 17.066667556762695 17.5)"><text x="17.066667556762695" y="0" font-family="Virgil, Segoe UI Emoji" font-size="28px" fill="#1e1e1e" text-anchor="middle" style="white-space: pre;" direction="ltr" dominant-baseline="text-before-edge">99</text></g><g transform="translate(97.93333339691162 15) rotate(0 18.483333587646484 17.5)"><text x="0" y="0" font-family="Virgil, Segoe UI Emoji" font-size="28px" fill="#1e1e1e" text-anchor="start" style="white-space: pre;" direction="ltr" dominant-baseline="text-before-edge">S2</text></g><g stroke-linecap="round" transform="translate(86.25 97) rotate(0 25 22.5)"><path d="M11.25 0 C19.18 -1.84, 28.22 0.13, 38.75 0 M11.25 0 C20.24 0.81, 27.88 -0.9, 38.75 0 M38.75 0 C44.64 -0.94, 51.19 5.08, 50 11.25 M38.75 0 C46.77 2.21, 49.88 2.33, 50 11.25 M50 11.25 C51.7 18.5, 48.57 23.15, 50 33.75 M50 11.25 C50.26 18.55, 49.75 27.05, 50 33.75 M50 33.75 C48.48 39.8, 46.99 44.13, 38.75 45 M50 33.75 C51.66 39.81, 46.92 44.49, 38.75 45 M38.75 45 C27.12 46.48, 20.23 43.81, 11.25 45 M38.75 45 C31.36 45.03, 26.06 44.71, 11.25 45 M11.25 45 C3.79 45.73, 1.44 42.8, 0 33.75 M11.25 45 C5.21 43.77, -0.46 41.82, 0 33.75 M0 33.75 C1.05 26.6, -0.01 19.14, 0 11.25 M0 33.75 C-0.05 28.01, 0.59 23.65, 0 11.25 M0 11.25 C-1.04 4.44, 4.69 0.2, 11.25 0 M0 11.25 C-0.84 5.7, 3.67 1.65, 11.25 0" stroke="#1e1e1e" stroke-width="2" fill="none"></path></g><g transform="translate(101.61666679382324 102) rotate(0 9.633333206176758 17.5)"><text x="9.633333206176758" y="0" font-family="Virgil, Segoe UI Emoji" font-size="28px" fill="#1e1e1e" text-anchor="middle" style="white-space: pre;" direction="ltr" dominant-baseline="text-before-edge">0</text></g><g stroke-linecap="round" transform="translate(88.25 143) rotate(0 25 22.5)"><path d="M11.25 0 C18.08 1.02, 22.79 -2.02, 38.75 0 M11.25 0 C16.2 -0.77, 23.13 0.05, 38.75 0 M38.75 0 C46.78 0.1, 50.89 4.71, 50 11.25 M38.75 0 C46.78 0.8, 50.51 2.85, 50 11.25 M50 11.25 C51.23 16.45, 48.81 20.27, 50 33.75 M50 11.25 C49.43 20.41, 49.54 27.91, 50 33.75 M50 33.75 C50.87 39.36, 47.82 44.46, 38.75 45 M50 33.75 C50.21 41.13, 48.24 45.52, 38.75 45 M38.75 45 C26.89 43.72, 19.43 45.41, 11.25 45 M38.75 45 C28.7 44.78, 16.89 45.58, 11.25 45 M11.25 45 C4.35 44.56, -0.36 42.91, 0 33.75 M11.25 45 C5.26 43.47, 1.93 41.94, 0 33.75 M0 33.75 C0.7 29.72, 1.43 23.4, 0 11.25 M0 33.75 C-0.9 27.94, 0.38 22.58, 0 11.25 M0 11.25 C-0.92 3.79, 1.8 -1.23, 11.25 0 M0 11.25 C-0.6 3.54, 3.3 -0.06, 11.25 0" stroke="#1e1e1e" stroke-width="2" fill="none"></path></g><g transform="translate(103.61666679382324 148) rotate(0 9.633333206176758 17.5)"><text x="9.633333206176758" y="0" font-family="Virgil, Segoe UI Emoji" font-size="28px" fill="#1e1e1e" text-anchor="middle" style="white-space: pre;" direction="ltr" dominant-baseline="text-before-edge">0</text></g><g stroke-linecap="round" transform="translate(209.25 96) rotate(0 25 24.5)"><path d="M12.25 0 C20.61 -0.21, 31.4 -1.02, 37.75 0 M12.25 0 C18.1 0.3, 25.45 0.45, 37.75 0 M37.75 0 C46.49 -1.62, 48.98 5.05, 50 12.25 M37.75 0 C47.12 0.57, 48.39 3.68, 50 12.25 M50 12.25 C49.06 18.42, 49.53 28.15, 50 36.75 M50 12.25 C49.61 17.29, 49.09 22.67, 50 36.75 M50 36.75 C49.87 44.31, 46.86 49.19, 37.75 49 M50 36.75 C47.89 45.84, 47.96 48.41, 37.75 49 M37.75 49 C28.62 48.14, 15.69 49.39, 12.25 49 M37.75 49 C29.79 49.82, 20.56 48.55, 12.25 49 M12.25 49 C5.8 48.98, -1.86 45.62, 0 36.75 M12.25 49 C3.43 49.67, -0.7 44.04, 0 36.75 M0 36.75 C-0.22 26.26, -0.14 17.01, 0 12.25 M0 36.75 C0.32 26.56, 0.88 17.96, 0 12.25 M0 12.25 C1.3 2.72, 3.49 -0.4, 12.25 0 M0 12.25 C-1.86 5.7, 2.67 1.05, 12.25 0" stroke="#1e1e1e" stroke-width="2" fill="none"></path></g><g transform="translate(226.7166666984558 103) rotate(0 7.5333333015441895 17.5)"><text x="7.5333333015441895" y="0" font-family="Virgil, Segoe UI Emoji" font-size="28px" fill="#1e1e1e" text-anchor="middle" style="white-space: pre;" direction="ltr" dominant-baseline="text-before-edge">7</text></g><g stroke-linecap="round" transform="translate(208.25 46) rotate(0 25 24.5)"><path d="M12.25 0 C20.87 0.1, 32.02 1.49, 37.75 0 M12.25 0 C20.19 -0.33, 27.08 0.28, 37.75 0 M37.75 0 C46.54 1.72, 48.93 2.49, 50 12.25 M37.75 0 C44.29 1.29, 50.91 3.51, 50 12.25 M50 12.25 C51.28 19.62, 47.92 24.4, 50 36.75 M50 12.25 C50.33 18.49, 50.45 27.09, 50 36.75 M50 36.75 C48.4 45.87, 44.35 48.47, 37.75 49 M50 36.75 C50.52 46.2, 46.84 47.74, 37.75 49 M37.75 49 C29.28 50.53, 25.76 48.73, 12.25 49 M37.75 49 C29.1 48.36, 21.99 48.21, 12.25 49 M12.25 49 C3.36 48.25, 0.11 46.73, 0 36.75 M12.25 49 C5.46 48.79, 2.11 43.59, 0 36.75 M0 36.75 C-0.45 33.23, -0.03 27.53, 0 12.25 M0 36.75 C0.67 32.55, -0.35 26.73, 0 12.25 M0 12.25 C-0.22 5.72, 2.19 1.12, 12.25 0 M0 12.25 C0.6 2.51, 3.05 -0.57, 12.25 0" stroke="#1e1e1e" stroke-width="2" fill="none"></path></g><g transform="translate(213.64999961853027 53) rotate(0 19.600000381469727 17.5)"><text x="19.600000381469727" y="0" font-family="Virgil, Segoe UI Emoji" font-size="28px" fill="#1e1e1e" text-anchor="middle" style="white-space: pre;" direction="ltr" dominant-baseline="text-before-edge">20</text></g><g stroke-linecap="round" transform="translate(208.25 145) rotate(0 25 24.5)"><path d="M12.25 0 C21.17 0.61, 33.57 0.24, 37.75 0 M12.25 0 C20.85 -0.24, 31.38 0.22, 37.75 0 M37.75 0 C47.61 -0.35, 50.1 6.08, 50 12.25 M37.75 0 C44.54 0.94, 47.81 5.52, 50 12.25 M50 12.25 C49.5 19.14, 48.84 26.05, 50 36.75 M50 12.25 C49.96 20.67, 49.9 30.45, 50 36.75 M50 36.75 C49.84 45.53, 44.99 49.31, 37.75 49 M50 36.75 C47.81 43.39, 45.86 46.76, 37.75 49 M37.75 49 C27.64 48.74, 19.04 48.99, 12.25 49 M37.75 49 C29.66 49.84, 20.97 49.35, 12.25 49 M12.25 49 C2.65 47.63, 0.82 44.26, 0 36.75 M12.25 49 C2.56 48.13, -0.98 44.57, 0 36.75 M0 36.75 C0.09 30.05, -1.64 21.52, 0 12.25 M0 36.75 C0.25 28.05, -0.85 21.34, 0 12.25 M0 12.25 C0.41 4.76, 2.96 1.27, 12.25 0 M0 12.25 C0.21 6.18, 2.32 -1.67, 12.25 0" stroke="#1e1e1e" stroke-width="2" fill="none"></path></g><g transform="translate(213.64999961853027 152) rotate(0 19.600000381469727 17.5)"><text x="19.600000381469727" y="0" font-family="Virgil, Segoe UI Emoji" font-size="28px" fill="#1e1e1e" text-anchor="middle" style="white-space: pre;" direction="ltr" dominant-baseline="text-before-edge">20</text></g><g stroke-linecap="round" transform="translate(211.75 194.5) rotate(0 25 24.5)"><path d="M12.25 0 C17.06 -0.11, 22.97 -1.61, 37.75 0 M12.25 0 C21.71 0.59, 31.25 0.42, 37.75 0 M37.75 0 C47.82 -0.88, 48.39 4.16, 50 12.25 M37.75 0 C46.95 -1.95, 51.17 6.26, 50 12.25 M50 12.25 C51.11 16.14, 50.72 24.35, 50 36.75 M50 12.25 C49.3 20.31, 50.51 29.17, 50 36.75 M50 36.75 C49.63 46.67, 47.17 48.57, 37.75 49 M50 36.75 C49.32 42.81, 46.79 49.08, 37.75 49 M37.75 49 C29.74 49.17, 20.39 49.27, 12.25 49 M37.75 49 C28.51 48.31, 17.74 48.54, 12.25 49 M12.25 49 C2.85 47.35, -0.21 45.05, 0 36.75 M12.25 49 C2.71 50.25, -0.72 46.52, 0 36.75 M0 36.75 C-1.84 25.93, 0.23 16.62, 0 12.25 M0 36.75 C-0.37 28.62, -0.74 20.97, 0 12.25 M0 12.25 C1.32 4.54, 2.17 -1.48, 12.25 0 M0 12.25 C-0.93 1.93, 5.11 -2, 12.25 0" stroke="#1e1e1e" stroke-width="2" fill="none"></path></g><g transform="translate(223.98333358764648 201.5) rotate(0 12.766666412353516 17.5)"><text x="12.766666412353516" y="0" font-family="Virgil, Segoe UI Emoji" font-size="28px" fill="#1e1e1e" text-anchor="middle" style="white-space: pre;" direction="ltr" dominant-baseline="text-before-edge">16</text></g><g stroke-linecap="round" transform="translate(210.75 243.5) rotate(0 25 24.5)"><path d="M12.25 0 C20.95 2.09, 29.11 0.87, 37.75 0 M12.25 0 C22.93 -0.6, 30.91 -0.13, 37.75 0 M37.75 0 C46.82 -1.7, 51.02 5.98, 50 12.25 M37.75 0 C43.98 -0.55, 50.78 5.43, 50 12.25 M50 12.25 C51.07 18.01, 49.82 22.11, 50 36.75 M50 12.25 C49.94 19.3, 50.75 24.39, 50 36.75 M50 36.75 C49.4 43.09, 46.67 49.07, 37.75 49 M50 36.75 C51.62 47.19, 47.29 50.65, 37.75 49 M37.75 49 C31.68 47.45, 24.27 49.91, 12.25 49 M37.75 49 C31.84 48, 27.06 48.89, 12.25 49 M12.25 49 C2.89 50.09, -0.62 46.31, 0 36.75 M12.25 49 C6.3 47.77, 0.08 42.65, 0 36.75 M0 36.75 C0.33 31.06, -1.56 24.11, 0 12.25 M0 36.75 C0.83 30.5, -0.78 23.06, 0 12.25 M0 12.25 C-0.81 2.21, 4.98 -1.74, 12.25 0 M0 12.25 C2.04 5.47, 5.24 -0.88, 12.25 0" stroke="#1e1e1e" stroke-width="2" fill="none"></path></g><g transform="translate(216.14999961853027 250.5) rotate(0 19.600000381469727 17.5)"><text x="19.600000381469727" y="0" font-family="Virgil, Segoe UI Emoji" font-size="28px" fill="#1e1e1e" text-anchor="middle" style="white-space: pre;" direction="ltr" dominant-baseline="text-before-edge">20</text></g><g transform="translate(215.76666641235352 10) rotate(0 15.050000190734863 17.5)"><text x="0" y="0" font-family="Virgil, Segoe UI Emoji" font-size="28px" fill="#1e1e1e" text-anchor="start" style="white-space: pre;" direction="ltr" dominant-baseline="text-before-edge">Sn</text></g><g transform="translate(165.25 149.5) rotate(0 11.5 17.5)"><text x="0" y="0" font-family="Virgil, Segoe UI Emoji" font-size="28px" fill="#1e1e1e" text-anchor="start" style="white-space: pre;" direction="ltr" dominant-baseline="text-before-edge">...</text></g></svg>