<svg width="116" height="32" viewBox="0 0 116 32" fill="none" xmlns="http://www.w3.org/2000/svg">
<path fill-rule="evenodd" clip-rule="evenodd" d="M1.12526 3.5953C0 5.4059 0 7.8706 0 12.8V19.2C0 24.1294 0 26.5941 1.12526 28.4047C1.75491 29.4178 2.61879 30.2696 3.64627 30.8905C4.44686 31.3742 5.37354 31.647 6.5785 31.8009C6.58446 31.8017 6.58981 31.7971 6.58981 31.7912L6.60478 8.46665C6.60512 7.93804 6.98731 7.48465 7.51431 7.38768L9.55047 7.01299C10.0628 6.91871 10.536 7.30653 10.5357 7.82043L10.5323 13.0317C10.5695 13.394 10.6496 13.7484 10.7822 14.0888C11.0225 14.7054 11.3988 15.263 11.8895 15.7298C12.3802 16.1967 12.9758 16.5636 13.6422 16.8096C14.3087 17.0557 15.0329 17.176 15.7736 17.1638C16.5143 17.1516 17.2569 17.007 17.9591 16.7384C18.6613 16.4698 19.3093 16.0824 19.8661 15.5983C20.4229 15.1141 20.8775 14.5428 21.2041 13.9169C21.4979 13.3539 21.5976 12.7122 21.6487 12.0995L21.6467 7.82195C21.6464 7.30602 22.1198 6.91566 22.6348 7.00719L24.7354 7.38057C25.2512 7.47224 25.6264 7.91471 25.6267 8.43143L25.6339 23.5459C25.6341 23.9762 25.2126 24.2843 24.7951 24.1591L22.5251 23.4782C22.0076 23.323 21.6538 22.8525 21.6536 22.3192L21.6519 18.8888C21.6519 18.8808 21.6428 18.8762 21.6362 18.8808C20.9093 19.3851 20.1164 19.8038 19.2787 20.1242C18.0701 20.5866 16.7919 20.8353 15.5171 20.8564C14.2422 20.8774 12.9957 20.6703 11.8487 20.2468C11.393 20.0785 10.9565 19.8775 10.543 19.6458C10.5364 19.6421 10.5281 19.6468 10.5281 19.6544L10.5202 31.9838C10.5202 31.9892 10.5246 31.9936 10.53 31.9937C11.2743 32 12.088 32 12.9815 32H19.4722C24.4715 32 26.9711 32 28.8074 30.8905C29.8349 30.2696 30.6987 29.4178 31.3284 28.4047C32.4536 26.5941 32.4536 24.1294 32.4536 19.2V12.8C32.4536 7.8706 32.4536 5.4059 31.3284 3.5953C30.6987 2.58218 29.8349 1.73038 28.8074 1.10953C26.9711 0 24.4715 0 19.4722 0H12.9815C7.98218 0 5.48253 0 3.64627 1.10953C2.61879 1.73038 1.75491 2.58218 1.12526 3.5953Z" fill="black"/>
<path d="M40.9111 25.3515V6.27454L45.9478 6.30125L50.8774 21.504H50.9042L55.7533 6.27454H60.7632V25.3515H57.6555V10.0151H57.5751L52.5652 25.3515H49.136L44.0993 10.0151H44.0189V25.3515H40.9111Z" fill="black"/>
<path d="M69.4653 25.7255C65.3663 25.7255 62.3121 22.7865 62.3121 18.4581C62.3121 14.1297 65.3663 11.164 69.4653 11.164C73.5375 11.164 76.5917 14.1297 76.5917 18.4581C76.5917 22.7865 73.5375 25.7255 69.4653 25.7255ZM65.3395 18.4581C65.3395 21.0765 66.9737 23.214 69.4653 23.214C71.9301 23.214 73.5643 21.0765 73.5643 18.4581C73.5643 15.813 71.9301 13.6755 69.4653 13.6755C66.9737 13.6755 65.3395 15.813 65.3395 18.4581Z" fill="black"/>
<path d="M84.3389 13.9694C83.5351 13.9961 82.8922 13.9694 82.0349 13.9694H77.2393V11.5381H88.0896V13.6221L80.4274 22.9201C81.2043 22.9201 81.9277 22.8934 82.7582 22.8934H88.3843V25.3515H76.757V23.1606L84.3389 13.9694Z" fill="black"/>
<path d="M89.7774 15.7596C90.1257 13.5687 91.9743 11.1373 95.5911 11.1373C100.172 11.1373 101.432 13.8893 101.432 16.855V22.172C101.432 23.214 101.485 24.5499 101.646 25.3515H98.4845C98.4309 24.8171 98.4041 24.2827 98.4041 23.7216V23.0804H98.3773C97.9219 24.2026 96.7431 25.6988 93.9836 25.6988C90.8491 25.6988 89.1077 23.7751 89.1077 21.5842C89.1077 17.7634 93.7961 17.4428 95.8054 17.1222C97.5736 16.855 98.3773 16.5077 98.3773 15.3321C98.3773 14.2366 97.3325 13.5419 95.6447 13.5419C94.1444 13.5419 93.0459 14.3969 92.7245 15.7596H89.7774ZM92.1886 21.4773C92.1886 22.5727 93.1263 23.3743 94.7606 23.3743C96.6091 23.3743 98.4309 22.2254 98.4309 18.939V17.4963C98.1362 18.2711 97.4129 18.939 95.0553 19.3933C93.1531 19.7406 92.1886 20.3284 92.1886 21.4773Z" fill="black"/>
<path d="M106.65 25.3515H103.542V6.27454H106.65V17.2558L112.115 11.5381H115.839L110.052 17.4428L116 25.3515H112.276L107.963 19.5269L106.65 20.7826V25.3515Z" fill="black"/>
</svg>
