<svg version="1.1" xmlns="http://www.w3.org/2000/svg" viewBox="0 0 373 344.75" width="746" height="689.5">
  <!-- svg-source:excalidraw -->
  
  <defs>
    <style class="style-fonts">
      @font-face {
        font-family: "Virgil";
        src: url("https://excalidraw.com/Virgil.woff2");
      }
      @font-face {
        font-family: "Cascadia";
        src: url("https://excalidraw.com/Cascadia.woff2");
      }
      @font-face {
        font-family: "Assistant";
        src: url("https://excalidraw.com/Assistant-Regular.woff2");
      }
    </style>
    
  </defs>
  <rect x="0" y="0" width="373" height="344.75" fill="#ffffff"></rect><g stroke-linecap="round" transform="translate(13.5 48) rotate(0 25 24.5)"><path d="M12.25 0 C17.99 1.37, 27.17 1.24, 37.75 0 M12.25 0 C16.6 1.01, 21.94 1, 37.75 0 M37.75 0 C47.17 -0.58, 50.69 4.4, 50 12.25 M37.75 0 C45.27 -0.43, 47.99 3.27, 50 12.25 M50 12.25 C49.85 19.03, 50.42 27.22, 50 36.75 M50 12.25 C50.04 19.33, 49.24 23.81, 50 36.75 M50 36.75 C48.43 44.75, 46.22 48.78, 37.75 49 M50 36.75 C50.54 43.32, 44.68 47.82, 37.75 49 M37.75 49 C32.94 50.49, 24.84 48.68, 12.25 49 M37.75 49 C31.25 48.2, 24.16 49.13, 12.25 49 M12.25 49 C4.13 47.21, 0.37 43.23, 0 36.75 M12.25 49 C3.84 47.37, -1.42 45.12, 0 36.75 M0 36.75 C1.26 25.37, -1.23 17.17, 0 12.25 M0 36.75 C0.36 29.39, -0.86 19.87, 0 12.25 M0 12.25 C-0.78 2.77, 5.62 -1.28, 12.25 0 M0 12.25 C0.75 2.9, 4.86 -1.25, 12.25 0" stroke="#1e1e1e" stroke-width="2" fill="none"></path></g><g transform="translate(21.433332443237305 55) rotate(0 17.066667556762695 17.5)"><text x="17.066667556762695" y="0" font-family="Virgil, Segoe UI Emoji" font-size="28px" fill="#1e1e1e" text-anchor="middle" style="white-space: pre;" direction="ltr" dominant-baseline="text-before-edge">99</text></g><g stroke-linecap="round" transform="translate(12.5 95.5) rotate(0 25 22.5)"><path d="M11.25 0 C20.78 -1.5, 32.02 1.91, 38.75 0 M11.25 0 C21.58 -0.46, 31.9 0.86, 38.75 0 M38.75 0 C46.58 1.17, 51.69 4.11, 50 11.25 M38.75 0 C45.94 2.29, 51.59 2.1, 50 11.25 M50 11.25 C48.78 15.52, 51.38 23.31, 50 33.75 M50 11.25 C50.07 18.06, 49.3 26.33, 50 33.75 M50 33.75 C49.58 41.68, 44.33 46.45, 38.75 45 M50 33.75 C47.86 41.98, 44.05 46.87, 38.75 45 M38.75 45 C29.14 47.07, 20.11 45.86, 11.25 45 M38.75 45 C31.18 45.85, 25.19 44.75, 11.25 45 M11.25 45 C1.79 43.27, 1.17 39.79, 0 33.75 M11.25 45 C2.74 46.35, 1.64 39.1, 0 33.75 M0 33.75 C0.46 28.39, 1.62 20.1, 0 11.25 M0 33.75 C-0.37 27, 0.9 21.18, 0 11.25 M0 11.25 C0.07 3.52, 2.93 1.14, 11.25 0 M0 11.25 C-1.5 4.41, 5.1 1.79, 11.25 0" stroke="#1e1e1e" stroke-width="2" fill="none"></path></g><g transform="translate(18.899999618530273 100.5) rotate(0 18.600000381469727 17.5)"><text x="18.600000381469727" y="0" font-family="Virgil, Segoe UI Emoji" font-size="28px" fill="#1e1e1e" text-anchor="middle" style="white-space: pre;" direction="ltr" dominant-baseline="text-before-edge">40</text></g><g stroke-linecap="round" transform="translate(12.5 142.5) rotate(0 25 24.5)"><path d="M12.25 0 C20.5 -0.15, 25.24 -1.04, 37.75 0 M12.25 0 C21.94 0.71, 29.66 -0.6, 37.75 0 M37.75 0 C45.63 -0.37, 48.33 5.3, 50 12.25 M37.75 0 C45.5 0.86, 49.43 5.63, 50 12.25 M50 12.25 C49.06 19.56, 51.04 27.32, 50 36.75 M50 12.25 C48.97 21.88, 49.57 29.32, 50 36.75 M50 36.75 C51.39 44.61, 46.32 47.44, 37.75 49 M50 36.75 C50.54 43.26, 47.62 48.65, 37.75 49 M37.75 49 C28.18 47.81, 17.58 49.05, 12.25 49 M37.75 49 C31.92 48.7, 26.63 48.08, 12.25 49 M12.25 49 C2.76 50.72, 0.24 44.37, 0 36.75 M12.25 49 C4.62 50.82, -1.04 46.59, 0 36.75 M0 36.75 C-1.95 31.62, 1.85 22.56, 0 12.25 M0 36.75 C0.07 28.8, 0.06 19.11, 0 12.25 M0 12.25 C-0.69 3.19, 5.14 0.44, 12.25 0 M0 12.25 C-1.96 3.89, 4.51 -0.53, 12.25 0" stroke="#1e1e1e" stroke-width="2" fill="none"></path></g><g transform="translate(19.566667556762695 149.5) rotate(0 17.933332443237305 17.5)"><text x="17.933332443237305" y="0" font-family="Virgil, Segoe UI Emoji" font-size="28px" fill="#1e1e1e" text-anchor="middle" style="white-space: pre;" direction="ltr" dominant-baseline="text-before-edge">46</text></g><g transform="translate(141.5 146) rotate(0 6.516666889190674 17.5)"><text x="0" y="0" font-family="Virgil, Segoe UI Emoji" font-size="28px" fill="#1e1e1e" text-anchor="start" style="white-space: pre;" direction="ltr" dominant-baseline="text-before-edge">?</text></g><g transform="translate(109.5 186) rotate(0 79.9000015258789 17.5)"><text x="0" y="0" font-family="Virgil, Segoe UI Emoji" font-size="28px" fill="#1e1e1e" text-anchor="start" style="white-space: pre;" direction="ltr" dominant-baseline="text-before-edge">permutation</text></g><g stroke-linecap="round" transform="translate(313 44.25) rotate(0 25 24.5)"><path d="M12.25 0 C20.99 -0.04, 30.44 -1.72, 37.75 0 M12.25 0 C21.41 -0.25, 31.2 -0.66, 37.75 0 M37.75 0 C45.72 1.33, 51.87 3.04, 50 12.25 M37.75 0 C47.89 -1.73, 51.87 3.09, 50 12.25 M50 12.25 C49.57 22.3, 51.49 32.86, 50 36.75 M50 12.25 C49.11 19.51, 49.71 25.75, 50 36.75 M50 36.75 C50.15 45.9, 46.77 48.16, 37.75 49 M50 36.75 C48.55 43.64, 47.83 47.56, 37.75 49 M37.75 49 C28.08 47.38, 18.04 48.23, 12.25 49 M37.75 49 C28.68 48.39, 21.72 49.91, 12.25 49 M12.25 49 C4.32 49.67, 1.49 46.05, 0 36.75 M12.25 49 C4.76 48.03, -2.1 45.53, 0 36.75 M0 36.75 C-0.3 27.74, 1.42 16.13, 0 12.25 M0 36.75 C0.14 29.1, 0.04 19.46, 0 12.25 M0 12.25 C1.08 5.55, 4.2 1.83, 12.25 0 M0 12.25 C0.02 4.18, 3.35 -1.1, 12.25 0" stroke="#1e1e1e" stroke-width="2" fill="none"></path></g><g transform="translate(319.3999996185303 51.25) rotate(0 18.600000381469727 17.5)"><text x="18.600000381469727" y="0" font-family="Virgil, Segoe UI Emoji" font-size="28px" fill="#1e1e1e" text-anchor="middle" style="white-space: pre;" direction="ltr" dominant-baseline="text-before-edge">40</text></g><g stroke-linecap="round" transform="translate(312 91.75) rotate(0 25 24.5)"><path d="M12.25 0 C21.12 -1.61, 31.08 0.68, 37.75 0 M12.25 0 C22.08 -0.45, 31.28 0.68, 37.75 0 M37.75 0 C47.79 -1.05, 51.71 2.58, 50 12.25 M37.75 0 C47.78 -0.99, 52.14 5.24, 50 12.25 M50 12.25 C51.3 22.61, 49.48 29.48, 50 36.75 M50 12.25 C49.61 20.65, 49.88 29.7, 50 36.75 M50 36.75 C50.85 44.08, 44.66 47.89, 37.75 49 M50 36.75 C51.92 43.47, 47.11 50.93, 37.75 49 M37.75 49 C30.27 48.24, 26.7 50.31, 12.25 49 M37.75 49 C28.73 49.54, 19.19 49.14, 12.25 49 M12.25 49 C5.57 50.13, 0.59 44.08, 0 36.75 M12.25 49 C1.99 49.62, 2.27 45.9, 0 36.75 M0 36.75 C1.55 28.92, 0.9 24.25, 0 12.25 M0 36.75 C0.09 29.22, 0.48 23.29, 0 12.25 M0 12.25 C0.11 5.91, 4.1 0.09, 12.25 0 M0 12.25 C-0.73 2.98, 5.7 -1.44, 12.25 0" stroke="#1e1e1e" stroke-width="2" fill="none"></path></g><g transform="translate(328.3500003814697 98.75) rotate(0 8.649999618530273 17.5)"><text x="8.649999618530273" y="0" font-family="Virgil, Segoe UI Emoji" font-size="28px" fill="#1e1e1e" text-anchor="middle" style="white-space: pre;" direction="ltr" dominant-baseline="text-before-edge">5</text></g><g stroke-linecap="round" transform="translate(312 138.75) rotate(0 25 24.5)"><path d="M12.25 0 C21.32 0.89, 29.24 -0.15, 37.75 0 M12.25 0 C19.65 0.79, 28.18 -0.4, 37.75 0 M37.75 0 C47.63 -1.51, 51.62 3.22, 50 12.25 M37.75 0 C48.06 1.16, 51.57 3.45, 50 12.25 M50 12.25 C49.71 19.29, 51.09 26.39, 50 36.75 M50 12.25 C50.03 21.24, 50.38 28.83, 50 36.75 M50 36.75 C48.74 43.8, 47.58 47.75, 37.75 49 M50 36.75 C51.2 46.85, 44.18 48.21, 37.75 49 M37.75 49 C32.33 50.42, 27.42 47.13, 12.25 49 M37.75 49 C32.2 49.52, 27.15 49.75, 12.25 49 M12.25 49 C4.67 48.16, -1.82 45.45, 0 36.75 M12.25 49 C6.35 49.98, -0.57 44.69, 0 36.75 M0 36.75 C0.69 29.45, -0.39 20.71, 0 12.25 M0 36.75 C0.5 28.23, 0.02 19.16, 0 12.25 M0 12.25 C0.02 4.17, 3.45 -0.96, 12.25 0 M0 12.25 C1.61 2.64, 4.92 0.9, 12.25 0" stroke="#1e1e1e" stroke-width="2" fill="none"></path></g><g transform="translate(319.9333324432373 145.75) rotate(0 17.066667556762695 17.5)"><text x="17.066667556762695" y="0" font-family="Virgil, Segoe UI Emoji" font-size="28px" fill="#1e1e1e" text-anchor="middle" style="white-space: pre;" direction="ltr" dominant-baseline="text-before-edge">99</text></g><g stroke-linecap="round" transform="translate(312 189.25) rotate(0 25 24.5)"><path d="M12.25 0 C18.47 -0.26, 23.7 0.84, 37.75 0 M12.25 0 C18.48 1, 22.64 0.07, 37.75 0 M37.75 0 C44.18 1.27, 51.89 3.41, 50 12.25 M37.75 0 C47.71 -2.28, 52.22 4.96, 50 12.25 M50 12.25 C50.52 20.22, 49.62 29.76, 50 36.75 M50 12.25 C49.27 21.81, 50.55 30.04, 50 36.75 M50 36.75 C51.82 44.6, 44.58 47.18, 37.75 49 M50 36.75 C50.18 44.06, 48.18 48.2, 37.75 49 M37.75 49 C27.4 48.77, 16.94 47.88, 12.25 49 M37.75 49 C28.06 48.3, 18.41 49.77, 12.25 49 M12.25 49 C5 47.53, -0.81 45.62, 0 36.75 M12.25 49 C6.18 47.86, 0.75 45.57, 0 36.75 M0 36.75 C-1.1 29.1, 1.52 25.96, 0 12.25 M0 36.75 C-0.05 26.71, 1.01 17.46, 0 12.25 M0 12.25 C-0.25 5.05, 5.05 -0.96, 12.25 0 M0 12.25 C0.42 4.39, 5.48 -1.89, 12.25 0" stroke="#1e1e1e" stroke-width="2" fill="none"></path></g><g transform="translate(324.2333335876465 196.25) rotate(0 12.766666412353516 17.5)"><text x="12.766666412353516" y="0" font-family="Virgil, Segoe UI Emoji" font-size="28px" fill="#1e1e1e" text-anchor="middle" style="white-space: pre;" direction="ltr" dominant-baseline="text-before-edge">16</text></g><g stroke-linecap="round" transform="translate(311 236.75) rotate(0 25 24.5)"><path d="M12.25 0 C19.19 0.92, 26.85 -0.89, 37.75 0 M12.25 0 C17.72 -0.34, 22.69 0.43, 37.75 0 M37.75 0 C47.81 -0.68, 51.56 2.1, 50 12.25 M37.75 0 C48.14 0.88, 52.24 4.76, 50 12.25 M50 12.25 C49.61 19.5, 51.69 30.58, 50 36.75 M50 12.25 C50.39 20.3, 50.73 30.03, 50 36.75 M50 36.75 C48.66 43.09, 46.07 48.26, 37.75 49 M50 36.75 C52.26 44.12, 47.77 51, 37.75 49 M37.75 49 C29.78 47.97, 26.55 49.27, 12.25 49 M37.75 49 C30.84 49.57, 22.55 48.08, 12.25 49 M12.25 49 C3.28 49.71, 1.82 43.93, 0 36.75 M12.25 49 C4.84 49.66, -1.17 43.79, 0 36.75 M0 36.75 C1.55 33.04, 2.01 25.41, 0 12.25 M0 36.75 C0.92 30.76, -0.08 25.31, 0 12.25 M0 12.25 C0.96 3.12, 4.45 0.26, 12.25 0 M0 12.25 C1.4 2.2, 6.08 -1.18, 12.25 0" stroke="#1e1e1e" stroke-width="2" fill="none"></path></g><g transform="translate(316.3999996185303 243.75) rotate(0 19.600000381469727 17.5)"><text x="19.600000381469727" y="0" font-family="Virgil, Segoe UI Emoji" font-size="28px" fill="#1e1e1e" text-anchor="middle" style="white-space: pre;" direction="ltr" dominant-baseline="text-before-edge">20</text></g><g stroke-linecap="round" transform="translate(311 283.75) rotate(0 25 24.5)"><path d="M12.25 0 C17.79 -1.03, 25.46 1.76, 37.75 0 M12.25 0 C21.08 0.67, 32.59 -0.3, 37.75 0 M37.75 0 C47.48 -1.98, 51.93 4.85, 50 12.25 M37.75 0 C48.15 0.68, 51.74 4.6, 50 12.25 M50 12.25 C51.58 17.35, 51.27 21.2, 50 36.75 M50 12.25 C51.05 19.94, 49.47 27.03, 50 36.75 M50 36.75 C50.15 44.18, 47.88 48.31, 37.75 49 M50 36.75 C51.85 46.92, 44.94 48.26, 37.75 49 M37.75 49 C32.2 49.16, 22.9 49.75, 12.25 49 M37.75 49 C32.39 48.46, 25.72 49.55, 12.25 49 M12.25 49 C5.9 48.01, 0.65 45.49, 0 36.75 M12.25 49 C2.91 47.87, -2.08 43.51, 0 36.75 M0 36.75 C1.69 30.22, -1.3 25.47, 0 12.25 M0 36.75 C-0.34 30.88, 0.27 23.56, 0 12.25 M0 12.25 C0.37 4.35, 5.3 -1.64, 12.25 0 M0 12.25 C2 2.9, 3.9 2.28, 12.25 0" stroke="#1e1e1e" stroke-width="2" fill="none"></path></g><g transform="translate(318.0666675567627 290.75) rotate(0 17.933332443237305 17.5)"><text x="17.933332443237305" y="0" font-family="Virgil, Segoe UI Emoji" font-size="28px" fill="#1e1e1e" text-anchor="middle" style="white-space: pre;" direction="ltr" dominant-baseline="text-before-edge">46</text></g><g stroke-linecap="round" transform="translate(11 191.25) rotate(0 25 24.5)"><path d="M12.25 0 C17.97 1.28, 23.84 0.11, 37.75 0 M12.25 0 C18.03 0.88, 22.81 0.76, 37.75 0 M37.75 0 C47.69 0.52, 50.44 2.15, 50 12.25 M37.75 0 C44.63 1.44, 50.85 1.86, 50 12.25 M50 12.25 C48.58 21.98, 50.41 28.85, 50 36.75 M50 12.25 C50.81 19.62, 50.82 25.68, 50 36.75 M50 36.75 C50.6 44.08, 46.93 47.91, 37.75 49 M50 36.75 C49.89 45.98, 44.02 48.17, 37.75 49 M37.75 49 C28.72 50.79, 16.15 47.91, 12.25 49 M37.75 49 C30.21 49.87, 21.9 48.15, 12.25 49 M12.25 49 C5.34 48.05, -1.74 44.89, 0 36.75 M12.25 49 C5.81 47.36, -0.77 42.83, 0 36.75 M0 36.75 C1.6 28.74, -0.33 21.35, 0 12.25 M0 36.75 C0.85 29.87, 0.83 24.55, 0 12.25 M0 12.25 C0.8 3.63, 2.75 0.47, 12.25 0 M0 12.25 C1.78 2.14, 5.06 -1.3, 12.25 0" stroke="#1e1e1e" stroke-width="2" fill="none"></path></g><g transform="translate(16.399999618530273 198.25) rotate(0 19.600000381469727 17.5)"><text x="19.600000381469727" y="0" font-family="Virgil, Segoe UI Emoji" font-size="28px" fill="#1e1e1e" text-anchor="middle" style="white-space: pre;" direction="ltr" dominant-baseline="text-before-edge">20</text></g><g stroke-linecap="round" transform="translate(10 238.75) rotate(0 25 22.5)"><path d="M11.25 0 C19.47 0.48, 30.97 1.02, 38.75 0 M11.25 0 C22.63 0.07, 32.45 -1.16, 38.75 0 M38.75 0 C45.13 1.26, 50.74 1.81, 50 11.25 M38.75 0 C47.08 -0.04, 51.16 2.12, 50 11.25 M50 11.25 C49.54 18.91, 50.1 29.91, 50 33.75 M50 11.25 C50.5 19.04, 50.71 27.11, 50 33.75 M50 33.75 C49.9 42.18, 44.6 44.28, 38.75 45 M50 33.75 C52.26 42.47, 45.4 46.3, 38.75 45 M38.75 45 C28.09 46.44, 16.75 45.55, 11.25 45 M38.75 45 C28.63 44.3, 16.39 44.77, 11.25 45 M11.25 45 C5.25 43.58, -0.67 39.44, 0 33.75 M11.25 45 C3.82 43.54, 0.4 42.91, 0 33.75 M0 33.75 C-1.12 27.54, 0.64 23.22, 0 11.25 M0 33.75 C0.22 28.95, -0.85 24.84, 0 11.25 M0 11.25 C1.55 2.06, 4.6 -1.13, 11.25 0 M0 11.25 C1.65 1.53, 3.61 0.84, 11.25 0" stroke="#1e1e1e" stroke-width="2" fill="none"></path></g><g transform="translate(26.350000381469727 243.75) rotate(0 8.649999618530273 17.5)"><text x="8.649999618530273" y="0" font-family="Virgil, Segoe UI Emoji" font-size="28px" fill="#1e1e1e" text-anchor="middle" style="white-space: pre;" direction="ltr" dominant-baseline="text-before-edge">5</text></g><g stroke-linecap="round" transform="translate(10 285.75) rotate(0 25 24.5)"><path d="M12.25 0 C22.17 -0.05, 30.23 1.64, 37.75 0 M12.25 0 C20 0.87, 29.24 -0.72, 37.75 0 M37.75 0 C46.64 -0.04, 51.01 2.67, 50 12.25 M37.75 0 C47.63 0.48, 50.15 3.5, 50 12.25 M50 12.25 C51.3 20.49, 49.98 25.67, 50 36.75 M50 12.25 C50.07 19.04, 49.3 24.54, 50 36.75 M50 36.75 C51.97 45.98, 45.17 50.13, 37.75 49 M50 36.75 C52.17 43.44, 44.77 49.21, 37.75 49 M37.75 49 C29.9 48.92, 16.81 50.35, 12.25 49 M37.75 49 C32.06 48.29, 24.53 48.09, 12.25 49 M12.25 49 C4.15 47.73, 0.34 46.36, 0 36.75 M12.25 49 C3.41 48.45, -0.62 43.57, 0 36.75 M0 36.75 C-2.01 31.17, -0.82 23.13, 0 12.25 M0 36.75 C0.94 29.11, 0.59 22.6, 0 12.25 M0 12.25 C1.43 2.15, 3.96 0.73, 12.25 0 M0 12.25 C0.95 5.43, 3.27 2.28, 12.25 0" stroke="#1e1e1e" stroke-width="2" fill="none"></path></g><g transform="translate(22.233333587646484 292.75) rotate(0 12.766666412353516 17.5)"><text x="12.766666412353516" y="0" font-family="Virgil, Segoe UI Emoji" font-size="28px" fill="#1e1e1e" text-anchor="middle" style="white-space: pre;" direction="ltr" dominant-baseline="text-before-edge">16</text></g><g transform="translate(33.5 10) rotate(0 8.516666412353516 17.5)"><text x="0" y="0" font-family="Virgil, Segoe UI Emoji" font-size="28px" fill="#1e1e1e" text-anchor="start" style="white-space: pre;" direction="ltr" dominant-baseline="text-before-edge">S</text></g><g transform="translate(329.5 12) rotate(0 11.25 17.5)"><text x="0" y="0" font-family="Virgil, Segoe UI Emoji" font-size="28px" fill="#1e1e1e" text-anchor="start" style="white-space: pre;" direction="ltr" dominant-baseline="text-before-edge">T</text></g></svg>