<svg version="1.1" xmlns="http://www.w3.org/2000/svg" viewBox="0 0 304.5 338.75" width="609" height="677.5">
  <!-- svg-source:excalidraw -->
  
  <defs>
    <style class="style-fonts">
      @font-face {
        font-family: "Virgil";
        src: url("https://excalidraw.com/Virgil.woff2");
      }
      @font-face {
        font-family: "Cascadia";
        src: url("https://excalidraw.com/Cascadia.woff2");
      }
      @font-face {
        font-family: "Assistant";
        src: url("https://excalidraw.com/Assistant-Regular.woff2");
      }
    </style>
    
  </defs>
  <rect x="0" y="0" width="304.5" height="338.75" fill="#ffffff"></rect><g stroke-linecap="round" transform="translate(11 113) rotate(0 25 24.5)"><path d="M12.25 0 C17.99 1.37, 27.17 1.24, 37.75 0 M12.25 0 C16.6 1.01, 21.94 1, 37.75 0 M37.75 0 C47.17 -0.58, 50.69 4.4, 50 12.25 M37.75 0 C45.27 -0.43, 47.99 3.27, 50 12.25 M50 12.25 C49.85 19.03, 50.42 27.22, 50 36.75 M50 12.25 C50.04 19.33, 49.24 23.81, 50 36.75 M50 36.75 C48.43 44.75, 46.22 48.78, 37.75 49 M50 36.75 C50.54 43.32, 44.68 47.82, 37.75 49 M37.75 49 C32.94 50.49, 24.84 48.68, 12.25 49 M37.75 49 C31.25 48.2, 24.16 49.13, 12.25 49 M12.25 49 C4.13 47.21, 0.37 43.23, 0 36.75 M12.25 49 C3.84 47.37, -1.42 45.12, 0 36.75 M0 36.75 C1.26 25.37, -1.23 17.17, 0 12.25 M0 36.75 C0.36 29.39, -0.86 19.87, 0 12.25 M0 12.25 C-0.78 2.77, 5.62 -1.28, 12.25 0 M0 12.25 C0.75 2.9, 4.86 -1.25, 12.25 0" stroke="#1e1e1e" stroke-width="2" fill="none"></path></g><g transform="translate(18.933332443237305 120) rotate(0 17.066667556762695 17.5)"><text x="17.066667556762695" y="0" font-family="Virgil, Segoe UI Emoji" font-size="28px" fill="#1e1e1e" text-anchor="middle" style="white-space: pre;" direction="ltr" dominant-baseline="text-before-edge">99</text></g><g stroke-linecap="round" transform="translate(10 160.5) rotate(0 25 22.5)"><path d="M11.25 0 C20.78 -1.5, 32.02 1.91, 38.75 0 M11.25 0 C21.58 -0.46, 31.9 0.86, 38.75 0 M38.75 0 C46.58 1.17, 51.69 4.11, 50 11.25 M38.75 0 C45.94 2.29, 51.59 2.1, 50 11.25 M50 11.25 C48.78 15.52, 51.38 23.31, 50 33.75 M50 11.25 C50.07 18.06, 49.3 26.33, 50 33.75 M50 33.75 C49.58 41.68, 44.33 46.45, 38.75 45 M50 33.75 C47.86 41.98, 44.05 46.87, 38.75 45 M38.75 45 C29.14 47.07, 20.11 45.86, 11.25 45 M38.75 45 C31.18 45.85, 25.19 44.75, 11.25 45 M11.25 45 C1.79 43.27, 1.17 39.79, 0 33.75 M11.25 45 C2.74 46.35, 1.64 39.1, 0 33.75 M0 33.75 C0.46 28.39, 1.62 20.1, 0 11.25 M0 33.75 C-0.37 27, 0.9 21.18, 0 11.25 M0 11.25 C0.07 3.52, 2.93 1.14, 11.25 0 M0 11.25 C-1.5 4.41, 5.1 1.79, 11.25 0" stroke="#1e1e1e" stroke-width="2" fill="none"></path></g><g transform="translate(16.399999618530273 165.5) rotate(0 18.600000381469727 17.5)"><text x="18.600000381469727" y="0" font-family="Virgil, Segoe UI Emoji" font-size="28px" fill="#1e1e1e" text-anchor="middle" style="white-space: pre;" direction="ltr" dominant-baseline="text-before-edge">40</text></g><g stroke-linecap="round" transform="translate(10 207.5) rotate(0 25 24.5)"><path d="M12.25 0 C20.5 -0.15, 25.24 -1.04, 37.75 0 M12.25 0 C21.94 0.71, 29.66 -0.6, 37.75 0 M37.75 0 C45.63 -0.37, 48.33 5.3, 50 12.25 M37.75 0 C45.5 0.86, 49.43 5.63, 50 12.25 M50 12.25 C49.06 19.56, 51.04 27.32, 50 36.75 M50 12.25 C48.97 21.88, 49.57 29.32, 50 36.75 M50 36.75 C51.39 44.61, 46.32 47.44, 37.75 49 M50 36.75 C50.54 43.26, 47.62 48.65, 37.75 49 M37.75 49 C28.18 47.81, 17.58 49.05, 12.25 49 M37.75 49 C31.92 48.7, 26.63 48.08, 12.25 49 M12.25 49 C2.76 50.72, 0.24 44.37, 0 36.75 M12.25 49 C4.62 50.82, -1.04 46.59, 0 36.75 M0 36.75 C-1.95 31.62, 1.85 22.56, 0 12.25 M0 36.75 C0.07 28.8, 0.06 19.11, 0 12.25 M0 12.25 C-0.69 3.19, 5.14 0.44, 12.25 0 M0 12.25 C-1.96 3.89, 4.51 -0.53, 12.25 0" stroke="#1e1e1e" stroke-width="2" fill="none"></path></g><g transform="translate(17.066667556762695 214.5) rotate(0 17.933332443237305 17.5)"><text x="17.933332443237305" y="0" font-family="Virgil, Segoe UI Emoji" font-size="28px" fill="#1e1e1e" text-anchor="middle" style="white-space: pre;" direction="ltr" dominant-baseline="text-before-edge">46</text></g><g transform="translate(129 142) rotate(0 6.516666889190674 17.5)"><text x="0" y="0" font-family="Virgil, Segoe UI Emoji" font-size="28px" fill="#1e1e1e" text-anchor="start" style="white-space: pre;" direction="ltr" dominant-baseline="text-before-edge">?</text></g><g transform="translate(97 182) rotate(0 45.83333206176758 17.5)"><text x="0" y="0" font-family="Virgil, Segoe UI Emoji" font-size="28px" fill="#1e1e1e" text-anchor="start" style="white-space: pre;" direction="ltr" dominant-baseline="text-before-edge">subset</text></g><g stroke-linecap="round" transform="translate(244.5 40.25) rotate(0 25 24.5)"><path d="M12.25 0 C20.99 -0.04, 30.44 -1.72, 37.75 0 M12.25 0 C21.41 -0.25, 31.2 -0.66, 37.75 0 M37.75 0 C45.72 1.33, 51.87 3.04, 50 12.25 M37.75 0 C47.89 -1.73, 51.87 3.09, 50 12.25 M50 12.25 C49.57 22.3, 51.49 32.86, 50 36.75 M50 12.25 C49.11 19.51, 49.71 25.75, 50 36.75 M50 36.75 C50.15 45.9, 46.77 48.16, 37.75 49 M50 36.75 C48.55 43.64, 47.83 47.56, 37.75 49 M37.75 49 C28.08 47.38, 18.04 48.23, 12.25 49 M37.75 49 C28.68 48.39, 21.72 49.91, 12.25 49 M12.25 49 C4.32 49.67, 1.49 46.05, 0 36.75 M12.25 49 C4.76 48.03, -2.1 45.53, 0 36.75 M0 36.75 C-0.3 27.74, 1.42 16.13, 0 12.25 M0 36.75 C0.14 29.1, 0.04 19.46, 0 12.25 M0 12.25 C1.08 5.55, 4.2 1.83, 12.25 0 M0 12.25 C0.02 4.18, 3.35 -1.1, 12.25 0" stroke="#1e1e1e" stroke-width="2" fill="none"></path></g><g transform="translate(250.89999961853027 47.25) rotate(0 18.600000381469727 17.5)"><text x="18.600000381469727" y="0" font-family="Virgil, Segoe UI Emoji" font-size="28px" fill="#1e1e1e" text-anchor="middle" style="white-space: pre;" direction="ltr" dominant-baseline="text-before-edge">40</text></g><g stroke-linecap="round" transform="translate(243.5 87.75) rotate(0 25 24.5)"><path d="M12.25 0 C21.12 -1.61, 31.08 0.68, 37.75 0 M12.25 0 C22.08 -0.45, 31.28 0.68, 37.75 0 M37.75 0 C47.79 -1.05, 51.71 2.58, 50 12.25 M37.75 0 C47.78 -0.99, 52.14 5.24, 50 12.25 M50 12.25 C51.3 22.61, 49.48 29.48, 50 36.75 M50 12.25 C49.61 20.65, 49.88 29.7, 50 36.75 M50 36.75 C50.85 44.08, 44.66 47.89, 37.75 49 M50 36.75 C51.92 43.47, 47.11 50.93, 37.75 49 M37.75 49 C30.27 48.24, 26.7 50.31, 12.25 49 M37.75 49 C28.73 49.54, 19.19 49.14, 12.25 49 M12.25 49 C5.57 50.13, 0.59 44.08, 0 36.75 M12.25 49 C1.99 49.62, 2.27 45.9, 0 36.75 M0 36.75 C1.55 28.92, 0.9 24.25, 0 12.25 M0 36.75 C0.09 29.22, 0.48 23.29, 0 12.25 M0 12.25 C0.11 5.91, 4.1 0.09, 12.25 0 M0 12.25 C-0.73 2.98, 5.7 -1.44, 12.25 0" stroke="#1e1e1e" stroke-width="2" fill="none"></path></g><g transform="translate(259.8500003814697 94.75) rotate(0 8.649999618530273 17.5)"><text x="8.649999618530273" y="0" font-family="Virgil, Segoe UI Emoji" font-size="28px" fill="#1e1e1e" text-anchor="middle" style="white-space: pre;" direction="ltr" dominant-baseline="text-before-edge">5</text></g><g stroke-linecap="round" transform="translate(243.5 134.75) rotate(0 25 24.5)"><path d="M12.25 0 C21.32 0.89, 29.24 -0.15, 37.75 0 M12.25 0 C19.65 0.79, 28.18 -0.4, 37.75 0 M37.75 0 C47.63 -1.51, 51.62 3.22, 50 12.25 M37.75 0 C48.06 1.16, 51.57 3.45, 50 12.25 M50 12.25 C49.71 19.29, 51.09 26.39, 50 36.75 M50 12.25 C50.03 21.24, 50.38 28.83, 50 36.75 M50 36.75 C48.74 43.8, 47.58 47.75, 37.75 49 M50 36.75 C51.2 46.85, 44.18 48.21, 37.75 49 M37.75 49 C32.33 50.42, 27.42 47.13, 12.25 49 M37.75 49 C32.2 49.52, 27.15 49.75, 12.25 49 M12.25 49 C4.67 48.16, -1.82 45.45, 0 36.75 M12.25 49 C6.35 49.98, -0.57 44.69, 0 36.75 M0 36.75 C0.69 29.45, -0.39 20.71, 0 12.25 M0 36.75 C0.5 28.23, 0.02 19.16, 0 12.25 M0 12.25 C0.02 4.17, 3.45 -0.96, 12.25 0 M0 12.25 C1.61 2.64, 4.92 0.9, 12.25 0" stroke="#1e1e1e" stroke-width="2" fill="none"></path></g><g transform="translate(251.4333324432373 141.75) rotate(0 17.066667556762695 17.5)"><text x="17.066667556762695" y="0" font-family="Virgil, Segoe UI Emoji" font-size="28px" fill="#1e1e1e" text-anchor="middle" style="white-space: pre;" direction="ltr" dominant-baseline="text-before-edge">99</text></g><g stroke-linecap="round" transform="translate(243.5 185.25) rotate(0 25 24.5)"><path d="M12.25 0 C18.47 -0.26, 23.7 0.84, 37.75 0 M12.25 0 C18.48 1, 22.64 0.07, 37.75 0 M37.75 0 C44.18 1.27, 51.89 3.41, 50 12.25 M37.75 0 C47.71 -2.28, 52.22 4.96, 50 12.25 M50 12.25 C50.52 20.22, 49.62 29.76, 50 36.75 M50 12.25 C49.27 21.81, 50.55 30.04, 50 36.75 M50 36.75 C51.82 44.6, 44.58 47.18, 37.75 49 M50 36.75 C50.18 44.06, 48.18 48.2, 37.75 49 M37.75 49 C27.4 48.77, 16.94 47.88, 12.25 49 M37.75 49 C28.06 48.3, 18.41 49.77, 12.25 49 M12.25 49 C5 47.53, -0.81 45.62, 0 36.75 M12.25 49 C6.18 47.86, 0.75 45.57, 0 36.75 M0 36.75 C-1.1 29.1, 1.52 25.96, 0 12.25 M0 36.75 C-0.05 26.71, 1.01 17.46, 0 12.25 M0 12.25 C-0.25 5.05, 5.05 -0.96, 12.25 0 M0 12.25 C0.42 4.39, 5.48 -1.89, 12.25 0" stroke="#1e1e1e" stroke-width="2" fill="none"></path></g><g transform="translate(255.73333358764648 192.25) rotate(0 12.766666412353516 17.5)"><text x="12.766666412353516" y="0" font-family="Virgil, Segoe UI Emoji" font-size="28px" fill="#1e1e1e" text-anchor="middle" style="white-space: pre;" direction="ltr" dominant-baseline="text-before-edge">16</text></g><g stroke-linecap="round" transform="translate(242.5 232.75) rotate(0 25 24.5)"><path d="M12.25 0 C19.19 0.92, 26.85 -0.89, 37.75 0 M12.25 0 C17.72 -0.34, 22.69 0.43, 37.75 0 M37.75 0 C47.81 -0.68, 51.56 2.1, 50 12.25 M37.75 0 C48.14 0.88, 52.24 4.76, 50 12.25 M50 12.25 C49.61 19.5, 51.69 30.58, 50 36.75 M50 12.25 C50.39 20.3, 50.73 30.03, 50 36.75 M50 36.75 C48.66 43.09, 46.07 48.26, 37.75 49 M50 36.75 C52.26 44.12, 47.77 51, 37.75 49 M37.75 49 C29.78 47.97, 26.55 49.27, 12.25 49 M37.75 49 C30.84 49.57, 22.55 48.08, 12.25 49 M12.25 49 C3.28 49.71, 1.82 43.93, 0 36.75 M12.25 49 C4.84 49.66, -1.17 43.79, 0 36.75 M0 36.75 C1.55 33.04, 2.01 25.41, 0 12.25 M0 36.75 C0.92 30.76, -0.08 25.31, 0 12.25 M0 12.25 C0.96 3.12, 4.45 0.26, 12.25 0 M0 12.25 C1.4 2.2, 6.08 -1.18, 12.25 0" stroke="#1e1e1e" stroke-width="2" fill="none"></path></g><g transform="translate(247.89999961853027 239.75) rotate(0 19.600000381469727 17.5)"><text x="19.600000381469727" y="0" font-family="Virgil, Segoe UI Emoji" font-size="28px" fill="#1e1e1e" text-anchor="middle" style="white-space: pre;" direction="ltr" dominant-baseline="text-before-edge">20</text></g><g stroke-linecap="round" transform="translate(242.5 279.75) rotate(0 25 24.5)"><path d="M12.25 0 C17.79 -1.03, 25.46 1.76, 37.75 0 M12.25 0 C21.08 0.67, 32.59 -0.3, 37.75 0 M37.75 0 C47.48 -1.98, 51.93 4.85, 50 12.25 M37.75 0 C48.15 0.68, 51.74 4.6, 50 12.25 M50 12.25 C51.58 17.35, 51.27 21.2, 50 36.75 M50 12.25 C51.05 19.94, 49.47 27.03, 50 36.75 M50 36.75 C50.15 44.18, 47.88 48.31, 37.75 49 M50 36.75 C51.85 46.92, 44.94 48.26, 37.75 49 M37.75 49 C32.2 49.16, 22.9 49.75, 12.25 49 M37.75 49 C32.39 48.46, 25.72 49.55, 12.25 49 M12.25 49 C5.9 48.01, 0.65 45.49, 0 36.75 M12.25 49 C2.91 47.87, -2.08 43.51, 0 36.75 M0 36.75 C1.69 30.22, -1.3 25.47, 0 12.25 M0 36.75 C-0.34 30.88, 0.27 23.56, 0 12.25 M0 12.25 C0.37 4.35, 5.3 -1.64, 12.25 0 M0 12.25 C2 2.9, 3.9 2.28, 12.25 0" stroke="#1e1e1e" stroke-width="2" fill="none"></path></g><g transform="translate(249.5666675567627 286.75) rotate(0 17.933332443237305 17.5)"><text x="17.933332443237305" y="0" font-family="Virgil, Segoe UI Emoji" font-size="28px" fill="#1e1e1e" text-anchor="middle" style="white-space: pre;" direction="ltr" dominant-baseline="text-before-edge">46</text></g><g transform="translate(30.25 84) rotate(0 8.516666412353516 17.5)"><text x="0" y="0" font-family="Virgil, Segoe UI Emoji" font-size="28px" fill="#1e1e1e" text-anchor="start" style="white-space: pre;" direction="ltr" dominant-baseline="text-before-edge">S</text></g><g transform="translate(259.25 10) rotate(0 11.25 17.5)"><text x="0" y="0" font-family="Virgil, Segoe UI Emoji" font-size="28px" fill="#1e1e1e" text-anchor="start" style="white-space: pre;" direction="ltr" dominant-baseline="text-before-edge">T</text></g></svg>