<?xml version="1.0" encoding="utf-8" standalone="no"?>
<!DOCTYPE svg PUBLIC "-//W3C//DTD SVG 1.1//EN"
  "http://www.w3.org/Graphics/SVG/1.1/DTD/svg11.dtd">
<svg xmlns:xlink="http://www.w3.org/1999/xlink" width="576pt" height="432pt" viewBox="0 0 576 432" xmlns="http://www.w3.org/2000/svg" version="1.1">
 <metadata>
  <rdf:RDF xmlns:dc="http://purl.org/dc/elements/1.1/" xmlns:cc="http://creativecommons.org/ns#" xmlns:rdf="http://www.w3.org/1999/02/22-rdf-syntax-ns#">
   <cc:Work>
    <dc:type rdf:resource="http://purl.org/dc/dcmitype/StillImage"/>
    <dc:date>2024-03-24T20:46:43.903367</dc:date>
    <dc:format>image/svg+xml</dc:format>
    <dc:creator>
     <cc:Agent>
      <dc:title>Matplotlib v3.8.0, https://matplotlib.org/</dc:title>
     </cc:Agent>
    </dc:creator>
   </cc:Work>
  </rdf:RDF>
 </metadata>
 <defs>
  <style type="text/css">*{stroke-linejoin: round; stroke-linecap: butt}</style>
 </defs>
 <g id="figure_1">
  <g id="patch_1">
   <path d="M 0 432 
L 576 432 
L 576 0 
L 0 0 
z
" style="fill: #ffffff"/>
  </g>
  <g id="axes_1">
   <g id="patch_2">
    <path d="M 72 384.48 
L 518.4 384.48 
L 518.4 51.84 
L 72 51.84 
z
" style="fill: #ffffff"/>
   </g>
   <g id="PathCollection_1">
    <defs>
     <path id="md36847cdf6" d="M 0 1.581139 
C 0.419323 1.581139 0.821528 1.41454 1.118034 1.118034 
C 1.41454 0.821528 1.581139 0.419323 1.581139 0 
C 1.581139 -0.419323 1.41454 -0.821528 1.118034 -1.118034 
C 0.821528 -1.41454 0.419323 -1.581139 0 -1.581139 
C -0.419323 -1.581139 -0.821528 -1.41454 -1.118034 -1.118034 
C -1.41454 -0.821528 -1.581139 -0.419323 -1.581139 0 
C -1.581139 0.419323 -1.41454 0.821528 -1.118034 1.118034 
C -0.821528 1.41454 -0.419323 1.581139 0 1.581139 
z
" style="stroke: #ff0000"/>
    </defs>
    <g clip-path="url(#p44450da8e7)">
     <use xlink:href="#md36847cdf6" x="143.870149" y="337.667702" style="fill: #ff0000; stroke: #ff0000"/>
     <use xlink:href="#md36847cdf6" x="95.69614" y="358.294754" style="fill: #ff0000; stroke: #ff0000"/>
     <use xlink:href="#md36847cdf6" x="142.605047" y="338.609423" style="fill: #ff0000; stroke: #ff0000"/>
     <use xlink:href="#md36847cdf6" x="135.44141" y="338.510385" style="fill: #ff0000; stroke: #ff0000"/>
     <use xlink:href="#md36847cdf6" x="130.143798" y="340.548612" style="fill: #ff0000; stroke: #ff0000"/>
     <use xlink:href="#md36847cdf6" x="102.037461" y="355.917136" style="fill: #ff0000; stroke: #ff0000"/>
     <use xlink:href="#md36847cdf6" x="131.282389" y="341.985978" style="fill: #ff0000; stroke: #ff0000"/>
     <use xlink:href="#md36847cdf6" x="116.153885" y="350.922061" style="fill: #ff0000; stroke: #ff0000"/>
     <use xlink:href="#md36847cdf6" x="121.346072" y="339.132215" style="fill: #ff0000; stroke: #ff0000"/>
     <use xlink:href="#md36847cdf6" x="140.665225" y="336.572891" style="fill: #ff0000; stroke: #ff0000"/>
     <use xlink:href="#md36847cdf6" x="124.877813" y="338.327656" style="fill: #ff0000; stroke: #ff0000"/>
     <use xlink:href="#md36847cdf6" x="113.481358" y="350.152578" style="fill: #ff0000; stroke: #ff0000"/>
     <use xlink:href="#md36847cdf6" x="135.362341" y="336.565685" style="fill: #ff0000; stroke: #ff0000"/>
     <use xlink:href="#md36847cdf6" x="117.693092" y="345.880064" style="fill: #ff0000; stroke: #ff0000"/>
     <use xlink:href="#md36847cdf6" x="92.290909" y="365.560749" style="fill: #ff0000; stroke: #ff0000"/>
     <use xlink:href="#md36847cdf6" x="115.16816" y="350.523255" style="fill: #ff0000; stroke: #ff0000"/>
     <use xlink:href="#md36847cdf6" x="143.553873" y="337.266382" style="fill: #ff0000; stroke: #ff0000"/>
     <use xlink:href="#md36847cdf6" x="119.722525" y="351.057823" style="fill: #ff0000; stroke: #ff0000"/>
     <use xlink:href="#md36847cdf6" x="120.955999" y="336.730626" style="fill: #ff0000; stroke: #ff0000"/>
     <use xlink:href="#md36847cdf6" x="141.940869" y="336.925682" style="fill: #ff0000; stroke: #ff0000"/>
     <use xlink:href="#md36847cdf6" x="98.837809" y="359.213795" style="fill: #ff0000; stroke: #ff0000"/>
     <use xlink:href="#md36847cdf6" x="115.616217" y="351.917076" style="fill: #ff0000; stroke: #ff0000"/>
     <use xlink:href="#md36847cdf6" x="128.883968" y="334.433352" style="fill: #ff0000; stroke: #ff0000"/>
     <use xlink:href="#md36847cdf6" x="134.85103" y="337.438161" style="fill: #ff0000; stroke: #ff0000"/>
     <use xlink:href="#md36847cdf6" x="107.730418" y="351.956562" style="fill: #ff0000; stroke: #ff0000"/>
     <use xlink:href="#md36847cdf6" x="92.976172" y="369.36" style="fill: #ff0000; stroke: #ff0000"/>
     <use xlink:href="#md36847cdf6" x="122.864194" y="339.745254" style="fill: #ff0000; stroke: #ff0000"/>
     <use xlink:href="#md36847cdf6" x="129.621944" y="338.592267" style="fill: #ff0000; stroke: #ff0000"/>
     <use xlink:href="#md36847cdf6" x="93.856472" y="367.443399" style="fill: #ff0000; stroke: #ff0000"/>
     <use xlink:href="#md36847cdf6" x="142.452181" y="338.854662" style="fill: #ff0000; stroke: #ff0000"/>
     <use xlink:href="#md36847cdf6" x="123.359692" y="339.220792" style="fill: #ff0000; stroke: #ff0000"/>
     <use xlink:href="#md36847cdf6" x="134.787775" y="339.393673" style="fill: #ff0000; stroke: #ff0000"/>
     <use xlink:href="#md36847cdf6" x="136.02652" y="339.134333" style="fill: #ff0000; stroke: #ff0000"/>
     <use xlink:href="#md36847cdf6" x="119.564387" y="352.390633" style="fill: #ff0000; stroke: #ff0000"/>
     <use xlink:href="#md36847cdf6" x="157.622855" y="309.761696" style="fill: #ff0000; stroke: #ff0000"/>
     <use xlink:href="#md36847cdf6" x="187.832423" y="311.340847" style="fill: #ff0000; stroke: #ff0000"/>
     <use xlink:href="#md36847cdf6" x="162.656905" y="313.367389" style="fill: #ff0000; stroke: #ff0000"/>
     <use xlink:href="#md36847cdf6" x="107.682976" y="351.675662" style="fill: #ff0000; stroke: #ff0000"/>
     <use xlink:href="#md36847cdf6" x="101.125534" y="360.226174" style="fill: #ff0000; stroke: #ff0000"/>
     <use xlink:href="#md36847cdf6" x="132.489507" y="340.499004" style="fill: #ff0000; stroke: #ff0000"/>
     <use xlink:href="#md36847cdf6" x="127.492356" y="339.892154" style="fill: #ff0000; stroke: #ff0000"/>
     <use xlink:href="#md36847cdf6" x="141.007857" y="333.997174" style="fill: #ff0000; stroke: #ff0000"/>
     <use xlink:href="#md36847cdf6" x="95.037233" y="365.940877" style="fill: #ff0000; stroke: #ff0000"/>
     <use xlink:href="#md36847cdf6" x="155.957138" y="311.479061" style="fill: #ff0000; stroke: #ff0000"/>
     <use xlink:href="#md36847cdf6" x="492.779851" y="127.344441" style="fill: #ff0000; stroke: #ff0000"/>
     <use xlink:href="#md36847cdf6" x="483.644765" y="129.624387" style="fill: #ff0000; stroke: #ff0000"/>
     <use xlink:href="#md36847cdf6" x="249.253098" y="256.987066" style="fill: #ff0000; stroke: #ff0000"/>
     <use xlink:href="#md36847cdf6" x="338.421663" y="149.71899" style="fill: #ff0000; stroke: #ff0000"/>
     <use xlink:href="#md36847cdf6" x="136.037062" y="338.614379" style="fill: #ff0000; stroke: #ff0000"/>
     <use xlink:href="#md36847cdf6" x="235.126132" y="257.521054" style="fill: #ff0000; stroke: #ff0000"/>
     <use xlink:href="#md36847cdf6" x="402.662459" y="145.948183" style="fill: #ff0000; stroke: #ff0000"/>
     <use xlink:href="#md36847cdf6" x="346.25475" y="151.180338" style="fill: #ff0000; stroke: #ff0000"/>
     <use xlink:href="#md36847cdf6" x="132.389353" y="337.029739" style="fill: #ff0000; stroke: #ff0000"/>
     <use xlink:href="#md36847cdf6" x="337.530821" y="152.491634" style="fill: #ff0000; stroke: #ff0000"/>
     <use xlink:href="#md36847cdf6" x="342.101" y="152.406141" style="fill: #ff0000; stroke: #ff0000"/>
     <use xlink:href="#md36847cdf6" x="138.778115" y="337.719969" style="fill: #ff0000; stroke: #ff0000"/>
     <use xlink:href="#md36847cdf6" x="244.98338" y="258.120893" style="fill: #ff0000; stroke: #ff0000"/>
     <use xlink:href="#md36847cdf6" x="96.212724" y="363.514829" style="fill: #ff0000; stroke: #ff0000"/>
     <use xlink:href="#md36847cdf6" x="262.536663" y="257.8613" style="fill: #ff0000; stroke: #ff0000"/>
     <use xlink:href="#md36847cdf6" x="133.248568" y="338.614264" style="fill: #ff0000; stroke: #ff0000"/>
     <use xlink:href="#md36847cdf6" x="488.425794" y="136.319413" style="fill: #ff0000; stroke: #ff0000"/>
     <use xlink:href="#md36847cdf6" x="258.240589" y="257.200582" style="fill: #ff0000; stroke: #ff0000"/>
     <use xlink:href="#md36847cdf6" x="180.647701" y="311.387033" style="fill: #ff0000; stroke: #ff0000"/>
     <use xlink:href="#md36847cdf6" x="292.219105" y="253.578864" style="fill: #ff0000; stroke: #ff0000"/>
     <use xlink:href="#md36847cdf6" x="468.152543" y="134.774752" style="fill: #ff0000; stroke: #ff0000"/>
     <use xlink:href="#md36847cdf6" x="212.886703" y="257.780222" style="fill: #ff0000; stroke: #ff0000"/>
     <use xlink:href="#md36847cdf6" x="453.087294" y="131.075831" style="fill: #ff0000; stroke: #ff0000"/>
     <use xlink:href="#md36847cdf6" x="294.601712" y="249.991745" style="fill: #ff0000; stroke: #ff0000"/>
     <use xlink:href="#md36847cdf6" x="199.713834" y="306.186181" style="fill: #ff0000; stroke: #ff0000"/>
     <use xlink:href="#md36847cdf6" x="371.150891" y="153.940478" style="fill: #ff0000; stroke: #ff0000"/>
     <use xlink:href="#md36847cdf6" x="384.908869" y="151.37555" style="fill: #ff0000; stroke: #ff0000"/>
     <use xlink:href="#md36847cdf6" x="134.292277" y="342.306564" style="fill: #ff0000; stroke: #ff0000"/>
     <use xlink:href="#md36847cdf6" x="498.109091" y="137.31901" style="fill: #ff0000; stroke: #ff0000"/>
     <use xlink:href="#md36847cdf6" x="376.274552" y="150.430447" style="fill: #ff0000; stroke: #ff0000"/>
    </g>
   </g>
   <g id="PathCollection_2">
    <defs>
     <path id="mf4a4bc4c3e" d="M -1.581107 1.581107 
L 1.58117 1.581107 
L 1.58117 -1.58117 
L -1.581107 -1.58117 
z
" style="stroke: #0000ff"/>
    </defs>
    <g clip-path="url(#p44450da8e7)">
     <use xlink:href="#mf4a4bc4c3e" x="99.449275" y="361.254927" style="fill: #0000ff; stroke: #0000ff"/>
     <use xlink:href="#mf4a4bc4c3e" x="136.021248" y="339.469888" style="fill: #0000ff; stroke: #0000ff"/>
     <use xlink:href="#mf4a4bc4c3e" x="110.181552" y="353.341753" style="fill: #0000ff; stroke: #0000ff"/>
     <use xlink:href="#mf4a4bc4c3e" x="105.611373" y="357.059971" style="fill: #0000ff; stroke: #0000ff"/>
     <use xlink:href="#mf4a4bc4c3e" x="107.777859" y="351.861233" style="fill: #0000ff; stroke: #0000ff"/>
     <use xlink:href="#mf4a4bc4c3e" x="109.591171" y="355.097937" style="fill: #0000ff; stroke: #0000ff"/>
     <use xlink:href="#mf4a4bc4c3e" x="127.191895" y="336.895378" style="fill: #0000ff; stroke: #0000ff"/>
     <use xlink:href="#mf4a4bc4c3e" x="104.915567" y="356.564189" style="fill: #0000ff; stroke: #0000ff"/>
     <use xlink:href="#mf4a4bc4c3e" x="127.107555" y="338.026695" style="fill: #0000ff; stroke: #0000ff"/>
     <use xlink:href="#mf4a4bc4c3e" x="108.099406" y="353.578155" style="fill: #0000ff; stroke: #0000ff"/>
     <use xlink:href="#mf4a4bc4c3e" x="124.435028" y="334.684585" style="fill: #0000ff; stroke: #0000ff"/>
     <use xlink:href="#mf4a4bc4c3e" x="116.222411" y="349.158074" style="fill: #0000ff; stroke: #0000ff"/>
     <use xlink:href="#mf4a4bc4c3e" x="96.170553" y="366.583273" style="fill: #0000ff; stroke: #0000ff"/>
     <use xlink:href="#mf4a4bc4c3e" x="92.290909" y="368.279715" style="fill: #0000ff; stroke: #0000ff"/>
     <use xlink:href="#mf4a4bc4c3e" x="110.413487" y="356.091655" style="fill: #0000ff; stroke: #0000ff"/>
     <use xlink:href="#mf4a4bc4c3e" x="142.093735" y="335.747639" style="fill: #0000ff; stroke: #0000ff"/>
     <use xlink:href="#mf4a4bc4c3e" x="139.273613" y="332.527706" style="fill: #0000ff; stroke: #0000ff"/>
     <use xlink:href="#mf4a4bc4c3e" x="94.47848" y="365.474802" style="fill: #0000ff; stroke: #0000ff"/>
     <use xlink:href="#mf4a4bc4c3e" x="143.153258" y="332.179181" style="fill: #0000ff; stroke: #0000ff"/>
     <use xlink:href="#mf4a4bc4c3e" x="108.473665" y="354.892098" style="fill: #0000ff; stroke: #0000ff"/>
     <use xlink:href="#mf4a4bc4c3e" x="122.948534" y="336.491669" style="fill: #0000ff; stroke: #0000ff"/>
     <use xlink:href="#mf4a4bc4c3e" x="125.731757" y="336.041757" style="fill: #0000ff; stroke: #0000ff"/>
     <use xlink:href="#mf4a4bc4c3e" x="132.679272" y="334.942174" style="fill: #0000ff; stroke: #0000ff"/>
     <use xlink:href="#mf4a4bc4c3e" x="118.299286" y="352.076017" style="fill: #0000ff; stroke: #0000ff"/>
     <use xlink:href="#mf4a4bc4c3e" x="94.262359" y="369.284066" style="fill: #0000ff; stroke: #0000ff"/>
     <use xlink:href="#mf4a4bc4c3e" x="141.592966" y="334.435609" style="fill: #0000ff; stroke: #0000ff"/>
     <use xlink:href="#mf4a4bc4c3e" x="133.538487" y="340.744931" style="fill: #0000ff; stroke: #0000ff"/>
     <use xlink:href="#mf4a4bc4c3e" x="106.913373" y="355.195333" style="fill: #0000ff; stroke: #0000ff"/>
     <use xlink:href="#mf4a4bc4c3e" x="140.048488" y="332.622995" style="fill: #0000ff; stroke: #0000ff"/>
     <use xlink:href="#mf4a4bc4c3e" x="116.412176" y="353.15516" style="fill: #0000ff; stroke: #0000ff"/>
     <use xlink:href="#mf4a4bc4c3e" x="103.423802" y="356.263027" style="fill: #0000ff; stroke: #0000ff"/>
     <use xlink:href="#mf4a4bc4c3e" x="127.228794" y="340.899939" style="fill: #0000ff; stroke: #0000ff"/>
     <use xlink:href="#mf4a4bc4c3e" x="143.105816" y="337.46331" style="fill: #0000ff; stroke: #0000ff"/>
     <use xlink:href="#mf4a4bc4c3e" x="96.539541" y="364.642953" style="fill: #0000ff; stroke: #0000ff"/>
     <use xlink:href="#mf4a4bc4c3e" x="124.862" y="340.202699" style="fill: #0000ff; stroke: #0000ff"/>
     <use xlink:href="#mf4a4bc4c3e" x="106.623454" y="353.400864" style="fill: #0000ff; stroke: #0000ff"/>
     <use xlink:href="#mf4a4bc4c3e" x="106.43896" y="353.487431" style="fill: #0000ff; stroke: #0000ff"/>
     <use xlink:href="#mf4a4bc4c3e" x="140.301508" y="335.145917" style="fill: #0000ff; stroke: #0000ff"/>
     <use xlink:href="#mf4a4bc4c3e" x="106.465316" y="354.632339" style="fill: #0000ff; stroke: #0000ff"/>
     <use xlink:href="#mf4a4bc4c3e" x="135.947451" y="338.199198" style="fill: #0000ff; stroke: #0000ff"/>
     <use xlink:href="#mf4a4bc4c3e" x="128.035296" y="338.320186" style="fill: #0000ff; stroke: #0000ff"/>
     <use xlink:href="#mf4a4bc4c3e" x="131.145337" y="334.879423" style="fill: #0000ff; stroke: #0000ff"/>
     <use xlink:href="#mf4a4bc4c3e" x="173.684372" y="303.950659" style="fill: #0000ff; stroke: #0000ff"/>
     <use xlink:href="#mf4a4bc4c3e" x="170.553246" y="306.05743" style="fill: #0000ff; stroke: #0000ff"/>
     <use xlink:href="#mf4a4bc4c3e" x="129.558689" y="337.161579" style="fill: #0000ff; stroke: #0000ff"/>
     <use xlink:href="#mf4a4bc4c3e" x="97.024497" y="365.09507" style="fill: #0000ff; stroke: #0000ff"/>
     <use xlink:href="#mf4a4bc4c3e" x="190.805412" y="302.441913" style="fill: #0000ff; stroke: #0000ff"/>
     <use xlink:href="#mf4a4bc4c3e" x="147.744522" y="333.086785" style="fill: #0000ff; stroke: #0000ff"/>
     <use xlink:href="#mf4a4bc4c3e" x="107.018798" y="351.484039" style="fill: #0000ff; stroke: #0000ff"/>
     <use xlink:href="#mf4a4bc4c3e" x="120.355076" y="338.439355" style="fill: #0000ff; stroke: #0000ff"/>
     <use xlink:href="#mf4a4bc4c3e" x="169.367214" y="305.907756" style="fill: #0000ff; stroke: #0000ff"/>
     <use xlink:href="#mf4a4bc4c3e" x="109.802021" y="355.0692" style="fill: #0000ff; stroke: #0000ff"/>
     <use xlink:href="#mf4a4bc4c3e" x="123.744493" y="339.698057" style="fill: #0000ff; stroke: #0000ff"/>
     <use xlink:href="#mf4a4bc4c3e" x="143.590772" y="333.846576" style="fill: #0000ff; stroke: #0000ff"/>
     <use xlink:href="#mf4a4bc4c3e" x="149.884652" y="308.40979" style="fill: #0000ff; stroke: #0000ff"/>
     <use xlink:href="#mf4a4bc4c3e" x="436.340514" y="116.937806" style="fill: #0000ff; stroke: #0000ff"/>
     <use xlink:href="#mf4a4bc4c3e" x="340.366757" y="117.305589" style="fill: #0000ff; stroke: #0000ff"/>
     <use xlink:href="#mf4a4bc4c3e" x="174.701725" y="304.553214" style="fill: #0000ff; stroke: #0000ff"/>
     <use xlink:href="#mf4a4bc4c3e" x="221.842567" y="248.949665" style="fill: #0000ff; stroke: #0000ff"/>
     <use xlink:href="#mf4a4bc4c3e" x="425.903427" y="125.128992" style="fill: #0000ff; stroke: #0000ff"/>
     <use xlink:href="#mf4a4bc4c3e" x="440.346668" y="102.732189" style="fill: #0000ff; stroke: #0000ff"/>
     <use xlink:href="#mf4a4bc4c3e" x="177.959361" y="299.511424" style="fill: #0000ff; stroke: #0000ff"/>
     <use xlink:href="#mf4a4bc4c3e" x="281.32869" y="236.093515" style="fill: #0000ff; stroke: #0000ff"/>
     <use xlink:href="#mf4a4bc4c3e" x="448.163941" y="106.522173" style="fill: #0000ff; stroke: #0000ff"/>
     <use xlink:href="#mf4a4bc4c3e" x="188.085443" y="301.195653" style="fill: #0000ff; stroke: #0000ff"/>
     <use xlink:href="#mf4a4bc4c3e" x="303.114791" y="236.262751" style="fill: #0000ff; stroke: #0000ff"/>
     <use xlink:href="#mf4a4bc4c3e" x="381.440383" y="130.335149" style="fill: #0000ff; stroke: #0000ff"/>
     <use xlink:href="#mf4a4bc4c3e" x="163.189302" y="309.174145" style="fill: #0000ff; stroke: #0000ff"/>
     <use xlink:href="#mf4a4bc4c3e" x="361.472865" y="123.675796" style="fill: #0000ff; stroke: #0000ff"/>
     <use xlink:href="#mf4a4bc4c3e" x="279.088406" y="238.727797" style="fill: #0000ff; stroke: #0000ff"/>
     <use xlink:href="#mf4a4bc4c3e" x="393.906903" y="123.979376" style="fill: #0000ff; stroke: #0000ff"/>
     <use xlink:href="#mf4a4bc4c3e" x="352.954516" y="123.159499" style="fill: #0000ff; stroke: #0000ff"/>
     <use xlink:href="#mf4a4bc4c3e" x="263.691068" y="247.254464" style="fill: #0000ff; stroke: #0000ff"/>
     <use xlink:href="#mf4a4bc4c3e" x="449.29199" y="106.10957" style="fill: #0000ff; stroke: #0000ff"/>
     <use xlink:href="#mf4a4bc4c3e" x="224.694316" y="243.789355" style="fill: #0000ff; stroke: #0000ff"/>
     <use xlink:href="#mf4a4bc4c3e" x="264.007343" y="235.699309" style="fill: #0000ff; stroke: #0000ff"/>
     <use xlink:href="#mf4a4bc4c3e" x="288.028456" y="242.41087" style="fill: #0000ff; stroke: #0000ff"/>
     <use xlink:href="#mf4a4bc4c3e" x="450.251358" y="108.969798" style="fill: #0000ff; stroke: #0000ff"/>
     <use xlink:href="#mf4a4bc4c3e" x="483.502441" y="108.222502" style="fill: #0000ff; stroke: #0000ff"/>
     <use xlink:href="#mf4a4bc4c3e" x="338.711582" y="125.348014" style="fill: #0000ff; stroke: #0000ff"/>
     <use xlink:href="#mf4a4bc4c3e" x="257.929585" y="246.848521" style="fill: #0000ff; stroke: #0000ff"/>
     <use xlink:href="#mf4a4bc4c3e" x="359.148242" y="126.608651" style="fill: #0000ff; stroke: #0000ff"/>
     <use xlink:href="#mf4a4bc4c3e" x="302.956653" y="237.320414" style="fill: #0000ff; stroke: #0000ff"/>
    </g>
   </g>
   <g id="matplotlib.axis_1">
    <g id="xtick_1">
     <g id="line2d_1">
      <defs>
       <path id="m7fdf6b0b85" d="M 0 0 
L 0 3.5 
" style="stroke: #000000; stroke-width: 0.8"/>
      </defs>
      <g>
       <use xlink:href="#m7fdf6b0b85" x="91.231387" y="384.48" style="stroke: #000000; stroke-width: 0.8"/>
      </g>
     </g>
     <g id="text_1">
      <!-- 0 -->
      <g transform="translate(88.050137 399.078438) scale(0.1 -0.1)">
       <defs>
        <path id="DejaVuSans-30" d="M 2034 4250 
Q 1547 4250 1301 3770 
Q 1056 3291 1056 2328 
Q 1056 1369 1301 889 
Q 1547 409 2034 409 
Q 2525 409 2770 889 
Q 3016 1369 3016 2328 
Q 3016 3291 2770 3770 
Q 2525 4250 2034 4250 
z
M 2034 4750 
Q 2819 4750 3233 4129 
Q 3647 3509 3647 2328 
Q 3647 1150 3233 529 
Q 2819 -91 2034 -91 
Q 1250 -91 836 529 
Q 422 1150 422 2328 
Q 422 3509 836 4129 
Q 1250 4750 2034 4750 
z
" transform="scale(0.015625)"/>
       </defs>
       <use xlink:href="#DejaVuSans-30"/>
      </g>
     </g>
    </g>
    <g id="xtick_2">
     <g id="line2d_2">
      <g>
       <use xlink:href="#m7fdf6b0b85" x="143.943946" y="384.48" style="stroke: #000000; stroke-width: 0.8"/>
      </g>
     </g>
     <g id="text_2">
      <!-- 10000 -->
      <g transform="translate(128.037696 399.078438) scale(0.1 -0.1)">
       <defs>
        <path id="DejaVuSans-31" d="M 794 531 
L 1825 531 
L 1825 4091 
L 703 3866 
L 703 4441 
L 1819 4666 
L 2450 4666 
L 2450 531 
L 3481 531 
L 3481 0 
L 794 0 
L 794 531 
z
" transform="scale(0.015625)"/>
       </defs>
       <use xlink:href="#DejaVuSans-31"/>
       <use xlink:href="#DejaVuSans-30" x="63.623047"/>
       <use xlink:href="#DejaVuSans-30" x="127.246094"/>
       <use xlink:href="#DejaVuSans-30" x="190.869141"/>
       <use xlink:href="#DejaVuSans-30" x="254.492188"/>
      </g>
     </g>
    </g>
    <g id="xtick_3">
     <g id="line2d_3">
      <g>
       <use xlink:href="#m7fdf6b0b85" x="196.656506" y="384.48" style="stroke: #000000; stroke-width: 0.8"/>
      </g>
     </g>
     <g id="text_3">
      <!-- 20000 -->
      <g transform="translate(180.750256 399.078438) scale(0.1 -0.1)">
       <defs>
        <path id="DejaVuSans-32" d="M 1228 531 
L 3431 531 
L 3431 0 
L 469 0 
L 469 531 
Q 828 903 1448 1529 
Q 2069 2156 2228 2338 
Q 2531 2678 2651 2914 
Q 2772 3150 2772 3378 
Q 2772 3750 2511 3984 
Q 2250 4219 1831 4219 
Q 1534 4219 1204 4116 
Q 875 4013 500 3803 
L 500 4441 
Q 881 4594 1212 4672 
Q 1544 4750 1819 4750 
Q 2544 4750 2975 4387 
Q 3406 4025 3406 3419 
Q 3406 3131 3298 2873 
Q 3191 2616 2906 2266 
Q 2828 2175 2409 1742 
Q 1991 1309 1228 531 
z
" transform="scale(0.015625)"/>
       </defs>
       <use xlink:href="#DejaVuSans-32"/>
       <use xlink:href="#DejaVuSans-30" x="63.623047"/>
       <use xlink:href="#DejaVuSans-30" x="127.246094"/>
       <use xlink:href="#DejaVuSans-30" x="190.869141"/>
       <use xlink:href="#DejaVuSans-30" x="254.492188"/>
      </g>
     </g>
    </g>
    <g id="xtick_4">
     <g id="line2d_4">
      <g>
       <use xlink:href="#m7fdf6b0b85" x="249.369065" y="384.48" style="stroke: #000000; stroke-width: 0.8"/>
      </g>
     </g>
     <g id="text_4">
      <!-- 30000 -->
      <g transform="translate(233.462815 399.078438) scale(0.1 -0.1)">
       <defs>
        <path id="DejaVuSans-33" d="M 2597 2516 
Q 3050 2419 3304 2112 
Q 3559 1806 3559 1356 
Q 3559 666 3084 287 
Q 2609 -91 1734 -91 
Q 1441 -91 1130 -33 
Q 819 25 488 141 
L 488 750 
Q 750 597 1062 519 
Q 1375 441 1716 441 
Q 2309 441 2620 675 
Q 2931 909 2931 1356 
Q 2931 1769 2642 2001 
Q 2353 2234 1838 2234 
L 1294 2234 
L 1294 2753 
L 1863 2753 
Q 2328 2753 2575 2939 
Q 2822 3125 2822 3475 
Q 2822 3834 2567 4026 
Q 2313 4219 1838 4219 
Q 1578 4219 1281 4162 
Q 984 4106 628 3988 
L 628 4550 
Q 988 4650 1302 4700 
Q 1616 4750 1894 4750 
Q 2613 4750 3031 4423 
Q 3450 4097 3450 3541 
Q 3450 3153 3228 2886 
Q 3006 2619 2597 2516 
z
" transform="scale(0.015625)"/>
       </defs>
       <use xlink:href="#DejaVuSans-33"/>
       <use xlink:href="#DejaVuSans-30" x="63.623047"/>
       <use xlink:href="#DejaVuSans-30" x="127.246094"/>
       <use xlink:href="#DejaVuSans-30" x="190.869141"/>
       <use xlink:href="#DejaVuSans-30" x="254.492188"/>
      </g>
     </g>
    </g>
    <g id="xtick_5">
     <g id="line2d_5">
      <g>
       <use xlink:href="#m7fdf6b0b85" x="302.081625" y="384.48" style="stroke: #000000; stroke-width: 0.8"/>
      </g>
     </g>
     <g id="text_5">
      <!-- 40000 -->
      <g transform="translate(286.175375 399.078438) scale(0.1 -0.1)">
       <defs>
        <path id="DejaVuSans-34" d="M 2419 4116 
L 825 1625 
L 2419 1625 
L 2419 4116 
z
M 2253 4666 
L 3047 4666 
L 3047 1625 
L 3713 1625 
L 3713 1100 
L 3047 1100 
L 3047 0 
L 2419 0 
L 2419 1100 
L 313 1100 
L 313 1709 
L 2253 4666 
z
" transform="scale(0.015625)"/>
       </defs>
       <use xlink:href="#DejaVuSans-34"/>
       <use xlink:href="#DejaVuSans-30" x="63.623047"/>
       <use xlink:href="#DejaVuSans-30" x="127.246094"/>
       <use xlink:href="#DejaVuSans-30" x="190.869141"/>
       <use xlink:href="#DejaVuSans-30" x="254.492188"/>
      </g>
     </g>
    </g>
    <g id="xtick_6">
     <g id="line2d_6">
      <g>
       <use xlink:href="#m7fdf6b0b85" x="354.794184" y="384.48" style="stroke: #000000; stroke-width: 0.8"/>
      </g>
     </g>
     <g id="text_6">
      <!-- 50000 -->
      <g transform="translate(338.887934 399.078438) scale(0.1 -0.1)">
       <defs>
        <path id="DejaVuSans-35" d="M 691 4666 
L 3169 4666 
L 3169 4134 
L 1269 4134 
L 1269 2991 
Q 1406 3038 1543 3061 
Q 1681 3084 1819 3084 
Q 2600 3084 3056 2656 
Q 3513 2228 3513 1497 
Q 3513 744 3044 326 
Q 2575 -91 1722 -91 
Q 1428 -91 1123 -41 
Q 819 9 494 109 
L 494 744 
Q 775 591 1075 516 
Q 1375 441 1709 441 
Q 2250 441 2565 725 
Q 2881 1009 2881 1497 
Q 2881 1984 2565 2268 
Q 2250 2553 1709 2553 
Q 1456 2553 1204 2497 
Q 953 2441 691 2322 
L 691 4666 
z
" transform="scale(0.015625)"/>
       </defs>
       <use xlink:href="#DejaVuSans-35"/>
       <use xlink:href="#DejaVuSans-30" x="63.623047"/>
       <use xlink:href="#DejaVuSans-30" x="127.246094"/>
       <use xlink:href="#DejaVuSans-30" x="190.869141"/>
       <use xlink:href="#DejaVuSans-30" x="254.492188"/>
      </g>
     </g>
    </g>
    <g id="xtick_7">
     <g id="line2d_7">
      <g>
       <use xlink:href="#m7fdf6b0b85" x="407.506744" y="384.48" style="stroke: #000000; stroke-width: 0.8"/>
      </g>
     </g>
     <g id="text_7">
      <!-- 60000 -->
      <g transform="translate(391.600494 399.078438) scale(0.1 -0.1)">
       <defs>
        <path id="DejaVuSans-36" d="M 2113 2584 
Q 1688 2584 1439 2293 
Q 1191 2003 1191 1497 
Q 1191 994 1439 701 
Q 1688 409 2113 409 
Q 2538 409 2786 701 
Q 3034 994 3034 1497 
Q 3034 2003 2786 2293 
Q 2538 2584 2113 2584 
z
M 3366 4563 
L 3366 3988 
Q 3128 4100 2886 4159 
Q 2644 4219 2406 4219 
Q 1781 4219 1451 3797 
Q 1122 3375 1075 2522 
Q 1259 2794 1537 2939 
Q 1816 3084 2150 3084 
Q 2853 3084 3261 2657 
Q 3669 2231 3669 1497 
Q 3669 778 3244 343 
Q 2819 -91 2113 -91 
Q 1303 -91 875 529 
Q 447 1150 447 2328 
Q 447 3434 972 4092 
Q 1497 4750 2381 4750 
Q 2619 4750 2861 4703 
Q 3103 4656 3366 4563 
z
" transform="scale(0.015625)"/>
       </defs>
       <use xlink:href="#DejaVuSans-36"/>
       <use xlink:href="#DejaVuSans-30" x="63.623047"/>
       <use xlink:href="#DejaVuSans-30" x="127.246094"/>
       <use xlink:href="#DejaVuSans-30" x="190.869141"/>
       <use xlink:href="#DejaVuSans-30" x="254.492188"/>
      </g>
     </g>
    </g>
    <g id="xtick_8">
     <g id="line2d_8">
      <g>
       <use xlink:href="#m7fdf6b0b85" x="460.219303" y="384.48" style="stroke: #000000; stroke-width: 0.8"/>
      </g>
     </g>
     <g id="text_8">
      <!-- 70000 -->
      <g transform="translate(444.313053 399.078438) scale(0.1 -0.1)">
       <defs>
        <path id="DejaVuSans-37" d="M 525 4666 
L 3525 4666 
L 3525 4397 
L 1831 0 
L 1172 0 
L 2766 4134 
L 525 4134 
L 525 4666 
z
" transform="scale(0.015625)"/>
       </defs>
       <use xlink:href="#DejaVuSans-37"/>
       <use xlink:href="#DejaVuSans-30" x="63.623047"/>
       <use xlink:href="#DejaVuSans-30" x="127.246094"/>
       <use xlink:href="#DejaVuSans-30" x="190.869141"/>
       <use xlink:href="#DejaVuSans-30" x="254.492188"/>
      </g>
     </g>
    </g>
    <g id="xtick_9">
     <g id="line2d_9">
      <g>
       <use xlink:href="#m7fdf6b0b85" x="512.931863" y="384.48" style="stroke: #000000; stroke-width: 0.8"/>
      </g>
     </g>
     <g id="text_9">
      <!-- 80000 -->
      <g transform="translate(497.025613 399.078438) scale(0.1 -0.1)">
       <defs>
        <path id="DejaVuSans-38" d="M 2034 2216 
Q 1584 2216 1326 1975 
Q 1069 1734 1069 1313 
Q 1069 891 1326 650 
Q 1584 409 2034 409 
Q 2484 409 2743 651 
Q 3003 894 3003 1313 
Q 3003 1734 2745 1975 
Q 2488 2216 2034 2216 
z
M 1403 2484 
Q 997 2584 770 2862 
Q 544 3141 544 3541 
Q 544 4100 942 4425 
Q 1341 4750 2034 4750 
Q 2731 4750 3128 4425 
Q 3525 4100 3525 3541 
Q 3525 3141 3298 2862 
Q 3072 2584 2669 2484 
Q 3125 2378 3379 2068 
Q 3634 1759 3634 1313 
Q 3634 634 3220 271 
Q 2806 -91 2034 -91 
Q 1263 -91 848 271 
Q 434 634 434 1313 
Q 434 1759 690 2068 
Q 947 2378 1403 2484 
z
M 1172 3481 
Q 1172 3119 1398 2916 
Q 1625 2713 2034 2713 
Q 2441 2713 2670 2916 
Q 2900 3119 2900 3481 
Q 2900 3844 2670 4047 
Q 2441 4250 2034 4250 
Q 1625 4250 1398 4047 
Q 1172 3844 1172 3481 
z
" transform="scale(0.015625)"/>
       </defs>
       <use xlink:href="#DejaVuSans-38"/>
       <use xlink:href="#DejaVuSans-30" x="63.623047"/>
       <use xlink:href="#DejaVuSans-30" x="127.246094"/>
       <use xlink:href="#DejaVuSans-30" x="190.869141"/>
       <use xlink:href="#DejaVuSans-30" x="254.492188"/>
      </g>
     </g>
    </g>
    <g id="text_10">
     <!-- iterations -->
     <g transform="translate(271.472656 412.756563) scale(0.1 -0.1)">
      <defs>
       <path id="DejaVuSans-69" d="M 603 3500 
L 1178 3500 
L 1178 0 
L 603 0 
L 603 3500 
z
M 603 4863 
L 1178 4863 
L 1178 4134 
L 603 4134 
L 603 4863 
z
" transform="scale(0.015625)"/>
       <path id="DejaVuSans-74" d="M 1172 4494 
L 1172 3500 
L 2356 3500 
L 2356 3053 
L 1172 3053 
L 1172 1153 
Q 1172 725 1289 603 
Q 1406 481 1766 481 
L 2356 481 
L 2356 0 
L 1766 0 
Q 1100 0 847 248 
Q 594 497 594 1153 
L 594 3053 
L 172 3053 
L 172 3500 
L 594 3500 
L 594 4494 
L 1172 4494 
z
" transform="scale(0.015625)"/>
       <path id="DejaVuSans-65" d="M 3597 1894 
L 3597 1613 
L 953 1613 
Q 991 1019 1311 708 
Q 1631 397 2203 397 
Q 2534 397 2845 478 
Q 3156 559 3463 722 
L 3463 178 
Q 3153 47 2828 -22 
Q 2503 -91 2169 -91 
Q 1331 -91 842 396 
Q 353 884 353 1716 
Q 353 2575 817 3079 
Q 1281 3584 2069 3584 
Q 2775 3584 3186 3129 
Q 3597 2675 3597 1894 
z
M 3022 2063 
Q 3016 2534 2758 2815 
Q 2500 3097 2075 3097 
Q 1594 3097 1305 2825 
Q 1016 2553 972 2059 
L 3022 2063 
z
" transform="scale(0.015625)"/>
       <path id="DejaVuSans-72" d="M 2631 2963 
Q 2534 3019 2420 3045 
Q 2306 3072 2169 3072 
Q 1681 3072 1420 2755 
Q 1159 2438 1159 1844 
L 1159 0 
L 581 0 
L 581 3500 
L 1159 3500 
L 1159 2956 
Q 1341 3275 1631 3429 
Q 1922 3584 2338 3584 
Q 2397 3584 2469 3576 
Q 2541 3569 2628 3553 
L 2631 2963 
z
" transform="scale(0.015625)"/>
       <path id="DejaVuSans-61" d="M 2194 1759 
Q 1497 1759 1228 1600 
Q 959 1441 959 1056 
Q 959 750 1161 570 
Q 1363 391 1709 391 
Q 2188 391 2477 730 
Q 2766 1069 2766 1631 
L 2766 1759 
L 2194 1759 
z
M 3341 1997 
L 3341 0 
L 2766 0 
L 2766 531 
Q 2569 213 2275 61 
Q 1981 -91 1556 -91 
Q 1019 -91 701 211 
Q 384 513 384 1019 
Q 384 1609 779 1909 
Q 1175 2209 1959 2209 
L 2766 2209 
L 2766 2266 
Q 2766 2663 2505 2880 
Q 2244 3097 1772 3097 
Q 1472 3097 1187 3025 
Q 903 2953 641 2809 
L 641 3341 
Q 956 3463 1253 3523 
Q 1550 3584 1831 3584 
Q 2591 3584 2966 3190 
Q 3341 2797 3341 1997 
z
" transform="scale(0.015625)"/>
       <path id="DejaVuSans-6f" d="M 1959 3097 
Q 1497 3097 1228 2736 
Q 959 2375 959 1747 
Q 959 1119 1226 758 
Q 1494 397 1959 397 
Q 2419 397 2687 759 
Q 2956 1122 2956 1747 
Q 2956 2369 2687 2733 
Q 2419 3097 1959 3097 
z
M 1959 3584 
Q 2709 3584 3137 3096 
Q 3566 2609 3566 1747 
Q 3566 888 3137 398 
Q 2709 -91 1959 -91 
Q 1206 -91 779 398 
Q 353 888 353 1747 
Q 353 2609 779 3096 
Q 1206 3584 1959 3584 
z
" transform="scale(0.015625)"/>
       <path id="DejaVuSans-6e" d="M 3513 2113 
L 3513 0 
L 2938 0 
L 2938 2094 
Q 2938 2591 2744 2837 
Q 2550 3084 2163 3084 
Q 1697 3084 1428 2787 
Q 1159 2491 1159 1978 
L 1159 0 
L 581 0 
L 581 3500 
L 1159 3500 
L 1159 2956 
Q 1366 3272 1645 3428 
Q 1925 3584 2291 3584 
Q 2894 3584 3203 3211 
Q 3513 2838 3513 2113 
z
" transform="scale(0.015625)"/>
       <path id="DejaVuSans-73" d="M 2834 3397 
L 2834 2853 
Q 2591 2978 2328 3040 
Q 2066 3103 1784 3103 
Q 1356 3103 1142 2972 
Q 928 2841 928 2578 
Q 928 2378 1081 2264 
Q 1234 2150 1697 2047 
L 1894 2003 
Q 2506 1872 2764 1633 
Q 3022 1394 3022 966 
Q 3022 478 2636 193 
Q 2250 -91 1575 -91 
Q 1294 -91 989 -36 
Q 684 19 347 128 
L 347 722 
Q 666 556 975 473 
Q 1284 391 1588 391 
Q 1994 391 2212 530 
Q 2431 669 2431 922 
Q 2431 1156 2273 1281 
Q 2116 1406 1581 1522 
L 1381 1569 
Q 847 1681 609 1914 
Q 372 2147 372 2553 
Q 372 3047 722 3315 
Q 1072 3584 1716 3584 
Q 2034 3584 2315 3537 
Q 2597 3491 2834 3397 
z
" transform="scale(0.015625)"/>
      </defs>
      <use xlink:href="#DejaVuSans-69"/>
      <use xlink:href="#DejaVuSans-74" x="27.783203"/>
      <use xlink:href="#DejaVuSans-65" x="66.992188"/>
      <use xlink:href="#DejaVuSans-72" x="128.515625"/>
      <use xlink:href="#DejaVuSans-61" x="169.628906"/>
      <use xlink:href="#DejaVuSans-74" x="230.908203"/>
      <use xlink:href="#DejaVuSans-69" x="270.117188"/>
      <use xlink:href="#DejaVuSans-6f" x="297.900391"/>
      <use xlink:href="#DejaVuSans-6e" x="359.082031"/>
      <use xlink:href="#DejaVuSans-73" x="422.460938"/>
     </g>
    </g>
   </g>
   <g id="matplotlib.axis_2">
    <g id="ytick_1">
     <g id="line2d_10">
      <defs>
       <path id="m4e58b53bfc" d="M 0 0 
L -3.5 0 
" style="stroke: #000000; stroke-width: 0.8"/>
      </defs>
      <g>
       <use xlink:href="#m4e58b53bfc" x="72" y="377.613943" style="stroke: #000000; stroke-width: 0.8"/>
      </g>
     </g>
     <g id="text_11">
      <!-- 0 -->
      <g transform="translate(58.6375 381.413162) scale(0.1 -0.1)">
       <use xlink:href="#DejaVuSans-30"/>
      </g>
     </g>
    </g>
    <g id="ytick_2">
     <g id="line2d_11">
      <g>
       <use xlink:href="#m4e58b53bfc" x="72" y="320.197167" style="stroke: #000000; stroke-width: 0.8"/>
      </g>
     </g>
     <g id="text_12">
      <!-- 10 -->
      <g transform="translate(52.275 323.996385) scale(0.1 -0.1)">
       <use xlink:href="#DejaVuSans-31"/>
       <use xlink:href="#DejaVuSans-30" x="63.623047"/>
      </g>
     </g>
    </g>
    <g id="ytick_3">
     <g id="line2d_12">
      <g>
       <use xlink:href="#m4e58b53bfc" x="72" y="262.78039" style="stroke: #000000; stroke-width: 0.8"/>
      </g>
     </g>
     <g id="text_13">
      <!-- 20 -->
      <g transform="translate(52.275 266.579609) scale(0.1 -0.1)">
       <use xlink:href="#DejaVuSans-32"/>
       <use xlink:href="#DejaVuSans-30" x="63.623047"/>
      </g>
     </g>
    </g>
    <g id="ytick_4">
     <g id="line2d_13">
      <g>
       <use xlink:href="#m4e58b53bfc" x="72" y="205.363614" style="stroke: #000000; stroke-width: 0.8"/>
      </g>
     </g>
     <g id="text_14">
      <!-- 30 -->
      <g transform="translate(52.275 209.162833) scale(0.1 -0.1)">
       <use xlink:href="#DejaVuSans-33"/>
       <use xlink:href="#DejaVuSans-30" x="63.623047"/>
      </g>
     </g>
    </g>
    <g id="ytick_5">
     <g id="line2d_14">
      <g>
       <use xlink:href="#m4e58b53bfc" x="72" y="147.946838" style="stroke: #000000; stroke-width: 0.8"/>
      </g>
     </g>
     <g id="text_15">
      <!-- 40 -->
      <g transform="translate(52.275 151.746057) scale(0.1 -0.1)">
       <use xlink:href="#DejaVuSans-34"/>
       <use xlink:href="#DejaVuSans-30" x="63.623047"/>
      </g>
     </g>
    </g>
    <g id="ytick_6">
     <g id="line2d_15">
      <g>
       <use xlink:href="#m4e58b53bfc" x="72" y="90.530062" style="stroke: #000000; stroke-width: 0.8"/>
      </g>
     </g>
     <g id="text_16">
      <!-- 50 -->
      <g transform="translate(52.275 94.32928) scale(0.1 -0.1)">
       <use xlink:href="#DejaVuSans-35"/>
       <use xlink:href="#DejaVuSans-30" x="63.623047"/>
      </g>
     </g>
    </g>
    <g id="text_17">
     <!-- time taken (in s) -->
     <g transform="translate(46.195312 259.270937) rotate(-90) scale(0.1 -0.1)">
      <defs>
       <path id="DejaVuSans-6d" d="M 3328 2828 
Q 3544 3216 3844 3400 
Q 4144 3584 4550 3584 
Q 5097 3584 5394 3201 
Q 5691 2819 5691 2113 
L 5691 0 
L 5113 0 
L 5113 2094 
Q 5113 2597 4934 2840 
Q 4756 3084 4391 3084 
Q 3944 3084 3684 2787 
Q 3425 2491 3425 1978 
L 3425 0 
L 2847 0 
L 2847 2094 
Q 2847 2600 2669 2842 
Q 2491 3084 2119 3084 
Q 1678 3084 1418 2786 
Q 1159 2488 1159 1978 
L 1159 0 
L 581 0 
L 581 3500 
L 1159 3500 
L 1159 2956 
Q 1356 3278 1631 3431 
Q 1906 3584 2284 3584 
Q 2666 3584 2933 3390 
Q 3200 3197 3328 2828 
z
" transform="scale(0.015625)"/>
       <path id="DejaVuSans-20" transform="scale(0.015625)"/>
       <path id="DejaVuSans-6b" d="M 581 4863 
L 1159 4863 
L 1159 1991 
L 2875 3500 
L 3609 3500 
L 1753 1863 
L 3688 0 
L 2938 0 
L 1159 1709 
L 1159 0 
L 581 0 
L 581 4863 
z
" transform="scale(0.015625)"/>
       <path id="DejaVuSans-28" d="M 1984 4856 
Q 1566 4138 1362 3434 
Q 1159 2731 1159 2009 
Q 1159 1288 1364 580 
Q 1569 -128 1984 -844 
L 1484 -844 
Q 1016 -109 783 600 
Q 550 1309 550 2009 
Q 550 2706 781 3412 
Q 1013 4119 1484 4856 
L 1984 4856 
z
" transform="scale(0.015625)"/>
       <path id="DejaVuSans-29" d="M 513 4856 
L 1013 4856 
Q 1481 4119 1714 3412 
Q 1947 2706 1947 2009 
Q 1947 1309 1714 600 
Q 1481 -109 1013 -844 
L 513 -844 
Q 928 -128 1133 580 
Q 1338 1288 1338 2009 
Q 1338 2731 1133 3434 
Q 928 4138 513 4856 
z
" transform="scale(0.015625)"/>
      </defs>
      <use xlink:href="#DejaVuSans-74"/>
      <use xlink:href="#DejaVuSans-69" x="39.208984"/>
      <use xlink:href="#DejaVuSans-6d" x="66.992188"/>
      <use xlink:href="#DejaVuSans-65" x="164.404297"/>
      <use xlink:href="#DejaVuSans-20" x="225.927734"/>
      <use xlink:href="#DejaVuSans-74" x="257.714844"/>
      <use xlink:href="#DejaVuSans-61" x="296.923828"/>
      <use xlink:href="#DejaVuSans-6b" x="358.203125"/>
      <use xlink:href="#DejaVuSans-65" x="412.488281"/>
      <use xlink:href="#DejaVuSans-6e" x="474.011719"/>
      <use xlink:href="#DejaVuSans-20" x="537.390625"/>
      <use xlink:href="#DejaVuSans-28" x="569.177734"/>
      <use xlink:href="#DejaVuSans-69" x="608.191406"/>
      <use xlink:href="#DejaVuSans-6e" x="635.974609"/>
      <use xlink:href="#DejaVuSans-20" x="699.353516"/>
      <use xlink:href="#DejaVuSans-73" x="731.140625"/>
      <use xlink:href="#DejaVuSans-29" x="783.240234"/>
     </g>
    </g>
   </g>
   <g id="line2d_16">
    <path d="M 143.870149 329.326735 
L 95.69614 361.137413 
L 142.605047 330.162118 
L 135.44141 334.892472 
L 130.143798 338.390637 
L 102.037461 356.950057 
L 131.282389 337.638793 
L 116.153885 347.628578 
L 121.346072 344.200028 
L 140.665225 331.443038 
L 124.877813 341.867918 
L 113.481358 349.393324 
L 135.362341 334.944684 
L 117.693092 346.612196 
L 92.290909 363.385985 
L 115.16816 348.27948 
L 143.553873 329.535581 
L 119.722525 345.272103 
L 120.955999 344.457604 
L 141.940869 330.600694 
L 98.837809 359.062879 
L 115.616217 347.983616 
L 128.883968 339.222539 
L 134.85103 335.282318 
L 107.730418 353.190835 
L 92.976172 362.933486 
L 122.864194 343.197569 
L 129.621944 338.735233 
L 93.856472 362.352198 
L 142.452181 330.26306 
L 123.359692 342.870377 
L 134.787775 335.324087 
L 136.02652 334.506108 
L 119.564387 345.376525 
L 157.622855 320.245429 
L 187.832423 300.297185 
L 162.656905 316.921301 
L 107.682976 353.222161 
L 101.125534 357.552229 
L 132.489507 336.841699 
L 127.492356 340.14146 
L 141.007857 331.216788 
L 95.037233 361.572508 
L 155.957138 321.345349 
L 492.779851 98.931661 
L 483.644765 104.963821 
L 249.253098 259.739354 
L 338.421663 200.858795 
L 136.037062 334.499146 
L 235.126132 269.067795 
L 402.662459 158.438757 
L 346.25475 195.686384 
L 132.389353 336.907833 
L 337.530821 201.447044 
L 342.101 198.429224 
L 138.778115 332.68915 
L 244.98338 262.558771 
L 96.212724 360.796298 
L 262.536663 250.967836 
L 133.248568 336.340469 
L 488.425794 101.80677 
L 258.240589 253.804656 
L 180.647701 305.041463 
L 292.219105 231.367669 
L 468.152543 115.193778 
L 212.886703 283.753127 
L 453.087294 125.141794 
L 294.601712 229.794364 
L 199.713834 292.451549 
L 371.150891 179.246748 
L 384.908869 170.161961 
L 134.292277 335.651278 
L 498.109091 95.412612 
L 376.274552 175.863448 
" clip-path="url(#p44450da8e7)" style="fill: none; stroke: #ff0000; stroke-width: 1.5; stroke-linecap: square"/>
   </g>
   <g id="line2d_17">
    <path d="M 99.449275 361.211147 
L 136.021248 333.19069 
L 110.181552 352.988366 
L 105.611373 356.489914 
L 107.777859 354.83001 
L 109.591171 353.4407 
L 127.191895 339.955502 
L 104.915567 357.023021 
L 127.107555 340.020121 
L 108.099406 354.58365 
L 124.435028 342.067738 
L 116.222411 348.360023 
L 96.170553 363.723214 
L 92.290909 366.695693 
L 110.413487 352.810664 
L 142.093735 328.538114 
L 139.273613 330.698816 
L 94.47848 365.019635 
L 143.153258 327.726337 
L 108.473665 354.296903 
L 122.948534 343.20665 
L 125.731757 341.07422 
L 132.679272 335.751221 
L 118.299286 346.768778 
L 94.262359 365.185221 
L 141.592966 328.92179 
L 133.538487 335.092914 
L 106.913373 355.492356 
L 140.048488 330.105128 
L 116.412176 348.21463 
L 103.423802 358.165971 
L 127.228794 339.927231 
L 143.105816 327.762685 
L 96.539541 363.440505 
L 124.862 341.740604 
L 106.623454 355.714484 
L 106.43896 355.855839 
L 140.301508 329.91127 
L 106.465316 355.835645 
L 135.947451 333.247231 
L 128.035296 339.309311 
L 131.145337 336.926481 
L 173.684372 304.334223 
L 170.553246 306.733207 
L 129.558689 338.142128 
L 97.024497 363.068946 
L 190.805412 291.216546 
L 147.744522 324.208635 
L 107.018798 355.411582 
L 120.355076 345.193687 
L 169.367214 307.641913 
L 109.802021 353.279152 
L 123.744493 342.596807 
L 143.590772 327.391125 
L 149.884652 322.568925 
L 436.340514 103.094193 
L 340.366757 176.626689 
L 174.701725 303.554755 
L 221.842567 267.436717 
L 425.903427 111.090806 
L 440.346668 100.024785 
L 177.959361 301.058842 
L 281.32869 221.860059 
L 448.163941 94.035403 
L 188.085443 293.300512 
L 303.114791 205.168138 
L 381.440383 145.157188 
L 163.189302 312.375262 
L 361.472865 160.455759 
L 279.088406 223.576504 
L 393.906903 135.605677 
L 352.954516 166.982289 
L 263.691068 235.373528 
L 449.29199 93.171122 
L 224.694316 265.251784 
L 264.007343 235.131206 
L 288.028456 216.726879 
L 450.251358 92.43608 
L 483.502441 66.96 
L 338.711582 177.894839 
L 257.929585 239.78782 
L 359.148242 162.236823 
L 302.956653 205.289298 
" clip-path="url(#p44450da8e7)" style="fill: none; stroke-dasharray: 5.55,2.4; stroke-dashoffset: 0; stroke: #0000ff; stroke-width: 1.5"/>
   </g>
   <g id="patch_3">
    <path d="M 72 384.48 
L 72 51.84 
" style="fill: none; stroke: #000000; stroke-width: 0.8; stroke-linejoin: miter; stroke-linecap: square"/>
   </g>
   <g id="patch_4">
    <path d="M 518.4 384.48 
L 518.4 51.84 
" style="fill: none; stroke: #000000; stroke-width: 0.8; stroke-linejoin: miter; stroke-linecap: square"/>
   </g>
   <g id="patch_5">
    <path d="M 72 384.48 
L 518.4 384.48 
" style="fill: none; stroke: #000000; stroke-width: 0.8; stroke-linejoin: miter; stroke-linecap: square"/>
   </g>
   <g id="patch_6">
    <path d="M 72 51.84 
L 518.4 51.84 
" style="fill: none; stroke: #000000; stroke-width: 0.8; stroke-linejoin: miter; stroke-linecap: square"/>
   </g>
   <g id="text_18">
    <!-- Benching NOP repeated for given number of iterations, register starks vs old -->
    <g transform="translate(64.816875 32.402625) scale(0.12 -0.12)">
     <defs>
      <path id="DejaVuSans-42" d="M 1259 2228 
L 1259 519 
L 2272 519 
Q 2781 519 3026 730 
Q 3272 941 3272 1375 
Q 3272 1813 3026 2020 
Q 2781 2228 2272 2228 
L 1259 2228 
z
M 1259 4147 
L 1259 2741 
L 2194 2741 
Q 2656 2741 2882 2914 
Q 3109 3088 3109 3444 
Q 3109 3797 2882 3972 
Q 2656 4147 2194 4147 
L 1259 4147 
z
M 628 4666 
L 2241 4666 
Q 2963 4666 3353 4366 
Q 3744 4066 3744 3513 
Q 3744 3084 3544 2831 
Q 3344 2578 2956 2516 
Q 3422 2416 3680 2098 
Q 3938 1781 3938 1306 
Q 3938 681 3513 340 
Q 3088 0 2303 0 
L 628 0 
L 628 4666 
z
" transform="scale(0.015625)"/>
      <path id="DejaVuSans-63" d="M 3122 3366 
L 3122 2828 
Q 2878 2963 2633 3030 
Q 2388 3097 2138 3097 
Q 1578 3097 1268 2742 
Q 959 2388 959 1747 
Q 959 1106 1268 751 
Q 1578 397 2138 397 
Q 2388 397 2633 464 
Q 2878 531 3122 666 
L 3122 134 
Q 2881 22 2623 -34 
Q 2366 -91 2075 -91 
Q 1284 -91 818 406 
Q 353 903 353 1747 
Q 353 2603 823 3093 
Q 1294 3584 2113 3584 
Q 2378 3584 2631 3529 
Q 2884 3475 3122 3366 
z
" transform="scale(0.015625)"/>
      <path id="DejaVuSans-68" d="M 3513 2113 
L 3513 0 
L 2938 0 
L 2938 2094 
Q 2938 2591 2744 2837 
Q 2550 3084 2163 3084 
Q 1697 3084 1428 2787 
Q 1159 2491 1159 1978 
L 1159 0 
L 581 0 
L 581 4863 
L 1159 4863 
L 1159 2956 
Q 1366 3272 1645 3428 
Q 1925 3584 2291 3584 
Q 2894 3584 3203 3211 
Q 3513 2838 3513 2113 
z
" transform="scale(0.015625)"/>
      <path id="DejaVuSans-67" d="M 2906 1791 
Q 2906 2416 2648 2759 
Q 2391 3103 1925 3103 
Q 1463 3103 1205 2759 
Q 947 2416 947 1791 
Q 947 1169 1205 825 
Q 1463 481 1925 481 
Q 2391 481 2648 825 
Q 2906 1169 2906 1791 
z
M 3481 434 
Q 3481 -459 3084 -895 
Q 2688 -1331 1869 -1331 
Q 1566 -1331 1297 -1286 
Q 1028 -1241 775 -1147 
L 775 -588 
Q 1028 -725 1275 -790 
Q 1522 -856 1778 -856 
Q 2344 -856 2625 -561 
Q 2906 -266 2906 331 
L 2906 616 
Q 2728 306 2450 153 
Q 2172 0 1784 0 
Q 1141 0 747 490 
Q 353 981 353 1791 
Q 353 2603 747 3093 
Q 1141 3584 1784 3584 
Q 2172 3584 2450 3431 
Q 2728 3278 2906 2969 
L 2906 3500 
L 3481 3500 
L 3481 434 
z
" transform="scale(0.015625)"/>
      <path id="DejaVuSans-4e" d="M 628 4666 
L 1478 4666 
L 3547 763 
L 3547 4666 
L 4159 4666 
L 4159 0 
L 3309 0 
L 1241 3903 
L 1241 0 
L 628 0 
L 628 4666 
z
" transform="scale(0.015625)"/>
      <path id="DejaVuSans-4f" d="M 2522 4238 
Q 1834 4238 1429 3725 
Q 1025 3213 1025 2328 
Q 1025 1447 1429 934 
Q 1834 422 2522 422 
Q 3209 422 3611 934 
Q 4013 1447 4013 2328 
Q 4013 3213 3611 3725 
Q 3209 4238 2522 4238 
z
M 2522 4750 
Q 3503 4750 4090 4092 
Q 4678 3434 4678 2328 
Q 4678 1225 4090 567 
Q 3503 -91 2522 -91 
Q 1538 -91 948 565 
Q 359 1222 359 2328 
Q 359 3434 948 4092 
Q 1538 4750 2522 4750 
z
" transform="scale(0.015625)"/>
      <path id="DejaVuSans-50" d="M 1259 4147 
L 1259 2394 
L 2053 2394 
Q 2494 2394 2734 2622 
Q 2975 2850 2975 3272 
Q 2975 3691 2734 3919 
Q 2494 4147 2053 4147 
L 1259 4147 
z
M 628 4666 
L 2053 4666 
Q 2838 4666 3239 4311 
Q 3641 3956 3641 3272 
Q 3641 2581 3239 2228 
Q 2838 1875 2053 1875 
L 1259 1875 
L 1259 0 
L 628 0 
L 628 4666 
z
" transform="scale(0.015625)"/>
      <path id="DejaVuSans-70" d="M 1159 525 
L 1159 -1331 
L 581 -1331 
L 581 3500 
L 1159 3500 
L 1159 2969 
Q 1341 3281 1617 3432 
Q 1894 3584 2278 3584 
Q 2916 3584 3314 3078 
Q 3713 2572 3713 1747 
Q 3713 922 3314 415 
Q 2916 -91 2278 -91 
Q 1894 -91 1617 61 
Q 1341 213 1159 525 
z
M 3116 1747 
Q 3116 2381 2855 2742 
Q 2594 3103 2138 3103 
Q 1681 3103 1420 2742 
Q 1159 2381 1159 1747 
Q 1159 1113 1420 752 
Q 1681 391 2138 391 
Q 2594 391 2855 752 
Q 3116 1113 3116 1747 
z
" transform="scale(0.015625)"/>
      <path id="DejaVuSans-64" d="M 2906 2969 
L 2906 4863 
L 3481 4863 
L 3481 0 
L 2906 0 
L 2906 525 
Q 2725 213 2448 61 
Q 2172 -91 1784 -91 
Q 1150 -91 751 415 
Q 353 922 353 1747 
Q 353 2572 751 3078 
Q 1150 3584 1784 3584 
Q 2172 3584 2448 3432 
Q 2725 3281 2906 2969 
z
M 947 1747 
Q 947 1113 1208 752 
Q 1469 391 1925 391 
Q 2381 391 2643 752 
Q 2906 1113 2906 1747 
Q 2906 2381 2643 2742 
Q 2381 3103 1925 3103 
Q 1469 3103 1208 2742 
Q 947 2381 947 1747 
z
" transform="scale(0.015625)"/>
      <path id="DejaVuSans-66" d="M 2375 4863 
L 2375 4384 
L 1825 4384 
Q 1516 4384 1395 4259 
Q 1275 4134 1275 3809 
L 1275 3500 
L 2222 3500 
L 2222 3053 
L 1275 3053 
L 1275 0 
L 697 0 
L 697 3053 
L 147 3053 
L 147 3500 
L 697 3500 
L 697 3744 
Q 697 4328 969 4595 
Q 1241 4863 1831 4863 
L 2375 4863 
z
" transform="scale(0.015625)"/>
      <path id="DejaVuSans-76" d="M 191 3500 
L 800 3500 
L 1894 563 
L 2988 3500 
L 3597 3500 
L 2284 0 
L 1503 0 
L 191 3500 
z
" transform="scale(0.015625)"/>
      <path id="DejaVuSans-75" d="M 544 1381 
L 544 3500 
L 1119 3500 
L 1119 1403 
Q 1119 906 1312 657 
Q 1506 409 1894 409 
Q 2359 409 2629 706 
Q 2900 1003 2900 1516 
L 2900 3500 
L 3475 3500 
L 3475 0 
L 2900 0 
L 2900 538 
Q 2691 219 2414 64 
Q 2138 -91 1772 -91 
Q 1169 -91 856 284 
Q 544 659 544 1381 
z
M 1991 3584 
L 1991 3584 
z
" transform="scale(0.015625)"/>
      <path id="DejaVuSans-62" d="M 3116 1747 
Q 3116 2381 2855 2742 
Q 2594 3103 2138 3103 
Q 1681 3103 1420 2742 
Q 1159 2381 1159 1747 
Q 1159 1113 1420 752 
Q 1681 391 2138 391 
Q 2594 391 2855 752 
Q 3116 1113 3116 1747 
z
M 1159 2969 
Q 1341 3281 1617 3432 
Q 1894 3584 2278 3584 
Q 2916 3584 3314 3078 
Q 3713 2572 3713 1747 
Q 3713 922 3314 415 
Q 2916 -91 2278 -91 
Q 1894 -91 1617 61 
Q 1341 213 1159 525 
L 1159 0 
L 581 0 
L 581 4863 
L 1159 4863 
L 1159 2969 
z
" transform="scale(0.015625)"/>
      <path id="DejaVuSans-2c" d="M 750 794 
L 1409 794 
L 1409 256 
L 897 -744 
L 494 -744 
L 750 256 
L 750 794 
z
" transform="scale(0.015625)"/>
      <path id="DejaVuSans-6c" d="M 603 4863 
L 1178 4863 
L 1178 0 
L 603 0 
L 603 4863 
z
" transform="scale(0.015625)"/>
     </defs>
     <use xlink:href="#DejaVuSans-42"/>
     <use xlink:href="#DejaVuSans-65" x="68.603516"/>
     <use xlink:href="#DejaVuSans-6e" x="130.126953"/>
     <use xlink:href="#DejaVuSans-63" x="193.505859"/>
     <use xlink:href="#DejaVuSans-68" x="248.486328"/>
     <use xlink:href="#DejaVuSans-69" x="311.865234"/>
     <use xlink:href="#DejaVuSans-6e" x="339.648438"/>
     <use xlink:href="#DejaVuSans-67" x="403.027344"/>
     <use xlink:href="#DejaVuSans-20" x="466.503906"/>
     <use xlink:href="#DejaVuSans-4e" x="498.291016"/>
     <use xlink:href="#DejaVuSans-4f" x="573.095703"/>
     <use xlink:href="#DejaVuSans-50" x="651.806641"/>
     <use xlink:href="#DejaVuSans-20" x="712.109375"/>
     <use xlink:href="#DejaVuSans-72" x="743.896484"/>
     <use xlink:href="#DejaVuSans-65" x="782.759766"/>
     <use xlink:href="#DejaVuSans-70" x="844.283203"/>
     <use xlink:href="#DejaVuSans-65" x="907.759766"/>
     <use xlink:href="#DejaVuSans-61" x="969.283203"/>
     <use xlink:href="#DejaVuSans-74" x="1030.5625"/>
     <use xlink:href="#DejaVuSans-65" x="1069.771484"/>
     <use xlink:href="#DejaVuSans-64" x="1131.294922"/>
     <use xlink:href="#DejaVuSans-20" x="1194.771484"/>
     <use xlink:href="#DejaVuSans-66" x="1226.558594"/>
     <use xlink:href="#DejaVuSans-6f" x="1261.763672"/>
     <use xlink:href="#DejaVuSans-72" x="1322.945312"/>
     <use xlink:href="#DejaVuSans-20" x="1364.058594"/>
     <use xlink:href="#DejaVuSans-67" x="1395.845703"/>
     <use xlink:href="#DejaVuSans-69" x="1459.322266"/>
     <use xlink:href="#DejaVuSans-76" x="1487.105469"/>
     <use xlink:href="#DejaVuSans-65" x="1546.285156"/>
     <use xlink:href="#DejaVuSans-6e" x="1607.808594"/>
     <use xlink:href="#DejaVuSans-20" x="1671.1875"/>
     <use xlink:href="#DejaVuSans-6e" x="1702.974609"/>
     <use xlink:href="#DejaVuSans-75" x="1766.353516"/>
     <use xlink:href="#DejaVuSans-6d" x="1829.732422"/>
     <use xlink:href="#DejaVuSans-62" x="1927.144531"/>
     <use xlink:href="#DejaVuSans-65" x="1990.621094"/>
     <use xlink:href="#DejaVuSans-72" x="2052.144531"/>
     <use xlink:href="#DejaVuSans-20" x="2093.257812"/>
     <use xlink:href="#DejaVuSans-6f" x="2125.044922"/>
     <use xlink:href="#DejaVuSans-66" x="2186.226562"/>
     <use xlink:href="#DejaVuSans-20" x="2221.431641"/>
     <use xlink:href="#DejaVuSans-69" x="2253.21875"/>
     <use xlink:href="#DejaVuSans-74" x="2281.001953"/>
     <use xlink:href="#DejaVuSans-65" x="2320.210938"/>
     <use xlink:href="#DejaVuSans-72" x="2381.734375"/>
     <use xlink:href="#DejaVuSans-61" x="2422.847656"/>
     <use xlink:href="#DejaVuSans-74" x="2484.126953"/>
     <use xlink:href="#DejaVuSans-69" x="2523.335938"/>
     <use xlink:href="#DejaVuSans-6f" x="2551.119141"/>
     <use xlink:href="#DejaVuSans-6e" x="2612.300781"/>
     <use xlink:href="#DejaVuSans-73" x="2675.679688"/>
     <use xlink:href="#DejaVuSans-2c" x="2727.779297"/>
     <use xlink:href="#DejaVuSans-20" x="2759.566406"/>
     <use xlink:href="#DejaVuSans-72" x="2791.353516"/>
     <use xlink:href="#DejaVuSans-65" x="2830.216797"/>
     <use xlink:href="#DejaVuSans-67" x="2891.740234"/>
     <use xlink:href="#DejaVuSans-69" x="2955.216797"/>
     <use xlink:href="#DejaVuSans-73" x="2983"/>
     <use xlink:href="#DejaVuSans-74" x="3035.099609"/>
     <use xlink:href="#DejaVuSans-65" x="3074.308594"/>
     <use xlink:href="#DejaVuSans-72" x="3135.832031"/>
     <use xlink:href="#DejaVuSans-20" x="3176.945312"/>
     <use xlink:href="#DejaVuSans-73" x="3208.732422"/>
     <use xlink:href="#DejaVuSans-74" x="3260.832031"/>
     <use xlink:href="#DejaVuSans-61" x="3300.041016"/>
     <use xlink:href="#DejaVuSans-72" x="3361.320312"/>
     <use xlink:href="#DejaVuSans-6b" x="3402.433594"/>
     <use xlink:href="#DejaVuSans-73" x="3460.34375"/>
     <use xlink:href="#DejaVuSans-20" x="3512.443359"/>
     <use xlink:href="#DejaVuSans-76" x="3544.230469"/>
     <use xlink:href="#DejaVuSans-73" x="3603.410156"/>
     <use xlink:href="#DejaVuSans-20" x="3655.509766"/>
     <use xlink:href="#DejaVuSans-6f" x="3687.296875"/>
     <use xlink:href="#DejaVuSans-6c" x="3748.478516"/>
     <use xlink:href="#DejaVuSans-64" x="3776.261719"/>
    </g>
    <!--  num_samples=157 -->
    <g transform="translate(235.423125 45.84) scale(0.12 -0.12)">
     <defs>
      <path id="DejaVuSans-5f" d="M 3263 -1063 
L 3263 -1509 
L -63 -1509 
L -63 -1063 
L 3263 -1063 
z
" transform="scale(0.015625)"/>
      <path id="DejaVuSans-3d" d="M 678 2906 
L 4684 2906 
L 4684 2381 
L 678 2381 
L 678 2906 
z
M 678 1631 
L 4684 1631 
L 4684 1100 
L 678 1100 
L 678 1631 
z
" transform="scale(0.015625)"/>
     </defs>
     <use xlink:href="#DejaVuSans-20"/>
     <use xlink:href="#DejaVuSans-6e" x="31.787109"/>
     <use xlink:href="#DejaVuSans-75" x="95.166016"/>
     <use xlink:href="#DejaVuSans-6d" x="158.544922"/>
     <use xlink:href="#DejaVuSans-5f" x="255.957031"/>
     <use xlink:href="#DejaVuSans-73" x="305.957031"/>
     <use xlink:href="#DejaVuSans-61" x="358.056641"/>
     <use xlink:href="#DejaVuSans-6d" x="419.335938"/>
     <use xlink:href="#DejaVuSans-70" x="516.748047"/>
     <use xlink:href="#DejaVuSans-6c" x="580.224609"/>
     <use xlink:href="#DejaVuSans-65" x="608.007812"/>
     <use xlink:href="#DejaVuSans-73" x="669.53125"/>
     <use xlink:href="#DejaVuSans-3d" x="721.630859"/>
     <use xlink:href="#DejaVuSans-31" x="805.419922"/>
     <use xlink:href="#DejaVuSans-35" x="869.042969"/>
     <use xlink:href="#DejaVuSans-37" x="932.666016"/>
    </g>
   </g>
   <g id="legend_1">
    <g id="patch_7">
     <path d="M 79 119.10875 
L 321.095312 119.10875 
Q 323.095312 119.10875 323.095312 117.10875 
L 323.095312 58.84 
Q 323.095312 56.84 321.095312 56.84 
L 79 56.84 
Q 77 56.84 77 58.84 
L 77 117.10875 
Q 77 119.10875 79 119.10875 
z
" style="fill: #ffffff; opacity: 0.8; stroke: #cccccc; stroke-linejoin: miter"/>
    </g>
    <g id="PathCollection_3">
     <g>
      <use xlink:href="#md36847cdf6" x="91" y="65.813437" style="fill: #ff0000; stroke: #ff0000"/>
     </g>
    </g>
    <g id="text_19">
     <!-- nop with_register_stark with cpu-time -->
     <g transform="translate(109 68.438437) scale(0.1 -0.1)">
      <defs>
       <path id="DejaVuSans-77" d="M 269 3500 
L 844 3500 
L 1563 769 
L 2278 3500 
L 2956 3500 
L 3675 769 
L 4391 3500 
L 4966 3500 
L 4050 0 
L 3372 0 
L 2619 2869 
L 1863 0 
L 1184 0 
L 269 3500 
z
" transform="scale(0.015625)"/>
       <path id="DejaVuSans-2d" d="M 313 2009 
L 1997 2009 
L 1997 1497 
L 313 1497 
L 313 2009 
z
" transform="scale(0.015625)"/>
      </defs>
      <use xlink:href="#DejaVuSans-6e"/>
      <use xlink:href="#DejaVuSans-6f" x="63.378906"/>
      <use xlink:href="#DejaVuSans-70" x="124.560547"/>
      <use xlink:href="#DejaVuSans-20" x="188.037109"/>
      <use xlink:href="#DejaVuSans-77" x="219.824219"/>
      <use xlink:href="#DejaVuSans-69" x="301.611328"/>
      <use xlink:href="#DejaVuSans-74" x="329.394531"/>
      <use xlink:href="#DejaVuSans-68" x="368.603516"/>
      <use xlink:href="#DejaVuSans-5f" x="431.982422"/>
      <use xlink:href="#DejaVuSans-72" x="481.982422"/>
      <use xlink:href="#DejaVuSans-65" x="520.845703"/>
      <use xlink:href="#DejaVuSans-67" x="582.369141"/>
      <use xlink:href="#DejaVuSans-69" x="645.845703"/>
      <use xlink:href="#DejaVuSans-73" x="673.628906"/>
      <use xlink:href="#DejaVuSans-74" x="725.728516"/>
      <use xlink:href="#DejaVuSans-65" x="764.9375"/>
      <use xlink:href="#DejaVuSans-72" x="826.460938"/>
      <use xlink:href="#DejaVuSans-5f" x="867.574219"/>
      <use xlink:href="#DejaVuSans-73" x="917.574219"/>
      <use xlink:href="#DejaVuSans-74" x="969.673828"/>
      <use xlink:href="#DejaVuSans-61" x="1008.882812"/>
      <use xlink:href="#DejaVuSans-72" x="1070.162109"/>
      <use xlink:href="#DejaVuSans-6b" x="1111.275391"/>
      <use xlink:href="#DejaVuSans-20" x="1169.185547"/>
      <use xlink:href="#DejaVuSans-77" x="1200.972656"/>
      <use xlink:href="#DejaVuSans-69" x="1282.759766"/>
      <use xlink:href="#DejaVuSans-74" x="1310.542969"/>
      <use xlink:href="#DejaVuSans-68" x="1349.751953"/>
      <use xlink:href="#DejaVuSans-20" x="1413.130859"/>
      <use xlink:href="#DejaVuSans-63" x="1444.917969"/>
      <use xlink:href="#DejaVuSans-70" x="1499.898438"/>
      <use xlink:href="#DejaVuSans-75" x="1563.375"/>
      <use xlink:href="#DejaVuSans-2d" x="1626.753906"/>
      <use xlink:href="#DejaVuSans-74" x="1662.837891"/>
      <use xlink:href="#DejaVuSans-69" x="1702.046875"/>
      <use xlink:href="#DejaVuSans-6d" x="1729.830078"/>
      <use xlink:href="#DejaVuSans-65" x="1827.242188"/>
     </g>
    </g>
    <g id="line2d_18">
     <path d="M 81 79.894687 
L 91 79.894687 
L 101 79.894687 
" style="fill: none; stroke: #ff0000; stroke-width: 1.5; stroke-linecap: square"/>
    </g>
    <g id="text_20">
     <!-- nop with_register_stark with cpu-time line -->
     <g transform="translate(109 83.394687) scale(0.1 -0.1)">
      <use xlink:href="#DejaVuSans-6e"/>
      <use xlink:href="#DejaVuSans-6f" x="63.378906"/>
      <use xlink:href="#DejaVuSans-70" x="124.560547"/>
      <use xlink:href="#DejaVuSans-20" x="188.037109"/>
      <use xlink:href="#DejaVuSans-77" x="219.824219"/>
      <use xlink:href="#DejaVuSans-69" x="301.611328"/>
      <use xlink:href="#DejaVuSans-74" x="329.394531"/>
      <use xlink:href="#DejaVuSans-68" x="368.603516"/>
      <use xlink:href="#DejaVuSans-5f" x="431.982422"/>
      <use xlink:href="#DejaVuSans-72" x="481.982422"/>
      <use xlink:href="#DejaVuSans-65" x="520.845703"/>
      <use xlink:href="#DejaVuSans-67" x="582.369141"/>
      <use xlink:href="#DejaVuSans-69" x="645.845703"/>
      <use xlink:href="#DejaVuSans-73" x="673.628906"/>
      <use xlink:href="#DejaVuSans-74" x="725.728516"/>
      <use xlink:href="#DejaVuSans-65" x="764.9375"/>
      <use xlink:href="#DejaVuSans-72" x="826.460938"/>
      <use xlink:href="#DejaVuSans-5f" x="867.574219"/>
      <use xlink:href="#DejaVuSans-73" x="917.574219"/>
      <use xlink:href="#DejaVuSans-74" x="969.673828"/>
      <use xlink:href="#DejaVuSans-61" x="1008.882812"/>
      <use xlink:href="#DejaVuSans-72" x="1070.162109"/>
      <use xlink:href="#DejaVuSans-6b" x="1111.275391"/>
      <use xlink:href="#DejaVuSans-20" x="1169.185547"/>
      <use xlink:href="#DejaVuSans-77" x="1200.972656"/>
      <use xlink:href="#DejaVuSans-69" x="1282.759766"/>
      <use xlink:href="#DejaVuSans-74" x="1310.542969"/>
      <use xlink:href="#DejaVuSans-68" x="1349.751953"/>
      <use xlink:href="#DejaVuSans-20" x="1413.130859"/>
      <use xlink:href="#DejaVuSans-63" x="1444.917969"/>
      <use xlink:href="#DejaVuSans-70" x="1499.898438"/>
      <use xlink:href="#DejaVuSans-75" x="1563.375"/>
      <use xlink:href="#DejaVuSans-2d" x="1626.753906"/>
      <use xlink:href="#DejaVuSans-74" x="1662.837891"/>
      <use xlink:href="#DejaVuSans-69" x="1702.046875"/>
      <use xlink:href="#DejaVuSans-6d" x="1729.830078"/>
      <use xlink:href="#DejaVuSans-65" x="1827.242188"/>
      <use xlink:href="#DejaVuSans-20" x="1888.765625"/>
      <use xlink:href="#DejaVuSans-6c" x="1920.552734"/>
      <use xlink:href="#DejaVuSans-69" x="1948.335938"/>
      <use xlink:href="#DejaVuSans-6e" x="1976.119141"/>
      <use xlink:href="#DejaVuSans-65" x="2039.498047"/>
     </g>
    </g>
    <g id="PathCollection_4">
     <g>
      <use xlink:href="#mf4a4bc4c3e" x="91" y="95.725937" style="fill: #0000ff; stroke: #0000ff"/>
     </g>
    </g>
    <g id="text_21">
     <!-- nop main-with-cpu-time -->
     <g transform="translate(109 98.350937) scale(0.1 -0.1)">
      <use xlink:href="#DejaVuSans-6e"/>
      <use xlink:href="#DejaVuSans-6f" x="63.378906"/>
      <use xlink:href="#DejaVuSans-70" x="124.560547"/>
      <use xlink:href="#DejaVuSans-20" x="188.037109"/>
      <use xlink:href="#DejaVuSans-6d" x="219.824219"/>
      <use xlink:href="#DejaVuSans-61" x="317.236328"/>
      <use xlink:href="#DejaVuSans-69" x="378.515625"/>
      <use xlink:href="#DejaVuSans-6e" x="406.298828"/>
      <use xlink:href="#DejaVuSans-2d" x="469.677734"/>
      <use xlink:href="#DejaVuSans-77" x="505.761719"/>
      <use xlink:href="#DejaVuSans-69" x="587.548828"/>
      <use xlink:href="#DejaVuSans-74" x="615.332031"/>
      <use xlink:href="#DejaVuSans-68" x="654.541016"/>
      <use xlink:href="#DejaVuSans-2d" x="717.919922"/>
      <use xlink:href="#DejaVuSans-63" x="754.003906"/>
      <use xlink:href="#DejaVuSans-70" x="808.984375"/>
      <use xlink:href="#DejaVuSans-75" x="872.460938"/>
      <use xlink:href="#DejaVuSans-2d" x="935.839844"/>
      <use xlink:href="#DejaVuSans-74" x="971.923828"/>
      <use xlink:href="#DejaVuSans-69" x="1011.132812"/>
      <use xlink:href="#DejaVuSans-6d" x="1038.916016"/>
      <use xlink:href="#DejaVuSans-65" x="1136.328125"/>
     </g>
    </g>
    <g id="line2d_19">
     <path d="M 81 109.529062 
L 91 109.529062 
L 101 109.529062 
" style="fill: none; stroke-dasharray: 5.55,2.4; stroke-dashoffset: 0; stroke: #0000ff; stroke-width: 1.5"/>
    </g>
    <g id="text_22">
     <!-- nop main-with-cpu-time line -->
     <g transform="translate(109 113.029062) scale(0.1 -0.1)">
      <use xlink:href="#DejaVuSans-6e"/>
      <use xlink:href="#DejaVuSans-6f" x="63.378906"/>
      <use xlink:href="#DejaVuSans-70" x="124.560547"/>
      <use xlink:href="#DejaVuSans-20" x="188.037109"/>
      <use xlink:href="#DejaVuSans-6d" x="219.824219"/>
      <use xlink:href="#DejaVuSans-61" x="317.236328"/>
      <use xlink:href="#DejaVuSans-69" x="378.515625"/>
      <use xlink:href="#DejaVuSans-6e" x="406.298828"/>
      <use xlink:href="#DejaVuSans-2d" x="469.677734"/>
      <use xlink:href="#DejaVuSans-77" x="505.761719"/>
      <use xlink:href="#DejaVuSans-69" x="587.548828"/>
      <use xlink:href="#DejaVuSans-74" x="615.332031"/>
      <use xlink:href="#DejaVuSans-68" x="654.541016"/>
      <use xlink:href="#DejaVuSans-2d" x="717.919922"/>
      <use xlink:href="#DejaVuSans-63" x="754.003906"/>
      <use xlink:href="#DejaVuSans-70" x="808.984375"/>
      <use xlink:href="#DejaVuSans-75" x="872.460938"/>
      <use xlink:href="#DejaVuSans-2d" x="935.839844"/>
      <use xlink:href="#DejaVuSans-74" x="971.923828"/>
      <use xlink:href="#DejaVuSans-69" x="1011.132812"/>
      <use xlink:href="#DejaVuSans-6d" x="1038.916016"/>
      <use xlink:href="#DejaVuSans-65" x="1136.328125"/>
      <use xlink:href="#DejaVuSans-20" x="1197.851562"/>
      <use xlink:href="#DejaVuSans-6c" x="1229.638672"/>
      <use xlink:href="#DejaVuSans-69" x="1257.421875"/>
      <use xlink:href="#DejaVuSans-6e" x="1285.205078"/>
      <use xlink:href="#DejaVuSans-65" x="1348.583984"/>
     </g>
    </g>
   </g>
  </g>
 </g>
 <defs>
  <clipPath id="p44450da8e7">
   <rect x="72" y="51.84" width="446.4" height="332.64"/>
  </clipPath>
 </defs>
</svg>
