<?xml version="1.0" encoding="utf-8" standalone="no"?>
<!DOCTYPE svg PUBLIC "-//W3C//DTD SVG 1.1//EN"
  "http://www.w3.org/Graphics/SVG/1.1/DTD/svg11.dtd">
<svg xmlns:xlink="http://www.w3.org/1999/xlink" width="576pt" height="432pt" viewBox="0 0 576 432" xmlns="http://www.w3.org/2000/svg" version="1.1">
 <metadata>
  <rdf:RDF xmlns:dc="http://purl.org/dc/elements/1.1/" xmlns:cc="http://creativecommons.org/ns#" xmlns:rdf="http://www.w3.org/1999/02/22-rdf-syntax-ns#">
   <cc:Work>
    <dc:type rdf:resource="http://purl.org/dc/dcmitype/StillImage"/>
    <dc:date>2023-10-18T17:29:57.596401</dc:date>
    <dc:format>image/svg+xml</dc:format>
    <dc:creator>
     <cc:Agent>
      <dc:title>Matplotlib v3.8.0, https://matplotlib.org/</dc:title>
     </cc:Agent>
    </dc:creator>
   </cc:Work>
  </rdf:RDF>
 </metadata>
 <defs>
  <style type="text/css">*{stroke-linejoin: round; stroke-linecap: butt}</style>
 </defs>
 <g id="figure_1">
  <g id="patch_1">
   <path d="M 0 432 
L 576 432 
L 576 0 
L 0 0 
z
" style="fill: #ffffff"/>
  </g>
  <g id="axes_1">
   <g id="patch_2">
    <path d="M 72 384.48 
L 518.4 384.48 
L 518.4 51.84 
L 72 51.84 
z
" style="fill: #ffffff"/>
   </g>
   <g id="PathCollection_1">
    <defs>
     <path id="m9bb84cf21d" d="M 0 1.581139 
C 0.419323 1.581139 0.821528 1.41454 1.118034 1.118034 
C 1.41454 0.821528 1.581139 0.419323 1.581139 0 
C 1.581139 -0.419323 1.41454 -0.821528 1.118034 -1.118034 
C 0.821528 -1.41454 0.419323 -1.581139 0 -1.581139 
C -0.419323 -1.581139 -0.821528 -1.41454 -1.118034 -1.118034 
C -1.41454 -0.821528 -1.581139 -0.419323 -1.581139 0 
C -1.581139 0.419323 -1.41454 0.821528 -1.118034 1.118034 
C -0.821528 1.41454 -0.419323 1.581139 0 1.581139 
z
" style="stroke: #ff0000"/>
    </defs>
    <g clip-path="url(#pd41e3a2838)">
     <use xlink:href="#m9bb84cf21d" x="332.685214" y="156.017964" style="fill: #ff0000; stroke: #ff0000"/>
     <use xlink:href="#m9bb84cf21d" x="159.927273" y="309.666671" style="fill: #ff0000; stroke: #ff0000"/>
     <use xlink:href="#m9bb84cf21d" x="317.609639" y="145.558951" style="fill: #ff0000; stroke: #ff0000"/>
     <use xlink:href="#m9bb84cf21d" x="96.365389" y="364.668361" style="fill: #ff0000; stroke: #ff0000"/>
     <use xlink:href="#m9bb84cf21d" x="355.5023" y="127.912532" style="fill: #ff0000; stroke: #ff0000"/>
     <use xlink:href="#m9bb84cf21d" x="302.126616" y="143.681363" style="fill: #ff0000; stroke: #ff0000"/>
     <use xlink:href="#m9bb84cf21d" x="428.028039" y="134.27311" style="fill: #ff0000; stroke: #ff0000"/>
     <use xlink:href="#m9bb84cf21d" x="176.225192" y="302.967275" style="fill: #ff0000; stroke: #ff0000"/>
     <use xlink:href="#m9bb84cf21d" x="358.354436" y="136.967016" style="fill: #ff0000; stroke: #ff0000"/>
     <use xlink:href="#m9bb84cf21d" x="125.701643" y="332.757122" style="fill: #ff0000; stroke: #ff0000"/>
     <use xlink:href="#m9bb84cf21d" x="295.2" y="248.224414" style="fill: #ff0000; stroke: #ff0000"/>
     <use xlink:href="#m9bb84cf21d" x="465.920701" y="131.233545" style="fill: #ff0000; stroke: #ff0000"/>
     <use xlink:href="#m9bb84cf21d" x="232.86046" y="249.602677" style="fill: #ff0000; stroke: #ff0000"/>
     <use xlink:href="#m9bb84cf21d" x="390.950274" y="131.588053" style="fill: #ff0000; stroke: #ff0000"/>
     <use xlink:href="#m9bb84cf21d" x="123.256955" y="336.253114" style="fill: #ff0000; stroke: #ff0000"/>
     <use xlink:href="#m9bb84cf21d" x="137.517634" y="335.660179" style="fill: #ff0000; stroke: #ff0000"/>
     <use xlink:href="#m9bb84cf21d" x="308.645783" y="149.788431" style="fill: #ff0000; stroke: #ff0000"/>
     <use xlink:href="#m9bb84cf21d" x="167.261336" y="308.772967" style="fill: #ff0000; stroke: #ff0000"/>
     <use xlink:href="#m9bb84cf21d" x="103.292004" y="358.161609" style="fill: #ff0000; stroke: #ff0000"/>
     <use xlink:href="#m9bb84cf21d" x="396.247097" y="134.252477" style="fill: #ff0000; stroke: #ff0000"/>
     <use xlink:href="#m9bb84cf21d" x="157.482585" y="287.33386" style="fill: #ff0000; stroke: #ff0000"/>
     <use xlink:href="#m9bb84cf21d" x="200.264622" y="238.21131" style="fill: #ff0000; stroke: #ff0000"/>
     <use xlink:href="#m9bb84cf21d" x="225.526396" y="237.313542" style="fill: #ff0000; stroke: #ff0000"/>
     <use xlink:href="#m9bb84cf21d" x="203.116758" y="252.386784" style="fill: #ff0000; stroke: #ff0000"/>
     <use xlink:href="#m9bb84cf21d" x="488.737788" y="131.15581" style="fill: #ff0000; stroke: #ff0000"/>
     <use xlink:href="#m9bb84cf21d" x="295.607448" y="235.552567" style="fill: #ff0000; stroke: #ff0000"/>
     <use xlink:href="#m9bb84cf21d" x="146.48149" y="310.535407" style="fill: #ff0000; stroke: #ff0000"/>
     <use xlink:href="#m9bb84cf21d" x="343.686309" y="132.260121" style="fill: #ff0000; stroke: #ff0000"/>
     <use xlink:href="#m9bb84cf21d" x="481.403724" y="129.610418" style="fill: #ff0000; stroke: #ff0000"/>
     <use xlink:href="#m9bb84cf21d" x="342.871413" y="141.577185" style="fill: #ff0000; stroke: #ff0000"/>
     <use xlink:href="#m9bb84cf21d" x="449.215334" y="129.043896" style="fill: #ff0000; stroke: #ff0000"/>
     <use xlink:href="#m9bb84cf21d" x="479.366484" y="118.717291" style="fill: #ff0000; stroke: #ff0000"/>
     <use xlink:href="#m9bb84cf21d" x="168.076232" y="309.914986" style="fill: #ff0000; stroke: #ff0000"/>
     <use xlink:href="#m9bb84cf21d" x="495.664403" y="115.485049" style="fill: #ff0000; stroke: #ff0000"/>
     <use xlink:href="#m9bb84cf21d" x="412.952464" y="123.398255" style="fill: #ff0000; stroke: #ff0000"/>
     <use xlink:href="#m9bb84cf21d" x="93.105805" y="363.542619" style="fill: #ff0000; stroke: #ff0000"/>
     <use xlink:href="#m9bb84cf21d" x="159.927273" y="306.757469" style="fill: #ff0000; stroke: #ff0000"/>
     <use xlink:href="#m9bb84cf21d" x="350.612924" y="141.33829" style="fill: #ff0000; stroke: #ff0000"/>
     <use xlink:href="#m9bb84cf21d" x="344.093757" y="133.087514" style="fill: #ff0000; stroke: #ff0000"/>
     <use xlink:href="#m9bb84cf21d" x="149.333625" y="311.977652" style="fill: #ff0000; stroke: #ff0000"/>
     <use xlink:href="#m9bb84cf21d" x="318.831982" y="71.716553" style="fill: #ff0000; stroke: #ff0000"/>
     <use xlink:href="#m9bb84cf21d" x="312.312815" y="144.812382" style="fill: #ff0000; stroke: #ff0000"/>
     <use xlink:href="#m9bb84cf21d" x="442.696166" y="126.599029" style="fill: #ff0000; stroke: #ff0000"/>
     <use xlink:href="#m9bb84cf21d" x="461.031325" y="127.152835" style="fill: #ff0000; stroke: #ff0000"/>
     <use xlink:href="#m9bb84cf21d" x="161.964513" y="309.950882" style="fill: #ff0000; stroke: #ff0000"/>
     <use xlink:href="#m9bb84cf21d" x="242.639211" y="250.829568" style="fill: #ff0000; stroke: #ff0000"/>
     <use xlink:href="#m9bb84cf21d" x="366.503395" y="95.649088" style="fill: #ff0000; stroke: #ff0000"/>
     <use xlink:href="#m9bb84cf21d" x="377.097043" y="134.700199" style="fill: #ff0000; stroke: #ff0000"/>
     <use xlink:href="#m9bb84cf21d" x="317.202191" y="142.652186" style="fill: #ff0000; stroke: #ff0000"/>
     <use xlink:href="#m9bb84cf21d" x="310.275575" y="146.520901" style="fill: #ff0000; stroke: #ff0000"/>
     <use xlink:href="#m9bb84cf21d" x="293.977656" y="249.347151" style="fill: #ff0000; stroke: #ff0000"/>
     <use xlink:href="#m9bb84cf21d" x="402.358817" y="105.713017" style="fill: #ff0000; stroke: #ff0000"/>
     <use xlink:href="#m9bb84cf21d" x="413.359912" y="129.191957" style="fill: #ff0000; stroke: #ff0000"/>
     <use xlink:href="#m9bb84cf21d" x="137.517634" y="335.551138" style="fill: #ff0000; stroke: #ff0000"/>
    </g>
   </g>
   <g id="PathCollection_2">
    <defs>
     <path id="mfc2d3facd1" d="M -1.581107 1.581107 
L 1.58117 1.581107 
L 1.58117 -1.58117 
L -1.581107 -1.58117 
z
" style="stroke: #0000ff"/>
    </defs>
    <g clip-path="url(#pd41e3a2838)">
     <use xlink:href="#mfc2d3facd1" x="95.143045" y="368.894622" style="fill: #0000ff; stroke: #0000ff"/>
     <use xlink:href="#mfc2d3facd1" x="482.626068" y="205.33261" style="fill: #0000ff; stroke: #0000ff"/>
     <use xlink:href="#mfc2d3facd1" x="208.006134" y="296.135793" style="fill: #0000ff; stroke: #0000ff"/>
     <use xlink:href="#mfc2d3facd1" x="256.89989" y="294.60413" style="fill: #0000ff; stroke: #0000ff"/>
     <use xlink:href="#mfc2d3facd1" x="151.370865" y="336.427323" style="fill: #0000ff; stroke: #0000ff"/>
     <use xlink:href="#mfc2d3facd1" x="419.87908" y="212.269989" style="fill: #0000ff; stroke: #0000ff"/>
     <use xlink:href="#mfc2d3facd1" x="360.391676" y="223.765079" style="fill: #0000ff; stroke: #0000ff"/>
     <use xlink:href="#mfc2d3facd1" x="217.377437" y="298.305543" style="fill: #0000ff; stroke: #0000ff"/>
     <use xlink:href="#mfc2d3facd1" x="126.923987" y="351.148337" style="fill: #0000ff; stroke: #0000ff"/>
     <use xlink:href="#mfc2d3facd1" x="170.52092" y="330.232977" style="fill: #0000ff; stroke: #0000ff"/>
     <use xlink:href="#mfc2d3facd1" x="307.015991" y="221.212823" style="fill: #0000ff; stroke: #0000ff"/>
     <use xlink:href="#mfc2d3facd1" x="464.698357" y="209.749335" style="fill: #0000ff; stroke: #0000ff"/>
     <use xlink:href="#mfc2d3facd1" x="273.197809" y="296.494414" style="fill: #0000ff; stroke: #0000ff"/>
     <use xlink:href="#mfc2d3facd1" x="337.574589" y="222.810978" style="fill: #0000ff; stroke: #0000ff"/>
     <use xlink:href="#mfc2d3facd1" x="287.865936" y="294.633362" style="fill: #0000ff; stroke: #0000ff"/>
     <use xlink:href="#mfc2d3facd1" x="356.724644" y="216.373021" style="fill: #0000ff; stroke: #0000ff"/>
     <use xlink:href="#mfc2d3facd1" x="456.549398" y="212.797854" style="fill: #0000ff; stroke: #0000ff"/>
     <use xlink:href="#mfc2d3facd1" x="334.315005" y="213.824718" style="fill: #0000ff; stroke: #0000ff"/>
     <use xlink:href="#mfc2d3facd1" x="251.603067" y="288.112142" style="fill: #0000ff; stroke: #0000ff"/>
     <use xlink:href="#mfc2d3facd1" x="380.764074" y="204.479939" style="fill: #0000ff; stroke: #0000ff"/>
     <use xlink:href="#mfc2d3facd1" x="306.201095" y="213.11029" style="fill: #0000ff; stroke: #0000ff"/>
     <use xlink:href="#mfc2d3facd1" x="441.881271" y="205.466256" style="fill: #0000ff; stroke: #0000ff"/>
     <use xlink:href="#mfc2d3facd1" x="481.403724" y="206.65882" style="fill: #0000ff; stroke: #0000ff"/>
     <use xlink:href="#mfc2d3facd1" x="138.33253" y="348.435737" style="fill: #0000ff; stroke: #0000ff"/>
     <use xlink:href="#mfc2d3facd1" x="463.476013" y="213.413032" style="fill: #0000ff; stroke: #0000ff"/>
     <use xlink:href="#mfc2d3facd1" x="313.127711" y="209.116998" style="fill: #0000ff; stroke: #0000ff"/>
     <use xlink:href="#mfc2d3facd1" x="272.790361" y="292.233158" style="fill: #0000ff; stroke: #0000ff"/>
     <use xlink:href="#mfc2d3facd1" x="250.380723" y="287.534536" style="fill: #0000ff; stroke: #0000ff"/>
     <use xlink:href="#mfc2d3facd1" x="309.053231" y="220.375113" style="fill: #0000ff; stroke: #0000ff"/>
     <use xlink:href="#mfc2d3facd1" x="258.122234" y="293.757821" style="fill: #0000ff; stroke: #0000ff"/>
     <use xlink:href="#mfc2d3facd1" x="387.283242" y="210.102624" style="fill: #0000ff; stroke: #0000ff"/>
     <use xlink:href="#mfc2d3facd1" x="132.220811" y="349.38154" style="fill: #0000ff; stroke: #0000ff"/>
     <use xlink:href="#mfc2d3facd1" x="311.497919" y="217.647465" style="fill: #0000ff; stroke: #0000ff"/>
     <use xlink:href="#mfc2d3facd1" x="361.61402" y="221.879459" style="fill: #0000ff; stroke: #0000ff"/>
     <use xlink:href="#mfc2d3facd1" x="201.079518" y="276.975888" style="fill: #0000ff; stroke: #0000ff"/>
     <use xlink:href="#mfc2d3facd1" x="249.973275" y="284.890908" style="fill: #0000ff; stroke: #0000ff"/>
     <use xlink:href="#mfc2d3facd1" x="184.781599" y="319.752491" style="fill: #0000ff; stroke: #0000ff"/>
     <use xlink:href="#mfc2d3facd1" x="118.367579" y="349.324083" style="fill: #0000ff; stroke: #0000ff"/>
     <use xlink:href="#mfc2d3facd1" x="434.139759" y="206.767552" style="fill: #0000ff; stroke: #0000ff"/>
     <use xlink:href="#mfc2d3facd1" x="319.646878" y="209.772761" style="fill: #0000ff; stroke: #0000ff"/>
     <use xlink:href="#mfc2d3facd1" x="469.995181" y="212.663546" style="fill: #0000ff; stroke: #0000ff"/>
     <use xlink:href="#mfc2d3facd1" x="263.826506" y="287.559401" style="fill: #0000ff; stroke: #0000ff"/>
     <use xlink:href="#mfc2d3facd1" x="453.697262" y="196.653863" style="fill: #0000ff; stroke: #0000ff"/>
     <use xlink:href="#mfc2d3facd1" x="332.277766" y="200.144145" style="fill: #0000ff; stroke: #0000ff"/>
     <use xlink:href="#mfc2d3facd1" x="327.795838" y="213.760247" style="fill: #0000ff; stroke: #0000ff"/>
     <use xlink:href="#mfc2d3facd1" x="237.342388" y="288.69637" style="fill: #0000ff; stroke: #0000ff"/>
     <use xlink:href="#mfc2d3facd1" x="462.661117" y="206.7938" style="fill: #0000ff; stroke: #0000ff"/>
     <use xlink:href="#mfc2d3facd1" x="407.248193" y="210.531105" style="fill: #0000ff; stroke: #0000ff"/>
     <use xlink:href="#mfc2d3facd1" x="342.871413" y="213.5026" style="fill: #0000ff; stroke: #0000ff"/>
     <use xlink:href="#mfc2d3facd1" x="389.72793" y="204.375544" style="fill: #0000ff; stroke: #0000ff"/>
     <use xlink:href="#mfc2d3facd1" x="276.864841" y="289.097111" style="fill: #0000ff; stroke: #0000ff"/>
     <use xlink:href="#mfc2d3facd1" x="390.135378" y="197.300192" style="fill: #0000ff; stroke: #0000ff"/>
     <use xlink:href="#mfc2d3facd1" x="430.065279" y="197.139425" style="fill: #0000ff; stroke: #0000ff"/>
     <use xlink:href="#mfc2d3facd1" x="424.361008" y="202.466249" style="fill: #0000ff; stroke: #0000ff"/>
     <use xlink:href="#mfc2d3facd1" x="344.093757" y="214.888434" style="fill: #0000ff; stroke: #0000ff"/>
     <use xlink:href="#mfc2d3facd1" x="298.867032" y="289.344782" style="fill: #0000ff; stroke: #0000ff"/>
     <use xlink:href="#mfc2d3facd1" x="428.028039" y="214.479378" style="fill: #0000ff; stroke: #0000ff"/>
     <use xlink:href="#mfc2d3facd1" x="218.192333" y="291.172254" style="fill: #0000ff; stroke: #0000ff"/>
     <use xlink:href="#mfc2d3facd1" x="250.788171" y="290.428646" style="fill: #0000ff; stroke: #0000ff"/>
     <use xlink:href="#mfc2d3facd1" x="460.623877" y="213.502667" style="fill: #0000ff; stroke: #0000ff"/>
     <use xlink:href="#mfc2d3facd1" x="405.210953" y="207.511645" style="fill: #0000ff; stroke: #0000ff"/>
     <use xlink:href="#mfc2d3facd1" x="243.454107" y="275.523115" style="fill: #0000ff; stroke: #0000ff"/>
     <use xlink:href="#mfc2d3facd1" x="108.996276" y="360.0771" style="fill: #0000ff; stroke: #0000ff"/>
     <use xlink:href="#mfc2d3facd1" x="118.367579" y="347.782619" style="fill: #0000ff; stroke: #0000ff"/>
     <use xlink:href="#mfc2d3facd1" x="97.995181" y="367.846177" style="fill: #0000ff; stroke: #0000ff"/>
     <use xlink:href="#mfc2d3facd1" x="181.114567" y="329.582135" style="fill: #0000ff; stroke: #0000ff"/>
     <use xlink:href="#mfc2d3facd1" x="498.109091" y="187.776997" style="fill: #0000ff; stroke: #0000ff"/>
     <use xlink:href="#mfc2d3facd1" x="248.343483" y="292.804857" style="fill: #0000ff; stroke: #0000ff"/>
     <use xlink:href="#mfc2d3facd1" x="278.494633" y="288.678501" style="fill: #0000ff; stroke: #0000ff"/>
     <use xlink:href="#mfc2d3facd1" x="409.692881" y="208.63823" style="fill: #0000ff; stroke: #0000ff"/>
     <use xlink:href="#mfc2d3facd1" x="111.033516" y="361.653928" style="fill: #0000ff; stroke: #0000ff"/>
    </g>
   </g>
   <g id="PathCollection_3">
    <defs>
     <path id="md8c19c8aac" d="M -0 1.581139 
L 1.581139 -1.581139 
L -1.581139 -1.581139 
z
" style="stroke: #00bfbf"/>
    </defs>
    <g clip-path="url(#pd41e3a2838)">
     <use xlink:href="#md8c19c8aac" x="190.078423" y="331.359687" style="fill: #00bfbf; stroke: #00bfbf"/>
     <use xlink:href="#md8c19c8aac" x="326.166046" y="234.205926" style="fill: #00bfbf; stroke: #00bfbf"/>
     <use xlink:href="#md8c19c8aac" x="155.445345" y="338.951451" style="fill: #00bfbf; stroke: #00bfbf"/>
     <use xlink:href="#md8c19c8aac" x="245.898795" y="302.07076" style="fill: #00bfbf; stroke: #00bfbf"/>
     <use xlink:href="#md8c19c8aac" x="348.983133" y="237.163601" style="fill: #00bfbf; stroke: #00bfbf"/>
     <use xlink:href="#md8c19c8aac" x="281.346769" y="296.729393" style="fill: #00bfbf; stroke: #00bfbf"/>
     <use xlink:href="#md8c19c8aac" x="385.246002" y="227.89624" style="fill: #00bfbf; stroke: #00bfbf"/>
     <use xlink:href="#md8c19c8aac" x="423.546112" y="229.452466" style="fill: #00bfbf; stroke: #00bfbf"/>
     <use xlink:href="#md8c19c8aac" x="313.127711" y="233.967693" style="fill: #00bfbf; stroke: #00bfbf"/>
     <use xlink:href="#md8c19c8aac" x="468.365389" y="221.946954" style="fill: #00bfbf; stroke: #00bfbf"/>
     <use xlink:href="#md8c19c8aac" x="408.877985" y="220.941798" style="fill: #00bfbf; stroke: #00bfbf"/>
     <use xlink:href="#md8c19c8aac" x="95.957941" y="369.36" style="fill: #00bfbf; stroke: #00bfbf"/>
     <use xlink:href="#md8c19c8aac" x="438.621687" y="217.446314" style="fill: #00bfbf; stroke: #00bfbf"/>
     <use xlink:href="#md8c19c8aac" x="416.212048" y="226.17464" style="fill: #00bfbf; stroke: #00bfbf"/>
     <use xlink:href="#md8c19c8aac" x="254.455203" y="294.210067" style="fill: #00bfbf; stroke: #00bfbf"/>
     <use xlink:href="#md8c19c8aac" x="361.206572" y="184.261879" style="fill: #00bfbf; stroke: #00bfbf"/>
     <use xlink:href="#md8c19c8aac" x="229.600876" y="237.787272" style="fill: #00bfbf; stroke: #00bfbf"/>
     <use xlink:href="#md8c19c8aac" x="359.57678" y="215.545013" style="fill: #00bfbf; stroke: #00bfbf"/>
     <use xlink:href="#md8c19c8aac" x="246.713691" y="297.079342" style="fill: #00bfbf; stroke: #00bfbf"/>
     <use xlink:href="#md8c19c8aac" x="267.900986" y="293.161818" style="fill: #00bfbf; stroke: #00bfbf"/>
     <use xlink:href="#md8c19c8aac" x="374.652355" y="225.656044" style="fill: #00bfbf; stroke: #00bfbf"/>
     <use xlink:href="#md8c19c8aac" x="174.187952" y="335.41426" style="fill: #00bfbf; stroke: #00bfbf"/>
     <use xlink:href="#md8c19c8aac" x="229.193428" y="303.32923" style="fill: #00bfbf; stroke: #00bfbf"/>
     <use xlink:href="#md8c19c8aac" x="404.396057" y="223.736308" style="fill: #00bfbf; stroke: #00bfbf"/>
     <use xlink:href="#md8c19c8aac" x="421.91632" y="174.60951" style="fill: #00bfbf; stroke: #00bfbf"/>
     <use xlink:href="#md8c19c8aac" x="359.169332" y="232.436178" style="fill: #00bfbf; stroke: #00bfbf"/>
     <use xlink:href="#md8c19c8aac" x="302.126616" y="230.193862" style="fill: #00bfbf; stroke: #00bfbf"/>
     <use xlink:href="#md8c19c8aac" x="260.97437" y="294.24395" style="fill: #00bfbf; stroke: #00bfbf"/>
     <use xlink:href="#md8c19c8aac" x="119.997371" y="354.999714" style="fill: #00bfbf; stroke: #00bfbf"/>
     <use xlink:href="#md8c19c8aac" x="479.773932" y="228.499997" style="fill: #00bfbf; stroke: #00bfbf"/>
     <use xlink:href="#md8c19c8aac" x="197.005038" y="293.174169" style="fill: #00bfbf; stroke: #00bfbf"/>
     <use xlink:href="#md8c19c8aac" x="388.505586" y="186.031098" style="fill: #00bfbf; stroke: #00bfbf"/>
     <use xlink:href="#md8c19c8aac" x="217.377437" y="295.843406" style="fill: #00bfbf; stroke: #00bfbf"/>
     <use xlink:href="#md8c19c8aac" x="177.040088" y="335.686945" style="fill: #00bfbf; stroke: #00bfbf"/>
     <use xlink:href="#md8c19c8aac" x="166.853888" y="333.738257" style="fill: #00bfbf; stroke: #00bfbf"/>
     <use xlink:href="#md8c19c8aac" x="403.173713" y="224.508068" style="fill: #00bfbf; stroke: #00bfbf"/>
     <use xlink:href="#md8c19c8aac" x="469.587733" y="219.409448" style="fill: #00bfbf; stroke: #00bfbf"/>
     <use xlink:href="#md8c19c8aac" x="202.70931" y="300.003904" style="fill: #00bfbf; stroke: #00bfbf"/>
     <use xlink:href="#md8c19c8aac" x="495.664403" y="222.357431" style="fill: #00bfbf; stroke: #00bfbf"/>
     <use xlink:href="#md8c19c8aac" x="212.895509" y="300.227405" style="fill: #00bfbf; stroke: #00bfbf"/>
     <use xlink:href="#md8c19c8aac" x="311.905367" y="235.353691" style="fill: #00bfbf; stroke: #00bfbf"/>
     <use xlink:href="#md8c19c8aac" x="324.128806" y="231.560033" style="fill: #00bfbf; stroke: #00bfbf"/>
     <use xlink:href="#md8c19c8aac" x="347.760789" y="236.292341" style="fill: #00bfbf; stroke: #00bfbf"/>
     <use xlink:href="#md8c19c8aac" x="158.297481" y="333.507695" style="fill: #00bfbf; stroke: #00bfbf"/>
     <use xlink:href="#md8c19c8aac" x="466.735597" y="202.991888" style="fill: #00bfbf; stroke: #00bfbf"/>
     <use xlink:href="#md8c19c8aac" x="253.640307" y="298.464352" style="fill: #00bfbf; stroke: #00bfbf"/>
     <use xlink:href="#md8c19c8aac" x="92.290909" y="369.311591" style="fill: #00bfbf; stroke: #00bfbf"/>
     <use xlink:href="#md8c19c8aac" x="240.601972" y="300.166816" style="fill: #00bfbf; stroke: #00bfbf"/>
     <use xlink:href="#md8c19c8aac" x="279.309529" y="297.723397" style="fill: #00bfbf; stroke: #00bfbf"/>
     <use xlink:href="#md8c19c8aac" x="205.153998" y="282.388152" style="fill: #00bfbf; stroke: #00bfbf"/>
     <use xlink:href="#md8c19c8aac" x="125.294195" y="349.098881" style="fill: #00bfbf; stroke: #00bfbf"/>
     <use xlink:href="#md8c19c8aac" x="212.080613" y="289.503408" style="fill: #00bfbf; stroke: #00bfbf"/>
     <use xlink:href="#md8c19c8aac" x="206.78379" y="292.770078" style="fill: #00bfbf; stroke: #00bfbf"/>
     <use xlink:href="#md8c19c8aac" x="373.022563" y="213.105213" style="fill: #00bfbf; stroke: #00bfbf"/>
     <use xlink:href="#md8c19c8aac" x="141.184666" y="350.229081" style="fill: #00bfbf; stroke: #00bfbf"/>
     <use xlink:href="#md8c19c8aac" x="403.988609" y="216.014338" style="fill: #00bfbf; stroke: #00bfbf"/>
     <use xlink:href="#md8c19c8aac" x="319.23943" y="235.564198" style="fill: #00bfbf; stroke: #00bfbf"/>
     <use xlink:href="#md8c19c8aac" x="448.400438" y="223.265016" style="fill: #00bfbf; stroke: #00bfbf"/>
     <use xlink:href="#md8c19c8aac" x="355.5023" y="216.476389" style="fill: #00bfbf; stroke: #00bfbf"/>
     <use xlink:href="#md8c19c8aac" x="355.5023" y="222.886429" style="fill: #00bfbf; stroke: #00bfbf"/>
     <use xlink:href="#md8c19c8aac" x="217.784885" y="295.62537" style="fill: #00bfbf; stroke: #00bfbf"/>
     <use xlink:href="#md8c19c8aac" x="287.865936" y="297.213363" style="fill: #00bfbf; stroke: #00bfbf"/>
     <use xlink:href="#md8c19c8aac" x="227.563636" y="299.652693" style="fill: #00bfbf; stroke: #00bfbf"/>
     <use xlink:href="#md8c19c8aac" x="440.251479" y="222.814337" style="fill: #00bfbf; stroke: #00bfbf"/>
     <use xlink:href="#md8c19c8aac" x="214.525301" y="297.632012" style="fill: #00bfbf; stroke: #00bfbf"/>
     <use xlink:href="#md8c19c8aac" x="260.97437" y="295.299317" style="fill: #00bfbf; stroke: #00bfbf"/>
     <use xlink:href="#md8c19c8aac" x="304.163855" y="209.572647" style="fill: #00bfbf; stroke: #00bfbf"/>
     <use xlink:href="#md8c19c8aac" x="212.895509" y="293.918271" style="fill: #00bfbf; stroke: #00bfbf"/>
     <use xlink:href="#md8c19c8aac" x="141.592114" y="349.143916" style="fill: #00bfbf; stroke: #00bfbf"/>
     <use xlink:href="#md8c19c8aac" x="217.784885" y="296.730218" style="fill: #00bfbf; stroke: #00bfbf"/>
     <use xlink:href="#md8c19c8aac" x="416.619496" y="222.36103" style="fill: #00bfbf; stroke: #00bfbf"/>
     <use xlink:href="#md8c19c8aac" x="284.198905" y="301.213771" style="fill: #00bfbf; stroke: #00bfbf"/>
     <use xlink:href="#md8c19c8aac" x="417.84184" y="221.810554" style="fill: #00bfbf; stroke: #00bfbf"/>
     <use xlink:href="#md8c19c8aac" x="95.550493" y="367.799267" style="fill: #00bfbf; stroke: #00bfbf"/>
     <use xlink:href="#md8c19c8aac" x="330.647974" y="220.539997" style="fill: #00bfbf; stroke: #00bfbf"/>
     <use xlink:href="#md8c19c8aac" x="348.168237" y="234.340061" style="fill: #00bfbf; stroke: #00bfbf"/>
     <use xlink:href="#md8c19c8aac" x="451.252574" y="202.579252" style="fill: #00bfbf; stroke: #00bfbf"/>
    </g>
   </g>
   <g id="matplotlib.axis_1">
    <g id="xtick_1">
     <g id="line2d_1">
      <defs>
       <path id="mb607499702" d="M 0 0 
L 0 3.5 
" style="stroke: #000000; stroke-width: 0.8"/>
      </defs>
      <g>
       <use xlink:href="#mb607499702" x="91.883461" y="384.48" style="stroke: #000000; stroke-width: 0.8"/>
      </g>
     </g>
     <g id="text_1">
      <!-- 0 -->
      <g transform="translate(88.702211 399.078438) scale(0.1 -0.1)">
       <defs>
        <path id="DejaVuSans-30" d="M 2034 4250 
Q 1547 4250 1301 3770 
Q 1056 3291 1056 2328 
Q 1056 1369 1301 889 
Q 1547 409 2034 409 
Q 2525 409 2770 889 
Q 3016 1369 3016 2328 
Q 3016 3291 2770 3770 
Q 2525 4250 2034 4250 
z
M 2034 4750 
Q 2819 4750 3233 4129 
Q 3647 3509 3647 2328 
Q 3647 1150 3233 529 
Q 2819 -91 2034 -91 
Q 1250 -91 836 529 
Q 422 1150 422 2328 
Q 422 3509 836 4129 
Q 1250 4750 2034 4750 
z
" transform="scale(0.015625)"/>
       </defs>
       <use xlink:href="#DejaVuSans-30"/>
      </g>
     </g>
    </g>
    <g id="xtick_2">
     <g id="line2d_2">
      <g>
       <use xlink:href="#mb607499702" x="173.373056" y="384.48" style="stroke: #000000; stroke-width: 0.8"/>
      </g>
     </g>
     <g id="text_2">
      <!-- 200 -->
      <g transform="translate(163.829306 399.078438) scale(0.1 -0.1)">
       <defs>
        <path id="DejaVuSans-32" d="M 1228 531 
L 3431 531 
L 3431 0 
L 469 0 
L 469 531 
Q 828 903 1448 1529 
Q 2069 2156 2228 2338 
Q 2531 2678 2651 2914 
Q 2772 3150 2772 3378 
Q 2772 3750 2511 3984 
Q 2250 4219 1831 4219 
Q 1534 4219 1204 4116 
Q 875 4013 500 3803 
L 500 4441 
Q 881 4594 1212 4672 
Q 1544 4750 1819 4750 
Q 2544 4750 2975 4387 
Q 3406 4025 3406 3419 
Q 3406 3131 3298 2873 
Q 3191 2616 2906 2266 
Q 2828 2175 2409 1742 
Q 1991 1309 1228 531 
z
" transform="scale(0.015625)"/>
       </defs>
       <use xlink:href="#DejaVuSans-32"/>
       <use xlink:href="#DejaVuSans-30" x="63.623047"/>
       <use xlink:href="#DejaVuSans-30" x="127.246094"/>
      </g>
     </g>
    </g>
    <g id="xtick_3">
     <g id="line2d_3">
      <g>
       <use xlink:href="#mb607499702" x="254.862651" y="384.48" style="stroke: #000000; stroke-width: 0.8"/>
      </g>
     </g>
     <g id="text_3">
      <!-- 400 -->
      <g transform="translate(245.318901 399.078438) scale(0.1 -0.1)">
       <defs>
        <path id="DejaVuSans-34" d="M 2419 4116 
L 825 1625 
L 2419 1625 
L 2419 4116 
z
M 2253 4666 
L 3047 4666 
L 3047 1625 
L 3713 1625 
L 3713 1100 
L 3047 1100 
L 3047 0 
L 2419 0 
L 2419 1100 
L 313 1100 
L 313 1709 
L 2253 4666 
z
" transform="scale(0.015625)"/>
       </defs>
       <use xlink:href="#DejaVuSans-34"/>
       <use xlink:href="#DejaVuSans-30" x="63.623047"/>
       <use xlink:href="#DejaVuSans-30" x="127.246094"/>
      </g>
     </g>
    </g>
    <g id="xtick_4">
     <g id="line2d_4">
      <g>
       <use xlink:href="#mb607499702" x="336.352245" y="384.48" style="stroke: #000000; stroke-width: 0.8"/>
      </g>
     </g>
     <g id="text_4">
      <!-- 600 -->
      <g transform="translate(326.808495 399.078438) scale(0.1 -0.1)">
       <defs>
        <path id="DejaVuSans-36" d="M 2113 2584 
Q 1688 2584 1439 2293 
Q 1191 2003 1191 1497 
Q 1191 994 1439 701 
Q 1688 409 2113 409 
Q 2538 409 2786 701 
Q 3034 994 3034 1497 
Q 3034 2003 2786 2293 
Q 2538 2584 2113 2584 
z
M 3366 4563 
L 3366 3988 
Q 3128 4100 2886 4159 
Q 2644 4219 2406 4219 
Q 1781 4219 1451 3797 
Q 1122 3375 1075 2522 
Q 1259 2794 1537 2939 
Q 1816 3084 2150 3084 
Q 2853 3084 3261 2657 
Q 3669 2231 3669 1497 
Q 3669 778 3244 343 
Q 2819 -91 2113 -91 
Q 1303 -91 875 529 
Q 447 1150 447 2328 
Q 447 3434 972 4092 
Q 1497 4750 2381 4750 
Q 2619 4750 2861 4703 
Q 3103 4656 3366 4563 
z
" transform="scale(0.015625)"/>
       </defs>
       <use xlink:href="#DejaVuSans-36"/>
       <use xlink:href="#DejaVuSans-30" x="63.623047"/>
       <use xlink:href="#DejaVuSans-30" x="127.246094"/>
      </g>
     </g>
    </g>
    <g id="xtick_5">
     <g id="line2d_5">
      <g>
       <use xlink:href="#mb607499702" x="417.84184" y="384.48" style="stroke: #000000; stroke-width: 0.8"/>
      </g>
     </g>
     <g id="text_5">
      <!-- 800 -->
      <g transform="translate(408.29809 399.078438) scale(0.1 -0.1)">
       <defs>
        <path id="DejaVuSans-38" d="M 2034 2216 
Q 1584 2216 1326 1975 
Q 1069 1734 1069 1313 
Q 1069 891 1326 650 
Q 1584 409 2034 409 
Q 2484 409 2743 651 
Q 3003 894 3003 1313 
Q 3003 1734 2745 1975 
Q 2488 2216 2034 2216 
z
M 1403 2484 
Q 997 2584 770 2862 
Q 544 3141 544 3541 
Q 544 4100 942 4425 
Q 1341 4750 2034 4750 
Q 2731 4750 3128 4425 
Q 3525 4100 3525 3541 
Q 3525 3141 3298 2862 
Q 3072 2584 2669 2484 
Q 3125 2378 3379 2068 
Q 3634 1759 3634 1313 
Q 3634 634 3220 271 
Q 2806 -91 2034 -91 
Q 1263 -91 848 271 
Q 434 634 434 1313 
Q 434 1759 690 2068 
Q 947 2378 1403 2484 
z
M 1172 3481 
Q 1172 3119 1398 2916 
Q 1625 2713 2034 2713 
Q 2441 2713 2670 2916 
Q 2900 3119 2900 3481 
Q 2900 3844 2670 4047 
Q 2441 4250 2034 4250 
Q 1625 4250 1398 4047 
Q 1172 3844 1172 3481 
z
" transform="scale(0.015625)"/>
       </defs>
       <use xlink:href="#DejaVuSans-38"/>
       <use xlink:href="#DejaVuSans-30" x="63.623047"/>
       <use xlink:href="#DejaVuSans-30" x="127.246094"/>
      </g>
     </g>
    </g>
    <g id="xtick_6">
     <g id="line2d_6">
      <g>
       <use xlink:href="#mb607499702" x="499.331435" y="384.48" style="stroke: #000000; stroke-width: 0.8"/>
      </g>
     </g>
     <g id="text_6">
      <!-- 1000 -->
      <g transform="translate(486.606435 399.078438) scale(0.1 -0.1)">
       <defs>
        <path id="DejaVuSans-31" d="M 794 531 
L 1825 531 
L 1825 4091 
L 703 3866 
L 703 4441 
L 1819 4666 
L 2450 4666 
L 2450 531 
L 3481 531 
L 3481 0 
L 794 0 
L 794 531 
z
" transform="scale(0.015625)"/>
       </defs>
       <use xlink:href="#DejaVuSans-31"/>
       <use xlink:href="#DejaVuSans-30" x="63.623047"/>
       <use xlink:href="#DejaVuSans-30" x="127.246094"/>
       <use xlink:href="#DejaVuSans-30" x="190.869141"/>
      </g>
     </g>
    </g>
    <g id="text_7">
     <!-- value -->
     <g transform="translate(281.542188 412.756563) scale(0.1 -0.1)">
      <defs>
       <path id="DejaVuSans-76" d="M 191 3500 
L 800 3500 
L 1894 563 
L 2988 3500 
L 3597 3500 
L 2284 0 
L 1503 0 
L 191 3500 
z
" transform="scale(0.015625)"/>
       <path id="DejaVuSans-61" d="M 2194 1759 
Q 1497 1759 1228 1600 
Q 959 1441 959 1056 
Q 959 750 1161 570 
Q 1363 391 1709 391 
Q 2188 391 2477 730 
Q 2766 1069 2766 1631 
L 2766 1759 
L 2194 1759 
z
M 3341 1997 
L 3341 0 
L 2766 0 
L 2766 531 
Q 2569 213 2275 61 
Q 1981 -91 1556 -91 
Q 1019 -91 701 211 
Q 384 513 384 1019 
Q 384 1609 779 1909 
Q 1175 2209 1959 2209 
L 2766 2209 
L 2766 2266 
Q 2766 2663 2505 2880 
Q 2244 3097 1772 3097 
Q 1472 3097 1187 3025 
Q 903 2953 641 2809 
L 641 3341 
Q 956 3463 1253 3523 
Q 1550 3584 1831 3584 
Q 2591 3584 2966 3190 
Q 3341 2797 3341 1997 
z
" transform="scale(0.015625)"/>
       <path id="DejaVuSans-6c" d="M 603 4863 
L 1178 4863 
L 1178 0 
L 603 0 
L 603 4863 
z
" transform="scale(0.015625)"/>
       <path id="DejaVuSans-75" d="M 544 1381 
L 544 3500 
L 1119 3500 
L 1119 1403 
Q 1119 906 1312 657 
Q 1506 409 1894 409 
Q 2359 409 2629 706 
Q 2900 1003 2900 1516 
L 2900 3500 
L 3475 3500 
L 3475 0 
L 2900 0 
L 2900 538 
Q 2691 219 2414 64 
Q 2138 -91 1772 -91 
Q 1169 -91 856 284 
Q 544 659 544 1381 
z
M 1991 3584 
L 1991 3584 
z
" transform="scale(0.015625)"/>
       <path id="DejaVuSans-65" d="M 3597 1894 
L 3597 1613 
L 953 1613 
Q 991 1019 1311 708 
Q 1631 397 2203 397 
Q 2534 397 2845 478 
Q 3156 559 3463 722 
L 3463 178 
Q 3153 47 2828 -22 
Q 2503 -91 2169 -91 
Q 1331 -91 842 396 
Q 353 884 353 1716 
Q 353 2575 817 3079 
Q 1281 3584 2069 3584 
Q 2775 3584 3186 3129 
Q 3597 2675 3597 1894 
z
M 3022 2063 
Q 3016 2534 2758 2815 
Q 2500 3097 2075 3097 
Q 1594 3097 1305 2825 
Q 1016 2553 972 2059 
L 3022 2063 
z
" transform="scale(0.015625)"/>
      </defs>
      <use xlink:href="#DejaVuSans-76"/>
      <use xlink:href="#DejaVuSans-61" x="59.179688"/>
      <use xlink:href="#DejaVuSans-6c" x="120.458984"/>
      <use xlink:href="#DejaVuSans-75" x="148.242188"/>
      <use xlink:href="#DejaVuSans-65" x="211.621094"/>
     </g>
    </g>
   </g>
   <g id="matplotlib.axis_2">
    <g id="ytick_1">
     <g id="line2d_7">
      <defs>
       <path id="m586a275643" d="M 0 0 
L -3.5 0 
" style="stroke: #000000; stroke-width: 0.8"/>
      </defs>
      <g>
       <use xlink:href="#m586a275643" x="72" y="337.458602" style="stroke: #000000; stroke-width: 0.8"/>
      </g>
     </g>
     <g id="text_8">
      <!-- 0.05 -->
      <g transform="translate(42.734375 341.257821) scale(0.1 -0.1)">
       <defs>
        <path id="DejaVuSans-2e" d="M 684 794 
L 1344 794 
L 1344 0 
L 684 0 
L 684 794 
z
" transform="scale(0.015625)"/>
        <path id="DejaVuSans-35" d="M 691 4666 
L 3169 4666 
L 3169 4134 
L 1269 4134 
L 1269 2991 
Q 1406 3038 1543 3061 
Q 1681 3084 1819 3084 
Q 2600 3084 3056 2656 
Q 3513 2228 3513 1497 
Q 3513 744 3044 326 
Q 2575 -91 1722 -91 
Q 1428 -91 1123 -41 
Q 819 9 494 109 
L 494 744 
Q 775 591 1075 516 
Q 1375 441 1709 441 
Q 2250 441 2565 725 
Q 2881 1009 2881 1497 
Q 2881 1984 2565 2268 
Q 2250 2553 1709 2553 
Q 1456 2553 1204 2497 
Q 953 2441 691 2322 
L 691 4666 
z
" transform="scale(0.015625)"/>
       </defs>
       <use xlink:href="#DejaVuSans-30"/>
       <use xlink:href="#DejaVuSans-2e" x="63.623047"/>
       <use xlink:href="#DejaVuSans-30" x="95.410156"/>
       <use xlink:href="#DejaVuSans-35" x="159.033203"/>
      </g>
     </g>
    </g>
    <g id="ytick_2">
     <g id="line2d_8">
      <g>
       <use xlink:href="#m586a275643" x="72" y="289.474301" style="stroke: #000000; stroke-width: 0.8"/>
      </g>
     </g>
     <g id="text_9">
      <!-- 0.10 -->
      <g transform="translate(42.734375 293.27352) scale(0.1 -0.1)">
       <use xlink:href="#DejaVuSans-30"/>
       <use xlink:href="#DejaVuSans-2e" x="63.623047"/>
       <use xlink:href="#DejaVuSans-31" x="95.410156"/>
       <use xlink:href="#DejaVuSans-30" x="159.033203"/>
      </g>
     </g>
    </g>
    <g id="ytick_3">
     <g id="line2d_9">
      <g>
       <use xlink:href="#m586a275643" x="72" y="241.49" style="stroke: #000000; stroke-width: 0.8"/>
      </g>
     </g>
     <g id="text_10">
      <!-- 0.15 -->
      <g transform="translate(42.734375 245.289219) scale(0.1 -0.1)">
       <use xlink:href="#DejaVuSans-30"/>
       <use xlink:href="#DejaVuSans-2e" x="63.623047"/>
       <use xlink:href="#DejaVuSans-31" x="95.410156"/>
       <use xlink:href="#DejaVuSans-35" x="159.033203"/>
      </g>
     </g>
    </g>
    <g id="ytick_4">
     <g id="line2d_10">
      <g>
       <use xlink:href="#m586a275643" x="72" y="193.505699" style="stroke: #000000; stroke-width: 0.8"/>
      </g>
     </g>
     <g id="text_11">
      <!-- 0.20 -->
      <g transform="translate(42.734375 197.304918) scale(0.1 -0.1)">
       <use xlink:href="#DejaVuSans-30"/>
       <use xlink:href="#DejaVuSans-2e" x="63.623047"/>
       <use xlink:href="#DejaVuSans-32" x="95.410156"/>
       <use xlink:href="#DejaVuSans-30" x="159.033203"/>
      </g>
     </g>
    </g>
    <g id="ytick_5">
     <g id="line2d_11">
      <g>
       <use xlink:href="#m586a275643" x="72" y="145.521398" style="stroke: #000000; stroke-width: 0.8"/>
      </g>
     </g>
     <g id="text_12">
      <!-- 0.25 -->
      <g transform="translate(42.734375 149.320617) scale(0.1 -0.1)">
       <use xlink:href="#DejaVuSans-30"/>
       <use xlink:href="#DejaVuSans-2e" x="63.623047"/>
       <use xlink:href="#DejaVuSans-32" x="95.410156"/>
       <use xlink:href="#DejaVuSans-35" x="159.033203"/>
      </g>
     </g>
    </g>
    <g id="ytick_6">
     <g id="line2d_12">
      <g>
       <use xlink:href="#m586a275643" x="72" y="97.537097" style="stroke: #000000; stroke-width: 0.8"/>
      </g>
     </g>
     <g id="text_13">
      <!-- 0.30 -->
      <g transform="translate(42.734375 101.336316) scale(0.1 -0.1)">
       <defs>
        <path id="DejaVuSans-33" d="M 2597 2516 
Q 3050 2419 3304 2112 
Q 3559 1806 3559 1356 
Q 3559 666 3084 287 
Q 2609 -91 1734 -91 
Q 1441 -91 1130 -33 
Q 819 25 488 141 
L 488 750 
Q 750 597 1062 519 
Q 1375 441 1716 441 
Q 2309 441 2620 675 
Q 2931 909 2931 1356 
Q 2931 1769 2642 2001 
Q 2353 2234 1838 2234 
L 1294 2234 
L 1294 2753 
L 1863 2753 
Q 2328 2753 2575 2939 
Q 2822 3125 2822 3475 
Q 2822 3834 2567 4026 
Q 2313 4219 1838 4219 
Q 1578 4219 1281 4162 
Q 984 4106 628 3988 
L 628 4550 
Q 988 4650 1302 4700 
Q 1616 4750 1894 4750 
Q 2613 4750 3031 4423 
Q 3450 4097 3450 3541 
Q 3450 3153 3228 2886 
Q 3006 2619 2597 2516 
z
" transform="scale(0.015625)"/>
       </defs>
       <use xlink:href="#DejaVuSans-30"/>
       <use xlink:href="#DejaVuSans-2e" x="63.623047"/>
       <use xlink:href="#DejaVuSans-33" x="95.410156"/>
       <use xlink:href="#DejaVuSans-30" x="159.033203"/>
      </g>
     </g>
    </g>
    <g id="text_14">
     <!-- time taken (in s) -->
     <g transform="translate(36.654687 259.270937) rotate(-90) scale(0.1 -0.1)">
      <defs>
       <path id="DejaVuSans-74" d="M 1172 4494 
L 1172 3500 
L 2356 3500 
L 2356 3053 
L 1172 3053 
L 1172 1153 
Q 1172 725 1289 603 
Q 1406 481 1766 481 
L 2356 481 
L 2356 0 
L 1766 0 
Q 1100 0 847 248 
Q 594 497 594 1153 
L 594 3053 
L 172 3053 
L 172 3500 
L 594 3500 
L 594 4494 
L 1172 4494 
z
" transform="scale(0.015625)"/>
       <path id="DejaVuSans-69" d="M 603 3500 
L 1178 3500 
L 1178 0 
L 603 0 
L 603 3500 
z
M 603 4863 
L 1178 4863 
L 1178 4134 
L 603 4134 
L 603 4863 
z
" transform="scale(0.015625)"/>
       <path id="DejaVuSans-6d" d="M 3328 2828 
Q 3544 3216 3844 3400 
Q 4144 3584 4550 3584 
Q 5097 3584 5394 3201 
Q 5691 2819 5691 2113 
L 5691 0 
L 5113 0 
L 5113 2094 
Q 5113 2597 4934 2840 
Q 4756 3084 4391 3084 
Q 3944 3084 3684 2787 
Q 3425 2491 3425 1978 
L 3425 0 
L 2847 0 
L 2847 2094 
Q 2847 2600 2669 2842 
Q 2491 3084 2119 3084 
Q 1678 3084 1418 2786 
Q 1159 2488 1159 1978 
L 1159 0 
L 581 0 
L 581 3500 
L 1159 3500 
L 1159 2956 
Q 1356 3278 1631 3431 
Q 1906 3584 2284 3584 
Q 2666 3584 2933 3390 
Q 3200 3197 3328 2828 
z
" transform="scale(0.015625)"/>
       <path id="DejaVuSans-20" transform="scale(0.015625)"/>
       <path id="DejaVuSans-6b" d="M 581 4863 
L 1159 4863 
L 1159 1991 
L 2875 3500 
L 3609 3500 
L 1753 1863 
L 3688 0 
L 2938 0 
L 1159 1709 
L 1159 0 
L 581 0 
L 581 4863 
z
" transform="scale(0.015625)"/>
       <path id="DejaVuSans-6e" d="M 3513 2113 
L 3513 0 
L 2938 0 
L 2938 2094 
Q 2938 2591 2744 2837 
Q 2550 3084 2163 3084 
Q 1697 3084 1428 2787 
Q 1159 2491 1159 1978 
L 1159 0 
L 581 0 
L 581 3500 
L 1159 3500 
L 1159 2956 
Q 1366 3272 1645 3428 
Q 1925 3584 2291 3584 
Q 2894 3584 3203 3211 
Q 3513 2838 3513 2113 
z
" transform="scale(0.015625)"/>
       <path id="DejaVuSans-28" d="M 1984 4856 
Q 1566 4138 1362 3434 
Q 1159 2731 1159 2009 
Q 1159 1288 1364 580 
Q 1569 -128 1984 -844 
L 1484 -844 
Q 1016 -109 783 600 
Q 550 1309 550 2009 
Q 550 2706 781 3412 
Q 1013 4119 1484 4856 
L 1984 4856 
z
" transform="scale(0.015625)"/>
       <path id="DejaVuSans-73" d="M 2834 3397 
L 2834 2853 
Q 2591 2978 2328 3040 
Q 2066 3103 1784 3103 
Q 1356 3103 1142 2972 
Q 928 2841 928 2578 
Q 928 2378 1081 2264 
Q 1234 2150 1697 2047 
L 1894 2003 
Q 2506 1872 2764 1633 
Q 3022 1394 3022 966 
Q 3022 478 2636 193 
Q 2250 -91 1575 -91 
Q 1294 -91 989 -36 
Q 684 19 347 128 
L 347 722 
Q 666 556 975 473 
Q 1284 391 1588 391 
Q 1994 391 2212 530 
Q 2431 669 2431 922 
Q 2431 1156 2273 1281 
Q 2116 1406 1581 1522 
L 1381 1569 
Q 847 1681 609 1914 
Q 372 2147 372 2553 
Q 372 3047 722 3315 
Q 1072 3584 1716 3584 
Q 2034 3584 2315 3537 
Q 2597 3491 2834 3397 
z
" transform="scale(0.015625)"/>
       <path id="DejaVuSans-29" d="M 513 4856 
L 1013 4856 
Q 1481 4119 1714 3412 
Q 1947 2706 1947 2009 
Q 1947 1309 1714 600 
Q 1481 -109 1013 -844 
L 513 -844 
Q 928 -128 1133 580 
Q 1338 1288 1338 2009 
Q 1338 2731 1133 3434 
Q 928 4138 513 4856 
z
" transform="scale(0.015625)"/>
      </defs>
      <use xlink:href="#DejaVuSans-74"/>
      <use xlink:href="#DejaVuSans-69" x="39.208984"/>
      <use xlink:href="#DejaVuSans-6d" x="66.992188"/>
      <use xlink:href="#DejaVuSans-65" x="164.404297"/>
      <use xlink:href="#DejaVuSans-20" x="225.927734"/>
      <use xlink:href="#DejaVuSans-74" x="257.714844"/>
      <use xlink:href="#DejaVuSans-61" x="296.923828"/>
      <use xlink:href="#DejaVuSans-6b" x="358.203125"/>
      <use xlink:href="#DejaVuSans-65" x="412.488281"/>
      <use xlink:href="#DejaVuSans-6e" x="474.011719"/>
      <use xlink:href="#DejaVuSans-20" x="537.390625"/>
      <use xlink:href="#DejaVuSans-28" x="569.177734"/>
      <use xlink:href="#DejaVuSans-69" x="608.191406"/>
      <use xlink:href="#DejaVuSans-6e" x="635.974609"/>
      <use xlink:href="#DejaVuSans-20" x="699.353516"/>
      <use xlink:href="#DejaVuSans-73" x="731.140625"/>
      <use xlink:href="#DejaVuSans-29" x="783.240234"/>
     </g>
    </g>
   </g>
   <g id="line2d_13">
    <path d="M 332.685214 177.753981 
L 159.927273 295.195602 
L 317.609639 188.002425 
L 96.365389 338.405254 
L 355.5023 162.242824 
L 302.126616 198.527853 
L 428.028039 112.939502 
L 176.225192 284.116203 
L 358.354436 160.303929 
L 125.701643 318.462338 
L 295.2 203.236597 
L 465.920701 87.179902 
L 232.86046 245.615295 
L 390.950274 138.145133 
L 123.256955 320.124247 
L 137.517634 310.429774 
L 308.645783 194.096094 
L 167.261336 290.209872 
L 103.292004 333.69651 
L 396.247097 134.544329 
L 157.482585 296.857511 
L 200.264622 267.774091 
L 225.526396 250.601024 
L 203.116758 265.835197 
L 488.737788 71.668744 
L 295.607448 202.959612 
L 146.48149 304.336105 
L 343.686309 170.275388 
L 481.403724 76.654473 
L 342.871413 170.829358 
L 449.215334 98.536285 
L 479.366484 78.039398 
L 168.076232 289.655902 
L 495.664403 66.96 
L 412.952464 123.187946 
L 93.105805 340.621134 
L 159.927273 295.195602 
L 350.612924 165.566643 
L 344.093757 169.998403 
L 149.333625 302.39721 
L 318.831982 187.17147 
L 312.312815 191.603229 
L 442.696166 102.968044 
L 461.031325 90.503721 
L 161.964513 293.810677 
L 242.639211 238.967656 
L 366.503395 154.76423 
L 377.097043 147.562621 
L 317.202191 188.27941 
L 310.275575 192.988154 
L 293.977656 204.067552 
L 402.358817 130.389554 
L 413.359912 122.910961 
L 137.517634 310.429774 
" clip-path="url(#pd41e3a2838)" style="fill: none; stroke: #ff0000; stroke-width: 1.5; stroke-linecap: square"/>
   </g>
   <g id="line2d_14">
    <path d="M 95.143045 354.285705 
L 482.626068 177.488894 
L 208.006134 302.789684 
L 256.89989 280.480938 
L 151.370865 328.630648 
L 419.87908 206.118451 
L 360.391676 233.260759 
L 217.377437 298.513841 
L 126.923987 339.785021 
L 170.52092 319.893055 
L 307.015991 257.614473 
L 464.698357 185.668767 
L 273.197809 273.044689 
L 337.574589 243.671507 
L 287.865936 266.352065 
L 356.724644 234.933915 
L 456.549398 189.386892 
L 334.315005 245.158757 
L 251.603067 282.897718 
L 380.764074 223.965448 
L 306.201095 257.986285 
L 441.881271 196.079516 
L 481.403724 178.046613 
L 138.33253 334.579646 
L 463.476013 186.226486 
L 313.127711 254.82588 
L 272.790361 273.230595 
L 250.380723 283.455437 
L 309.053231 256.684942 
L 258.122234 279.923219 
L 387.283242 220.990949 
L 132.220811 337.36824 
L 311.497919 255.569505 
L 361.61402 232.70304 
L 201.079518 305.950089 
L 249.973275 283.641343 
L 184.781599 313.386338 
L 118.367579 343.689051 
L 434.139759 199.611734 
L 319.646878 251.85138 
L 469.995181 183.251987 
L 263.826506 277.320532 
L 453.697262 190.688235 
L 332.277766 246.088288 
L 327.795838 248.133256 
L 237.342388 289.404436 
L 462.661117 186.598299 
L 407.248193 211.881544 
L 342.871413 241.254726 
L 389.72793 219.875511 
L 276.864841 271.371533 
L 390.135378 219.689605 
L 430.065279 201.470796 
L 424.361008 204.073483 
L 344.093757 240.697007 
L 298.867032 261.332597 
L 428.028039 202.400327 
L 218.192333 298.142028 
L 250.788171 283.269531 
L 460.623877 187.52783 
L 405.210953 212.811075 
L 243.454107 286.615843 
L 108.996276 347.964894 
L 118.367579 343.689051 
L 97.995181 352.984362 
L 181.114567 315.059494 
L 498.109091 170.424458 
L 248.343483 284.384968 
L 278.494633 270.627908 
L 409.692881 210.766107 
L 111.033516 347.035363 
" clip-path="url(#pd41e3a2838)" style="fill: none; stroke-dasharray: 5.55,2.4; stroke-dashoffset: 0; stroke: #0000ff; stroke-width: 1.5"/>
   </g>
   <g id="line2d_15">
    <path d="M 190.078423 312.860376 
L 326.166046 253.571762 
L 155.445345 327.948796 
L 245.898795 288.541394 
L 348.983133 243.631156 
L 281.346769 273.097952 
L 385.246002 227.832692 
L 423.546112 211.146675 
L 313.127711 259.252108 
L 468.365389 191.620485 
L 408.877985 217.537065 
L 95.957941 353.865376 
L 438.621687 204.578775 
L 416.212048 214.34187 
L 254.455203 284.813666 
L 361.206572 238.305831 
L 229.600876 295.641827 
L 359.57678 239.015874 
L 246.713691 288.186372 
L 267.900986 278.955809 
L 374.652355 232.447974 
L 174.187952 319.783298 
L 229.193428 295.819337 
L 404.396057 219.489684 
L 421.91632 211.856718 
L 359.169332 239.193385 
L 302.126616 264.0449 
L 260.97437 281.973493 
L 119.997371 343.392238 
L 479.773932 186.650182 
L 197.005038 309.842692 
L 388.505586 226.412606 
L 217.377437 300.967151 
L 177.040088 318.540723 
L 166.853888 322.978493 
L 403.173713 220.022216 
L 469.587733 191.087952 
L 202.70931 307.357541 
L 495.664403 179.72726 
L 212.895509 302.91977 
L 311.905367 259.78464 
L 324.128806 254.459316 
L 347.760789 244.163688 
L 158.297481 326.70622 
L 466.735597 192.330528 
L 253.640307 285.168688 
L 92.290909 355.462974 
L 240.601972 290.849034 
L 279.309529 273.985506 
L 205.153998 306.292476 
L 125.294195 341.084597 
L 212.080613 303.274792 
L 206.78379 305.582433 
L 373.022563 233.158017 
L 141.184666 334.161675 
L 403.988609 219.667195 
L 319.23943 256.589446 
L 448.400438 200.318515 
L 355.5023 240.790982 
L 355.5023 240.790982 
L 217.784885 300.78964 
L 287.865936 270.257779 
L 227.563636 296.529381 
L 440.251479 203.868731 
L 214.525301 302.209727 
L 260.97437 281.973493 
L 304.163855 263.157346 
L 212.895509 302.91977 
L 141.592114 333.984164 
L 217.784885 300.78964 
L 416.619496 214.164359 
L 284.198905 271.855376 
L 417.84184 213.631827 
L 95.550493 354.042887 
L 330.647974 251.619143 
L 348.168237 243.986177 
L 451.252574 199.075939 
" clip-path="url(#pd41e3a2838)" style="fill: none; stroke-dasharray: 9.6,2.4,1.5,2.4; stroke-dashoffset: 0; stroke: #00bfbf; stroke-width: 1.5"/>
   </g>
   <g id="patch_3">
    <path d="M 72 384.48 
L 72 51.84 
" style="fill: none; stroke: #000000; stroke-width: 0.8; stroke-linejoin: miter; stroke-linecap: square"/>
   </g>
   <g id="patch_4">
    <path d="M 518.4 384.48 
L 518.4 51.84 
" style="fill: none; stroke: #000000; stroke-width: 0.8; stroke-linejoin: miter; stroke-linecap: square"/>
   </g>
   <g id="patch_5">
    <path d="M 72 384.48 
L 518.4 384.48 
" style="fill: none; stroke: #000000; stroke-width: 0.8; stroke-linejoin: miter; stroke-linecap: square"/>
   </g>
   <g id="patch_6">
    <path d="M 72 51.84 
L 518.4 51.84 
" style="fill: none; stroke: #000000; stroke-width: 0.8; stroke-linejoin: miter; stroke-linecap: square"/>
   </g>
   <g id="text_15">
    <!-- Here is a sample description of the bench -->
    <g transform="translate(169.944375 45.84) scale(0.12 -0.12)">
     <defs>
      <path id="DejaVuSans-48" d="M 628 4666 
L 1259 4666 
L 1259 2753 
L 3553 2753 
L 3553 4666 
L 4184 4666 
L 4184 0 
L 3553 0 
L 3553 2222 
L 1259 2222 
L 1259 0 
L 628 0 
L 628 4666 
z
" transform="scale(0.015625)"/>
      <path id="DejaVuSans-72" d="M 2631 2963 
Q 2534 3019 2420 3045 
Q 2306 3072 2169 3072 
Q 1681 3072 1420 2755 
Q 1159 2438 1159 1844 
L 1159 0 
L 581 0 
L 581 3500 
L 1159 3500 
L 1159 2956 
Q 1341 3275 1631 3429 
Q 1922 3584 2338 3584 
Q 2397 3584 2469 3576 
Q 2541 3569 2628 3553 
L 2631 2963 
z
" transform="scale(0.015625)"/>
      <path id="DejaVuSans-70" d="M 1159 525 
L 1159 -1331 
L 581 -1331 
L 581 3500 
L 1159 3500 
L 1159 2969 
Q 1341 3281 1617 3432 
Q 1894 3584 2278 3584 
Q 2916 3584 3314 3078 
Q 3713 2572 3713 1747 
Q 3713 922 3314 415 
Q 2916 -91 2278 -91 
Q 1894 -91 1617 61 
Q 1341 213 1159 525 
z
M 3116 1747 
Q 3116 2381 2855 2742 
Q 2594 3103 2138 3103 
Q 1681 3103 1420 2742 
Q 1159 2381 1159 1747 
Q 1159 1113 1420 752 
Q 1681 391 2138 391 
Q 2594 391 2855 752 
Q 3116 1113 3116 1747 
z
" transform="scale(0.015625)"/>
      <path id="DejaVuSans-64" d="M 2906 2969 
L 2906 4863 
L 3481 4863 
L 3481 0 
L 2906 0 
L 2906 525 
Q 2725 213 2448 61 
Q 2172 -91 1784 -91 
Q 1150 -91 751 415 
Q 353 922 353 1747 
Q 353 2572 751 3078 
Q 1150 3584 1784 3584 
Q 2172 3584 2448 3432 
Q 2725 3281 2906 2969 
z
M 947 1747 
Q 947 1113 1208 752 
Q 1469 391 1925 391 
Q 2381 391 2643 752 
Q 2906 1113 2906 1747 
Q 2906 2381 2643 2742 
Q 2381 3103 1925 3103 
Q 1469 3103 1208 2742 
Q 947 2381 947 1747 
z
" transform="scale(0.015625)"/>
      <path id="DejaVuSans-63" d="M 3122 3366 
L 3122 2828 
Q 2878 2963 2633 3030 
Q 2388 3097 2138 3097 
Q 1578 3097 1268 2742 
Q 959 2388 959 1747 
Q 959 1106 1268 751 
Q 1578 397 2138 397 
Q 2388 397 2633 464 
Q 2878 531 3122 666 
L 3122 134 
Q 2881 22 2623 -34 
Q 2366 -91 2075 -91 
Q 1284 -91 818 406 
Q 353 903 353 1747 
Q 353 2603 823 3093 
Q 1294 3584 2113 3584 
Q 2378 3584 2631 3529 
Q 2884 3475 3122 3366 
z
" transform="scale(0.015625)"/>
      <path id="DejaVuSans-6f" d="M 1959 3097 
Q 1497 3097 1228 2736 
Q 959 2375 959 1747 
Q 959 1119 1226 758 
Q 1494 397 1959 397 
Q 2419 397 2687 759 
Q 2956 1122 2956 1747 
Q 2956 2369 2687 2733 
Q 2419 3097 1959 3097 
z
M 1959 3584 
Q 2709 3584 3137 3096 
Q 3566 2609 3566 1747 
Q 3566 888 3137 398 
Q 2709 -91 1959 -91 
Q 1206 -91 779 398 
Q 353 888 353 1747 
Q 353 2609 779 3096 
Q 1206 3584 1959 3584 
z
" transform="scale(0.015625)"/>
      <path id="DejaVuSans-66" d="M 2375 4863 
L 2375 4384 
L 1825 4384 
Q 1516 4384 1395 4259 
Q 1275 4134 1275 3809 
L 1275 3500 
L 2222 3500 
L 2222 3053 
L 1275 3053 
L 1275 0 
L 697 0 
L 697 3053 
L 147 3053 
L 147 3500 
L 697 3500 
L 697 3744 
Q 697 4328 969 4595 
Q 1241 4863 1831 4863 
L 2375 4863 
z
" transform="scale(0.015625)"/>
      <path id="DejaVuSans-68" d="M 3513 2113 
L 3513 0 
L 2938 0 
L 2938 2094 
Q 2938 2591 2744 2837 
Q 2550 3084 2163 3084 
Q 1697 3084 1428 2787 
Q 1159 2491 1159 1978 
L 1159 0 
L 581 0 
L 581 4863 
L 1159 4863 
L 1159 2956 
Q 1366 3272 1645 3428 
Q 1925 3584 2291 3584 
Q 2894 3584 3203 3211 
Q 3513 2838 3513 2113 
z
" transform="scale(0.015625)"/>
      <path id="DejaVuSans-62" d="M 3116 1747 
Q 3116 2381 2855 2742 
Q 2594 3103 2138 3103 
Q 1681 3103 1420 2742 
Q 1159 2381 1159 1747 
Q 1159 1113 1420 752 
Q 1681 391 2138 391 
Q 2594 391 2855 752 
Q 3116 1113 3116 1747 
z
M 1159 2969 
Q 1341 3281 1617 3432 
Q 1894 3584 2278 3584 
Q 2916 3584 3314 3078 
Q 3713 2572 3713 1747 
Q 3713 922 3314 415 
Q 2916 -91 2278 -91 
Q 1894 -91 1617 61 
Q 1341 213 1159 525 
L 1159 0 
L 581 0 
L 581 4863 
L 1159 4863 
L 1159 2969 
z
" transform="scale(0.015625)"/>
     </defs>
     <use xlink:href="#DejaVuSans-48"/>
     <use xlink:href="#DejaVuSans-65" x="75.195312"/>
     <use xlink:href="#DejaVuSans-72" x="136.71875"/>
     <use xlink:href="#DejaVuSans-65" x="175.582031"/>
     <use xlink:href="#DejaVuSans-20" x="237.105469"/>
     <use xlink:href="#DejaVuSans-69" x="268.892578"/>
     <use xlink:href="#DejaVuSans-73" x="296.675781"/>
     <use xlink:href="#DejaVuSans-20" x="348.775391"/>
     <use xlink:href="#DejaVuSans-61" x="380.5625"/>
     <use xlink:href="#DejaVuSans-20" x="441.841797"/>
     <use xlink:href="#DejaVuSans-73" x="473.628906"/>
     <use xlink:href="#DejaVuSans-61" x="525.728516"/>
     <use xlink:href="#DejaVuSans-6d" x="587.007812"/>
     <use xlink:href="#DejaVuSans-70" x="684.419922"/>
     <use xlink:href="#DejaVuSans-6c" x="747.896484"/>
     <use xlink:href="#DejaVuSans-65" x="775.679688"/>
     <use xlink:href="#DejaVuSans-20" x="837.203125"/>
     <use xlink:href="#DejaVuSans-64" x="868.990234"/>
     <use xlink:href="#DejaVuSans-65" x="932.466797"/>
     <use xlink:href="#DejaVuSans-73" x="993.990234"/>
     <use xlink:href="#DejaVuSans-63" x="1046.089844"/>
     <use xlink:href="#DejaVuSans-72" x="1101.070312"/>
     <use xlink:href="#DejaVuSans-69" x="1142.183594"/>
     <use xlink:href="#DejaVuSans-70" x="1169.966797"/>
     <use xlink:href="#DejaVuSans-74" x="1233.443359"/>
     <use xlink:href="#DejaVuSans-69" x="1272.652344"/>
     <use xlink:href="#DejaVuSans-6f" x="1300.435547"/>
     <use xlink:href="#DejaVuSans-6e" x="1361.617188"/>
     <use xlink:href="#DejaVuSans-20" x="1424.996094"/>
     <use xlink:href="#DejaVuSans-6f" x="1456.783203"/>
     <use xlink:href="#DejaVuSans-66" x="1517.964844"/>
     <use xlink:href="#DejaVuSans-20" x="1553.169922"/>
     <use xlink:href="#DejaVuSans-74" x="1584.957031"/>
     <use xlink:href="#DejaVuSans-68" x="1624.166016"/>
     <use xlink:href="#DejaVuSans-65" x="1687.544922"/>
     <use xlink:href="#DejaVuSans-20" x="1749.068359"/>
     <use xlink:href="#DejaVuSans-62" x="1780.855469"/>
     <use xlink:href="#DejaVuSans-65" x="1844.332031"/>
     <use xlink:href="#DejaVuSans-6e" x="1905.855469"/>
     <use xlink:href="#DejaVuSans-63" x="1969.234375"/>
     <use xlink:href="#DejaVuSans-68" x="2024.214844"/>
    </g>
   </g>
   <g id="legend_1">
    <g id="patch_7">
     <path d="M 79 147.90875 
L 186.865625 147.90875 
Q 188.865625 147.90875 188.865625 145.90875 
L 188.865625 58.84 
Q 188.865625 56.84 186.865625 56.84 
L 79 56.84 
Q 77 56.84 77 58.84 
L 77 145.90875 
Q 77 147.90875 79 147.90875 
z
" style="fill: #ffffff; opacity: 0.8; stroke: #cccccc; stroke-linejoin: miter"/>
    </g>
    <g id="PathCollection_4">
     <g>
      <use xlink:href="#m9bb84cf21d" x="91" y="65.813437" style="fill: #ff0000; stroke: #ff0000"/>
     </g>
    </g>
    <g id="text_16">
     <!-- Opt level 1 -->
     <g transform="translate(109 68.438437) scale(0.1 -0.1)">
      <defs>
       <path id="DejaVuSans-4f" d="M 2522 4238 
Q 1834 4238 1429 3725 
Q 1025 3213 1025 2328 
Q 1025 1447 1429 934 
Q 1834 422 2522 422 
Q 3209 422 3611 934 
Q 4013 1447 4013 2328 
Q 4013 3213 3611 3725 
Q 3209 4238 2522 4238 
z
M 2522 4750 
Q 3503 4750 4090 4092 
Q 4678 3434 4678 2328 
Q 4678 1225 4090 567 
Q 3503 -91 2522 -91 
Q 1538 -91 948 565 
Q 359 1222 359 2328 
Q 359 3434 948 4092 
Q 1538 4750 2522 4750 
z
" transform="scale(0.015625)"/>
      </defs>
      <use xlink:href="#DejaVuSans-4f"/>
      <use xlink:href="#DejaVuSans-70" x="78.710938"/>
      <use xlink:href="#DejaVuSans-74" x="142.1875"/>
      <use xlink:href="#DejaVuSans-20" x="181.396484"/>
      <use xlink:href="#DejaVuSans-6c" x="213.183594"/>
      <use xlink:href="#DejaVuSans-65" x="240.966797"/>
      <use xlink:href="#DejaVuSans-76" x="302.490234"/>
      <use xlink:href="#DejaVuSans-65" x="361.669922"/>
      <use xlink:href="#DejaVuSans-6c" x="423.193359"/>
      <use xlink:href="#DejaVuSans-20" x="450.976562"/>
      <use xlink:href="#DejaVuSans-31" x="482.763672"/>
     </g>
    </g>
    <g id="line2d_16">
     <path d="M 81 79.616562 
L 91 79.616562 
L 101 79.616562 
" style="fill: none; stroke: #ff0000; stroke-width: 1.5; stroke-linecap: square"/>
    </g>
    <g id="text_17">
     <!-- Opt level 1 line -->
     <g transform="translate(109 83.116562) scale(0.1 -0.1)">
      <use xlink:href="#DejaVuSans-4f"/>
      <use xlink:href="#DejaVuSans-70" x="78.710938"/>
      <use xlink:href="#DejaVuSans-74" x="142.1875"/>
      <use xlink:href="#DejaVuSans-20" x="181.396484"/>
      <use xlink:href="#DejaVuSans-6c" x="213.183594"/>
      <use xlink:href="#DejaVuSans-65" x="240.966797"/>
      <use xlink:href="#DejaVuSans-76" x="302.490234"/>
      <use xlink:href="#DejaVuSans-65" x="361.669922"/>
      <use xlink:href="#DejaVuSans-6c" x="423.193359"/>
      <use xlink:href="#DejaVuSans-20" x="450.976562"/>
      <use xlink:href="#DejaVuSans-31" x="482.763672"/>
      <use xlink:href="#DejaVuSans-20" x="546.386719"/>
      <use xlink:href="#DejaVuSans-6c" x="578.173828"/>
      <use xlink:href="#DejaVuSans-69" x="605.957031"/>
      <use xlink:href="#DejaVuSans-6e" x="633.740234"/>
      <use xlink:href="#DejaVuSans-65" x="697.119141"/>
     </g>
    </g>
    <g id="PathCollection_5">
     <g>
      <use xlink:href="#mfc2d3facd1" x="91" y="95.169687" style="fill: #0000ff; stroke: #0000ff"/>
     </g>
    </g>
    <g id="text_18">
     <!-- Opt level 2 -->
     <g transform="translate(109 97.794687) scale(0.1 -0.1)">
      <use xlink:href="#DejaVuSans-4f"/>
      <use xlink:href="#DejaVuSans-70" x="78.710938"/>
      <use xlink:href="#DejaVuSans-74" x="142.1875"/>
      <use xlink:href="#DejaVuSans-20" x="181.396484"/>
      <use xlink:href="#DejaVuSans-6c" x="213.183594"/>
      <use xlink:href="#DejaVuSans-65" x="240.966797"/>
      <use xlink:href="#DejaVuSans-76" x="302.490234"/>
      <use xlink:href="#DejaVuSans-65" x="361.669922"/>
      <use xlink:href="#DejaVuSans-6c" x="423.193359"/>
      <use xlink:href="#DejaVuSans-20" x="450.976562"/>
      <use xlink:href="#DejaVuSans-32" x="482.763672"/>
     </g>
    </g>
    <g id="line2d_17">
     <path d="M 81 108.972812 
L 91 108.972812 
L 101 108.972812 
" style="fill: none; stroke-dasharray: 5.55,2.4; stroke-dashoffset: 0; stroke: #0000ff; stroke-width: 1.5"/>
    </g>
    <g id="text_19">
     <!-- Opt level 2 line -->
     <g transform="translate(109 112.472812) scale(0.1 -0.1)">
      <use xlink:href="#DejaVuSans-4f"/>
      <use xlink:href="#DejaVuSans-70" x="78.710938"/>
      <use xlink:href="#DejaVuSans-74" x="142.1875"/>
      <use xlink:href="#DejaVuSans-20" x="181.396484"/>
      <use xlink:href="#DejaVuSans-6c" x="213.183594"/>
      <use xlink:href="#DejaVuSans-65" x="240.966797"/>
      <use xlink:href="#DejaVuSans-76" x="302.490234"/>
      <use xlink:href="#DejaVuSans-65" x="361.669922"/>
      <use xlink:href="#DejaVuSans-6c" x="423.193359"/>
      <use xlink:href="#DejaVuSans-20" x="450.976562"/>
      <use xlink:href="#DejaVuSans-32" x="482.763672"/>
      <use xlink:href="#DejaVuSans-20" x="546.386719"/>
      <use xlink:href="#DejaVuSans-6c" x="578.173828"/>
      <use xlink:href="#DejaVuSans-69" x="605.957031"/>
      <use xlink:href="#DejaVuSans-6e" x="633.740234"/>
      <use xlink:href="#DejaVuSans-65" x="697.119141"/>
     </g>
    </g>
    <g id="PathCollection_6">
     <g>
      <use xlink:href="#md8c19c8aac" x="91" y="124.525937" style="fill: #00bfbf; stroke: #00bfbf"/>
     </g>
    </g>
    <g id="text_20">
     <!-- Opt level 3 -->
     <g transform="translate(109 127.150937) scale(0.1 -0.1)">
      <use xlink:href="#DejaVuSans-4f"/>
      <use xlink:href="#DejaVuSans-70" x="78.710938"/>
      <use xlink:href="#DejaVuSans-74" x="142.1875"/>
      <use xlink:href="#DejaVuSans-20" x="181.396484"/>
      <use xlink:href="#DejaVuSans-6c" x="213.183594"/>
      <use xlink:href="#DejaVuSans-65" x="240.966797"/>
      <use xlink:href="#DejaVuSans-76" x="302.490234"/>
      <use xlink:href="#DejaVuSans-65" x="361.669922"/>
      <use xlink:href="#DejaVuSans-6c" x="423.193359"/>
      <use xlink:href="#DejaVuSans-20" x="450.976562"/>
      <use xlink:href="#DejaVuSans-33" x="482.763672"/>
     </g>
    </g>
    <g id="line2d_18">
     <path d="M 81 138.329062 
L 91 138.329062 
L 101 138.329062 
" style="fill: none; stroke-dasharray: 9.6,2.4,1.5,2.4; stroke-dashoffset: 0; stroke: #00bfbf; stroke-width: 1.5"/>
    </g>
    <g id="text_21">
     <!-- Opt level 3 line -->
     <g transform="translate(109 141.829062) scale(0.1 -0.1)">
      <use xlink:href="#DejaVuSans-4f"/>
      <use xlink:href="#DejaVuSans-70" x="78.710938"/>
      <use xlink:href="#DejaVuSans-74" x="142.1875"/>
      <use xlink:href="#DejaVuSans-20" x="181.396484"/>
      <use xlink:href="#DejaVuSans-6c" x="213.183594"/>
      <use xlink:href="#DejaVuSans-65" x="240.966797"/>
      <use xlink:href="#DejaVuSans-76" x="302.490234"/>
      <use xlink:href="#DejaVuSans-65" x="361.669922"/>
      <use xlink:href="#DejaVuSans-6c" x="423.193359"/>
      <use xlink:href="#DejaVuSans-20" x="450.976562"/>
      <use xlink:href="#DejaVuSans-33" x="482.763672"/>
      <use xlink:href="#DejaVuSans-20" x="546.386719"/>
      <use xlink:href="#DejaVuSans-6c" x="578.173828"/>
      <use xlink:href="#DejaVuSans-69" x="605.957031"/>
      <use xlink:href="#DejaVuSans-6e" x="633.740234"/>
      <use xlink:href="#DejaVuSans-65" x="697.119141"/>
     </g>
    </g>
   </g>
  </g>
 </g>
 <defs>
  <clipPath id="pd41e3a2838">
   <rect x="72" y="51.84" width="446.4" height="332.64"/>
  </clipPath>
 </defs>
</svg>
